<?xml version="1.0" encoding="UTF-8" standalone="no"?>
<!-- Created with Inkscape (http://www.inkscape.org/) -->

<svg
   xmlns:dc="http://purl.org/dc/elements/1.1/"
   xmlns:cc="http://creativecommons.org/ns#"
   xmlns:rdf="http://www.w3.org/1999/02/22-rdf-syntax-ns#"
   xmlns:svg="http://www.w3.org/2000/svg"
   xmlns="http://www.w3.org/2000/svg"
   xmlns:xlink="http://www.w3.org/1999/xlink"
   xmlns:sodipodi="http://sodipodi.sourceforge.net/DTD/sodipodi-0.dtd"
   xmlns:inkscape="http://www.inkscape.org/namespaces/inkscape"
   sodipodi:docname="New document 1"
   inkscape:version="0.48.5 r10040"
   version="1.1"
   id="svg2"
   height="637.33002"
   width="849.96997">
  <sodipodi:namedview
     id="base"
     pagecolor="#ffffff"
     bordercolor="#666666"
     borderopacity="1.0"
     inkscape:pageopacity="0.0"
     inkscape:pageshadow="2"
     inkscape:zoom="0.41618654"
     inkscape:cx="241.85704"
     inkscape:cy="342.90195"
     inkscape:document-units="px"
     inkscape:current-layer="layer1"
     showgrid="false"
     inkscape:window-width="1280"
     inkscape:window-height="710"
     inkscape:window-x="0"
     inkscape:window-y="0"
     inkscape:window-maximized="1"
     showguides="true"
     inkscape:guide-bbox="true" />
  <defs
     id="defs4">
    <pattern
       inkscape:collect="always"
       xlink:href="#Checkerboard"
       id="pattern6622"
       patternTransform="matrix(17.152536,0,0,17.152536,93.753008,-1036.7862)" />
    <pattern
       inkscape:stockid="Checkerboard"
       id="Checkerboard"
       patternTransform="translate(0,0) scale(10,10)"
       height="2"
       width="2"
       patternUnits="userSpaceOnUse"
       inkscape:collect="always">
      <rect
         id="rect5979"
         height="1"
         width="1"
         y="0"
         x="0"
         style="fill:black;stroke:none" />
      <rect
         id="rect5981"
         height="1"
         width="1"
         y="1"
         x="1"
         style="fill:black;stroke:none" />
    </pattern>
    <linearGradient
       inkscape:collect="always"
       id="linearGradient5171">
      <stop
         style="stop-color:#9cdb3f;stop-opacity:1;"
         offset="0"
         id="stop5173" />
      <stop
         style="stop-color:#9cdb3f;stop-opacity:0;"
         offset="1"
         id="stop5175" />
    </linearGradient>
    <linearGradient
       inkscape:collect="always"
       id="linearGradient5163">
      <stop
         style="stop-color:#9cdb3f;stop-opacity:1;"
         offset="0"
         id="stop5165" />
      <stop
         style="stop-color:#9cdb3f;stop-opacity:0;"
         offset="1"
         id="stop5167" />
    </linearGradient>
    <linearGradient
       inkscape:collect="always"
       id="linearGradient4551">
      <stop
         style="stop-color:#9cdb3f;stop-opacity:1;"
         offset="0"
         id="stop4553" />
      <stop
         style="stop-color:#3fdb49;stop-opacity:1"
         offset="1"
         id="stop4555" />
    </linearGradient>
    <inkscape:path-effect
       vertical="false"
       scale_y_rel="false"
       prop_scale="1"
       bendpath="m 167.09375,674.87598 515.96779,0"
       is_visible="true"
       id="path-effect3974"
       effect="bend_path" />
    <inkscape:path-effect
       bendpath4="m 167.09375,599.50093 0,150.7501"
       bendpath3="m 167.09375,750.25103 515.96779,0"
       bendpath2="m 683.06154,599.50093 0,150.7501"
       bendpath1="m 167.09375,599.50093 515.96779,0"
       xx="true"
       yy="true"
       is_visible="true"
       id="path-effect3972"
       effect="envelope" />
    <inkscape:path-effect
       bendpath4="m 167.09375,599.50093 0,150.7501"
       bendpath3="m 167.09375,750.25103 515.96779,0"
       bendpath2="m 683.06154,599.50093 0,150.7501"
       bendpath1="m 167.09375,599.50093 515.96779,0"
       xx="true"
       yy="true"
       is_visible="true"
       id="path-effect3956"
       effect="envelope" />
    <linearGradient
       inkscape:collect="always"
       id="linearGradient3945">
      <stop
         style="stop-color:#d6b87b;stop-opacity:1"
         offset="0"
         id="stop3947" />
      <stop
         style="stop-color:#ffffff;stop-opacity:1"
         offset="1"
         id="stop3949" />
    </linearGradient>
    <linearGradient
       id="linearGradient3922"
       inkscape:collect="always">
      <stop
         id="stop3924"
         offset="0"
         style="stop-color:#ffeba6;stop-opacity:1" />
      <stop
         id="stop3926"
         offset="1"
         style="stop-color:#ffffff;stop-opacity:1" />
    </linearGradient>
    <clipPath
       id="clipPath3882"
       clipPathUnits="userSpaceOnUse">
      <rect
         y="671.48169"
         x="-27.840612"
         height="401.76093"
         width="535.68121"
         id="rect3884"
         style="fill:#ffffff;fill-opacity:1;stroke:none" />
    </clipPath>
    <filter
       color-interpolation-filters="sRGB"
       id="filter3914"
       inkscape:collect="always">
      <feGaussianBlur
         id="feGaussianBlur3916"
         stdDeviation="8.0033798"
         inkscape:collect="always" />
    </filter>
    <linearGradient
       gradientUnits="userSpaceOnUse"
       y2="596.87073"
       x2="589.07758"
       y1="733.06207"
       x1="589.07758"
       id="linearGradient3928"
       xlink:href="#linearGradient3945"
       inkscape:collect="always" />
    <linearGradient
       gradientTransform="translate(0,20)"
       y2="596.87073"
       x2="589.07758"
       y1="733.06207"
       x1="589.07758"
       gradientUnits="userSpaceOnUse"
       id="linearGradient3938"
       xlink:href="#linearGradient3922"
       inkscape:collect="always" />
    <linearGradient
       y2="596.87073"
       x2="589.07758"
       y1="733.06207"
       x1="589.07758"
       gradientUnits="userSpaceOnUse"
       id="linearGradient3960"
       xlink:href="#linearGradient3945"
       inkscape:collect="always" />
    <linearGradient
       gradientTransform="translate(0,-415.03218)"
       y2="596.87073"
       x2="589.07758"
       y1="733.06207"
       x1="589.07758"
       gradientUnits="userSpaceOnUse"
       id="linearGradient3964"
       xlink:href="#linearGradient3945"
       inkscape:collect="always" />
    <linearGradient
       y2="596.87073"
       x2="589.07758"
       y1="733.06207"
       x1="589.07758"
       gradientTransform="translate(0,-415.03218)"
       gradientUnits="userSpaceOnUse"
       id="linearGradient4030"
       xlink:href="#linearGradient3945"
       inkscape:collect="always" />
    <linearGradient
       gradientTransform="translate(0,-415.03218)"
       y2="596.87073"
       x2="589.07758"
       y1="733.06207"
       x1="589.07758"
       gradientUnits="userSpaceOnUse"
       id="linearGradient4033"
       xlink:href="#linearGradient3945"
       inkscape:collect="always" />
    <linearGradient
       y2="596.87073"
       x2="589.07758"
       y1="733.06207"
       x1="589.07758"
       gradientTransform="translate(0,-415.03218)"
       gradientUnits="userSpaceOnUse"
       id="linearGradient4097"
       xlink:href="#linearGradient3945"
       inkscape:collect="always" />
    <linearGradient
       gradientTransform="translate(0,-415.03218)"
       y2="596.87073"
       x2="589.07758"
       y1="733.06207"
       x1="589.07758"
       gradientUnits="userSpaceOnUse"
       id="linearGradient4100"
       xlink:href="#linearGradient3945"
       inkscape:collect="always" />
    <linearGradient
       y2="596.87073"
       x2="589.07758"
       y1="733.06207"
       x1="589.07758"
       gradientTransform="translate(0,-415.03218)"
       gradientUnits="userSpaceOnUse"
       id="linearGradient4168"
       xlink:href="#linearGradient3945"
       inkscape:collect="always" />
    <linearGradient
       gradientTransform="translate(0,-415.03218)"
       y2="596.87073"
       x2="589.07758"
       y1="733.06207"
       x1="589.07758"
       gradientUnits="userSpaceOnUse"
       id="linearGradient4171"
       xlink:href="#linearGradient3945"
       inkscape:collect="always" />
    <linearGradient
       y2="596.87073"
       x2="589.07758"
       y1="733.06207"
       x1="589.07758"
       gradientTransform="translate(0,-415.03218)"
       gradientUnits="userSpaceOnUse"
       id="linearGradient4179"
       xlink:href="#linearGradient3945"
       inkscape:collect="always" />
    <linearGradient
       gradientTransform="translate(0,-415.03218)"
       y2="596.87073"
       x2="589.07758"
       y1="733.06207"
       x1="589.07758"
       gradientUnits="userSpaceOnUse"
       id="linearGradient4182"
       xlink:href="#linearGradient3945"
       inkscape:collect="always" />
    <linearGradient
       y2="596.87073"
       x2="589.07758"
       y1="733.06207"
       x1="589.07758"
       gradientTransform="translate(0,-415.03218)"
       gradientUnits="userSpaceOnUse"
       id="linearGradient4186"
       xlink:href="#linearGradient3945"
       inkscape:collect="always" />
    <linearGradient
       y2="596.87073"
       x2="589.07758"
       y1="733.06207"
       x1="589.07758"
       gradientTransform="translate(0,-415.03218)"
       gradientUnits="userSpaceOnUse"
       id="linearGradient4189"
       xlink:href="#linearGradient3945"
       inkscape:collect="always" />
    <filter
       id="filter4777"
       inkscape:collect="always">
      <feGaussianBlur
         id="feGaussianBlur4779"
         stdDeviation="18.674867"
         inkscape:collect="always" />
    </filter>
    <linearGradient
       y2="371.43613"
       x2="436.64661"
       y1="171.80017"
       x1="436.64661"
       gradientTransform="translate(2.3913922,482.74502)"
       gradientUnits="userSpaceOnUse"
       id="linearGradient4889"
       xlink:href="#linearGradient4551"
       inkscape:collect="always" />
    <linearGradient
       inkscape:collect="always"
       xlink:href="#linearGradient5163"
       id="linearGradient5169"
       x1="342.56372"
       y1="181.99425"
       x2="398.20642"
       y2="166.9155"
       gradientUnits="userSpaceOnUse"
       gradientTransform="translate(0,413.6043)" />
    <linearGradient
       inkscape:collect="always"
       xlink:href="#linearGradient5171"
       id="linearGradient5177"
       x1="342.56372"
       y1="181.99425"
       x2="380.97244"
       y2="175.92664"
       gradientUnits="userSpaceOnUse"
       gradientTransform="translate(0,413.6043)" />
    <clipPath
       clipPathUnits="userSpaceOnUse"
       id="clipPath6624">
      <rect
         style="fill:#ffffff;fill-opacity:1;stroke:none"
         id="rect6626"
         width="852.98291"
         height="641.53925"
         x="-1.5064697"
         y="412.92755"
         rx="0"
         ry="0"
         transform="matrix(0.70710678,-0.70710678,0.70710678,0.70710678,0,0)" />
    </clipPath>
  </defs>
  <metadata
     id="metadata7">
    <rdf:RDF>
      <cc:Work
         rdf:about="">
        <dc:format>image/svg+xml</dc:format>
        <dc:type
           rdf:resource="http://purl.org/dc/dcmitype/StillImage" />
        <dc:title></dc:title>
      </cc:Work>
    </rdf:RDF>
  </metadata>
  <g
     transform="translate(0,-415.03218)"
     id="layer1"
     inkscape:groupmode="layer"
     inkscape:label="Layer 1">
    <rect
       ry="0"
       rx="0"
       y="-328.51074"
       x="91.169044"
       height="1100.4025"
       width="1463.082"
       id="rect5183"
       style="fill:url(#pattern6622);fill-opacity:1;stroke:none;opacity:0.03097345"
       transform="matrix(0.70710678,0.70710678,-0.70710678,0.70710678,0,0)"
       clip-path="url(#clipPath6624)" />
    <g
       id="g5053"
       transform="matrix(0.75500727,0,0,0.71046314,104.05732,221.16158)">
      <path
         transform="matrix(0.96592583,0.25881904,-0.25881904,0.96592583,0,0)"
         style="fill:#e5d2b2;fill-opacity:1;stroke:none"
         d="m 590.60233,399.28903 c 0,0 76.25108,0.55408 76.25108,0.55408 7.10761,0.0516 13.31965,5.91092 13.92204,13.18602 0,0 13.50502,163.10041 13.50502,163.10041 0.71263,8.60637 -5.01662,15.40357 -12.83857,15.17738 0,0 -83.83665,-2.42426 -83.83665,-2.42426 -7.66078,-0.22152 -14.02797,-7.28087 -14.28643,-15.76682 0,0 -4.90306,-160.98204 -4.90306,-160.98204 -0.21892,-7.18786 5.21246,-12.89544 12.18657,-12.84477 0,0 0,0 0,0"
         id="rect4898"
         inkscape:connector-curvature="0" />
      <path
         style="font-size:medium;font-style:normal;font-variant:normal;font-weight:normal;font-stretch:normal;text-indent:0;text-align:start;text-decoration:none;line-height:normal;letter-spacing:normal;word-spacing:normal;text-transform:none;direction:ltr;block-progression:tb;writing-mode:lr-tb;text-anchor:start;baseline-shift:baseline;color:#000000;fill:#9ebd3f;fill-opacity:1;fill-rule:nonzero;stroke:none;stroke-width:50;marker:none;visibility:visible;display:inline;overflow:visible;enable-background:accumulate;font-family:Sans;-inkscape-font-specification:Sans"
         d="m 478.45442,607.20075 c -5.89176,-1.66645 -12.03083,0.65066 -15.55059,5.88238 -3.53897,5.2603 -3.73996,12.4379 -0.47744,18.15721 0,0 9.9347,17.91116 9.9347,17.91116 0,0 8.07856,14.56474 8.07856,14.56474 0,0 12.88597,-8.51251 12.88597,-8.51251 0,0 15.95784,-10.51989 15.95784,-10.51989 4.7039,-2.89016 7.4576,-8.41898 7.20122,-14.41056 -0.25486,-5.95603 -3.44545,-11.4316 -8.31938,-14.31571 -4.861,-2.87645 -10.65564,-2.73609 -15.14883,0.36861 0,0 -3.14287,2.02904 -3.14287,2.02904 0,0 -1.99373,-3.48836 -1.99373,-3.48836 -2.10772,-3.79734 -5.50637,-6.55888 -9.42545,-7.66611 0,0 0,0 0,0"
         id="path4931"
         inkscape:connector-curvature="0" />
      <path
         transform="matrix(0.96592583,-0.25881905,0.25881905,0.96592583,0,0)"
         style="fill:#f0eed5;fill-opacity:1;stroke:none"
         d="m 167.12903,588.81405 c 0,0 113.62484,-0.53069 113.62484,-0.53069 10.28007,-0.048 18.62058,8.36013 18.73334,18.9538 0,0 2.62751,246.86815 2.62751,246.86815 0.14417,13.54549 -9.20498,25.07162 -21.00537,25.69645 0,0 -130.8267,6.92718 -130.8267,6.92718 -12.36613,0.65477 -21.60154,-10.20554 -20.6729,-24.19441 0,0 16.8682,-254.09875 16.8682,-254.09875 0.72147,-10.86802 9.94371,-19.57172 20.65108,-19.62173 0,0 0,0 0,0"
         id="rect4896"
         inkscape:connector-curvature="0" />
      <path
         style="font-size:medium;font-style:normal;font-variant:normal;font-weight:normal;font-stretch:normal;text-indent:0;text-align:start;text-decoration:none;line-height:normal;letter-spacing:normal;word-spacing:normal;text-transform:none;direction:ltr;block-progression:tb;writing-mode:lr-tb;text-anchor:start;baseline-shift:baseline;color:#000000;fill:#9cdb3f;fill-opacity:1;stroke:none;stroke-width:6.91863585;marker:none;visibility:visible;display:inline;overflow:visible;enable-background:accumulate;font-family:Sans;-inkscape-font-specification:Sans"
         d="m 388.34006,600.85029 c 0,0 -11.341,22.7511 -11.341,22.7511 0,0 -9.23057,18.4905 -9.23057,18.4905 -2.56298,5.06517 -3.48325,11.1056 -2.53947,16.76663 0.94901,5.69238 3.77456,10.95214 7.84761,14.58107 4.08672,3.6411 9.38456,5.60055 14.68948,5.42818 5.30269,-0.17231 10.55038,-2.47266 14.55197,-6.37154 0.0957,0.82295 0.17633,2.10108 -0.0892,3.50973 -0.42838,2.27232 -1.20058,4.35446 -5.24738,5.58271 -4.1507,1.25979 -2.85433,8.23758 1.59988,6.88007 0,0 19.38726,-5.90871 19.38726,-5.90871 1.57073,-0.45324 2.65256,-2.42041 2.305,-4.18632 -0.34697,-1.76291 -2.06172,-3.03567 -3.65255,-2.71296 0,0 -1.7382,0.29394 -3.65466,-0.30791 -1.71859,-0.5397 -3.3272,-1.43816 -4.32558,-4.47263 5.23528,1.49324 10.95303,0.8214 15.79085,-1.85273 4.82412,-2.66654 8.71475,-7.29175 10.75751,-12.76861 2.0316,-5.44698 2.21545,-11.68304 0.52413,-17.23897 -1.6822,-5.52592 -5.20795,-10.3414 -9.74414,-13.3291 0,0 -17.5675,-11.58784 -17.5675,-11.58784 0,0 -20.06161,-13.25267 -20.06161,-13.25267"
         id="path4918"
         inkscape:connector-curvature="0"
         sodipodi:nodetypes="cccssscscccscscsssccc" />
    </g>
    <g
       transform="translate(-1.378662e-6,73.895279)"
       id="g4891">
      <path
         style="font-size:121.90314484px;font-style:normal;font-variant:normal;font-weight:900;font-stretch:normal;text-indent:0;text-align:center;text-decoration:none;line-height:125%;letter-spacing:0px;word-spacing:0px;text-transform:none;direction:ltr;block-progression:tb;writing-mode:lr-tb;text-anchor:middle;baseline-shift:baseline;color:#000000;fill:url(#linearGradient4889);fill-opacity:1;fill-rule:nonzero;stroke:none;stroke-width:50;marker:none;visibility:visible;display:inline;overflow:visible;enable-background:accumulate;font-family:Lato;-inkscape-font-specification:Lato Heavy"
         d="m 389.17264,646.68252 a 25.0025,25.0025 0 0 0 -2.5,0.0937 c -0.0313,8.1e-4 -0.0625,-8.4e-4 -0.0937,0 -9.29713,0.25038 -18.48606,1.78849 -27.15625,4.96875 -3.4981,1.28322 -6.86297,2.9091 -10.15625,4.65625 a 25.0025,25.0025 0 0 0 -18.9375,-8.71875 l -59.28125,0 a 25.0025,25.0025 0 0 0 -19.96875,5.375 25.0025,25.0025 0 0 0 -0.78125,0.65625 25.0025,25.0025 0 0 0 -0.21875,0.1875 25.0025,25.0025 0 0 0 -4.53125,5.21875 c -3.50017,-2.32577 -7.18278,-4.37416 -11.03125,-5.96875 -0.0305,-0.0127 -0.0632,-0.0187 -0.0937,-0.0312 -9.3414,-3.86749 -19.3549,-5.43535 -29.53125,-5.4375 l -34.21875,-0.0312 a 25.0025,25.0025 0 0 0 -18.15625,4.1875 25.0025,25.0025 0 0 0 -1,0.71875 25.0025,25.0025 0 0 0 -9.9375,16.84375 l -30.3125,101.5625 a 25.0025,25.0025 0 0 0 0.28125,15.09375 l -0.28125,0.90625 a 25.0025,25.0025 0 0 0 23.90625,32.15625 l 42.90625,0.0625 c 11.48333,0.0139 22.73976,-2.02997 33.25,-6 a 25.0025,25.0025 0 0 0 0.0937,-0.0312 c 4.99748,-1.90715 9.82009,-4.20582 14.40625,-6.875 a 25.0025,25.0025 0 0 0 21.875,12.96875 l 71.21875,0.0937 a 25.0025,25.0025 0 0 0 20.40625,-10.5625 c 2.71565,1.79405 5.52356,3.49085 8.46875,4.90625 a 25.0025,25.0025 0 0 0 0.21875,0.0937 c 10.28997,4.81814 21.57746,6.9239 33,6.9375 12.04228,0.0136 23.78257,-2.04364 34.46875,-7 a 25.0025,25.0025 0 0 0 0.0937,-0.0312 c 0.3767,-0.17639 0.72061,-0.4104 1.09375,-0.59375 a 25.0025,25.0025 0 0 0 16.65625,6.375 l 25.75,0.0312 a 25.0025,25.0025 0 0 0 21.875,-12.90625 c 0.6116,0.7321 1.23783,1.60756 1.8125,2.21875 a 25.0025,25.0025 0 0 0 0.6875,0.71875 c 2.09596,2.05902 4.56802,3.98746 7.6875,5.6875 3.38867,1.8472 6.70328,2.87148 9.53125,3.46875 a 25.0025,25.0025 0 0 0 0.25,0.0625 c 3.15601,0.63559 5.95216,0.8092 8.75,0.8125 l 23.03125,0.0312 a 25.0025,25.0025 0 0 0 4.84375,-0.46875 25.0025,25.0025 0 0 0 4.75,0.5 l 71.65625,0.0625 a 25.0025,25.0025 0 0 0 7.3125,-1.09375 25.0025,25.0025 0 0 0 7.25,1.125 l 43.28125,0.0625 c 11.54858,0.0139 22.77701,-1.97837 33,-6.75 a 25.0025,25.0025 0 0 0 0.125,-0.0625 c 9.69317,-4.58224 18.48869,-11.70159 24.59375,-20.8125 a 25.0025,25.0025 0 0 0 0.0937,-0.125 c 5.88755,-8.91896 9.03894,-19.3105 9.875,-29.59375 l 0.0312,0 c 0.003,-0.0409 -0.003,-0.0841 0,-0.125 0.37837,-4.62139 0.2461,-9.23249 -0.25,-13.8125 0.0764,-0.68599 0.16302,-1.37701 0.21875,-2.0625 l 0.0312,0 c 0.003,-0.0409 -0.003,-0.0841 0,-0.125 0.86377,-10.55 -0.7273,-21.06103 -3.96875,-31.21875 a 25.0025,25.0025 0 0 0 0,-0.0312 c -3.17505,-9.94874 -7.87853,-19.26888 -14,-27.625 -0.0307,-0.0424 -0.063,-0.0827 -0.0937,-0.125 -5.87546,-8.08333 -12.89371,-15.17963 -20.84375,-21.03125 -7.90792,-5.82028 -16.72322,-10.3991 -26.125,-13.59375 -0.009,-0.003 -0.0218,0.003 -0.0312,0 -9.6686,-3.29826 -19.84207,-4.90407 -30.09375,-4.90625 l -34.46875,-0.0312 a 25.0025,25.0025 0 0 0 -11.1875,0.71875 25.0025,25.0025 0 0 0 -5.8125,-0.71875 l -59.625,0 a 25.0025,25.0025 0 0 0 -10.46875,0.4375 25.0025,25.0025 0 0 0 -4.625,-0.4375 l -19.96875,0 c -4.41018,-7e-4 -9.41522,0.48913 -14.84375,2.625 a 25.0025,25.0025 0 0 0 -0.21875,0.0937 c -3.61148,1.46448 -6.70348,3.51479 -9.28125,5.8125 a 25.0025,25.0025 0 0 0 -18.78125,-8.5625 l -18.875,0 a 25.0025,25.0025 0 0 0 -18.40625,4.21875 c -0.009,-0.003 -0.0224,0.003 -0.0312,0 -0.0345,-0.0132 -0.0593,-0.0493 -0.0937,-0.0625 -4.31747,-1.69 -8.74388,-2.87413 -13.21875,-3.71875 l 0,-0.0312 c -0.0928,-0.0186 -0.18839,-0.0131 -0.28125,-0.0312 -0.0319,-0.006 -0.0618,-0.0251 -0.0937,-0.0312 -4.12834,-0.80145 -8.29913,-1.13356 -12.46875,-1.25 a 25.0025,25.0025 0 0 0 -2.4375,-0.125 z m -0.84375,84.34375 c 0.10332,4e-5 0.12367,-0.002 0.21875,0 -0.14583,0.11926 -0.29298,0.22071 -0.4375,0.34375 a 25.0025,25.0025 0 0 0 -0.375,0.3125 c -0.48446,0.42866 -0.69211,0.58434 -0.84375,0.6875 -0.01,0.006 -0.0545,0.0259 -0.0625,0.0312 -0.62054,0.0604 -1.35745,0.0772 -2.1875,0.0937 0.12895,-0.16305 0.26296,-0.29181 0.375,-0.40625 0.44035,-0.44664 0.53463,-0.50698 0.90625,-0.65625 a 25.0025,25.0025 0 0 0 0.21875,-0.0937 c 0.29543,-0.12229 0.80968,-0.31298 2.1875,-0.3125 z"
         id="path4506"
         inkscape:connector-curvature="0" />
      <path
         inkscape:connector-curvature="0"
         style="font-size:121.90314484px;font-style:normal;font-variant:normal;font-weight:900;font-stretch:normal;text-align:center;line-height:125%;letter-spacing:0px;word-spacing:0px;writing-mode:lr-tb;text-anchor:middle;fill:#fbfefb;fill-opacity:1;stroke:none;font-family:Lato;-inkscape-font-specification:Lato Heavy"
         d="m 389.18045,671.68008 c -7.62176,-10e-4 -14.6649,1.17086 -21.13583,3.54442 -6.50622,2.38669 -12.23155,5.73827 -17.1923,10.10235 -4.96468,4.40816 -9.03344,9.74545 -12.21711,15.99628 -3.22458,6.29359 -5.22553,13.30975 -5.99601,21.09456 -0.7694,7.7739 -0.32685,15.09933 1.39713,21.97376 1.7547,6.9268 4.6599,13.0104 8.73231,18.24065 4.17253,5.23603 9.45734,9.43493 15.85149,12.50783 6.48992,3.03882 13.99577,4.56121 22.42632,4.57125 9.19371,0.0104 17.16456,-1.55192 23.91748,-4.68399 6.76067,-3.16566 12.35332,-7.82634 16.77188,-13.8882 0,0 -9.88117,-10.96614 -9.88117,-10.96614 -0.53528,-0.56338 -1.10206,-0.9372 -1.68981,-1.14211 -0.58696,-0.25583 -1.18234,-0.3937 -1.77238,-0.39426 -0.73771,-6.4e-4 -1.43261,0.19101 -2.12728,0.54786 -0.69443,0.30606 -1.35266,0.7065 -1.95334,1.2179 -1.50587,1.3324 -3.01045,2.46967 -4.51445,3.39606 -1.45629,0.8766 -3.01319,1.61479 -4.66386,2.18301 -1.60317,0.56901 -3.36954,0.97436 -5.26319,1.23228 -1.89288,0.20607 -3.94928,0.31597 -6.23192,0.31369 -3.96973,-0.003 -7.66679,-0.83423 -11.05157,-2.4439 -3.3731,-1.60404 -6.27713,-3.89946 -8.69933,-6.91847 -2.35431,-3.04997 -4.13844,-6.76902 -5.34838,-11.11921 -1.15038,-4.30925 -1.50665,-9.18249 -1.11771,-14.61163 0.36721,-5.12663 1.38626,-9.72079 3.08323,-13.75742 1.72855,-4.00041 3.94456,-7.34078 6.63549,-10.08943 2.72339,-2.77702 5.86139,-4.90305 9.45182,-6.34527 3.58096,-1.4823 7.49687,-2.20833 11.73511,-2.20686 2.44165,9.5e-4 4.57543,0.16017 6.36132,0.51961 1.83344,0.35986 3.39162,0.80944 4.71582,1.34966 1.37304,0.49601 2.55669,1.0684 3.5137,1.70085 1.00552,0.58832 1.91947,1.16297 2.7432,1.70725 0.82543,0.49973 1.59542,0.92964 2.33217,1.29372 0.7372,0.36454 1.51276,0.56094 2.34918,0.56123 1.25444,6e-4 2.23609,-0.26856 2.93811,-0.76891 0.70149,-0.54504 1.31994,-1.11005 1.8353,-1.74459 0,0 7.90354,-10.29211 7.90354,-10.29211 -1.87514,-1.89896 -4.00421,-3.60969 -6.41092,-5.14346 -2.39784,-1.57167 -5.00773,-2.89966 -7.84843,-3.98471 -2.83271,-1.1253 -5.91528,-1.98852 -9.19835,-2.59245 -3.23196,-0.64585 -6.68282,-0.9603 -10.38126,-0.9611 0,0 0,0 0,0 m -222.49596,0.98061 c 0,0 -31.47177,105.46335 -31.47177,105.46335 0,0 42.88562,0.0506 42.88562,0.0506 8.59093,0.0104 16.72585,-1.47066 24.40947,-4.37299 7.70011,-2.93853 14.5587,-6.95494 20.58252,-12.05971 5.97044,-5.10249 10.97692,-11.06582 14.97237,-17.82169 3.99624,-6.70886 6.71319,-13.89047 8.20314,-21.5597 1.45573,-7.49418 1.5018,-14.3203 0.14537,-20.47959 -1.2826,-6.11976 -3.77553,-11.30845 -7.41565,-15.63524 -3.60421,-4.28366 -8.29486,-7.62875 -14.09284,-10.02107 -5.72035,-2.37865 -12.37258,-3.55467 -20.02342,-3.55629 0,0 -38.19481,-0.007 -38.19481,-0.007 0,0 0,0 0,0 m 100.21524,0.02 c 0,0 -19.15609,105.576 -19.15609,105.576 0,0 71.21593,0.084 71.21593,0.084 0,0 2.22553,-20.7152 2.22553,-20.7152 0,0 -44.43544,-0.0439 -44.43544,-0.0439 0,0 4.06633,-26.29789 4.06633,-26.29789 0,0 33.07901,0.0245 33.07901,0.0245 0,0 2.14096,-18.06917 2.14096,-18.06917 0,0 -32.42692,-0.0187 -32.42692,-0.0187 0,0 3.62265,-23.42852 3.62265,-23.42852 0,0 41.23949,0.0155 41.23949,0.0155 0,0 1.83858,-17.11332 1.83858,-17.11332 0,0 -63.41003,-0.0121 -63.41003,-0.0121 0,0 0,0 0,0 m 165.25068,0.0332 c 0,0 1.20823,105.76183 1.20823,105.76183 0,0 25.73709,0.0304 25.73709,0.0304 0,0 -1.83448,-48.07348 -1.83448,-48.07348 0,0 5.93835,0.005 5.93835,0.005 2.26836,0.002 4.05738,0.32009 5.39086,0.91085 1.38093,0.54239 2.55428,1.50193 3.50041,2.88635 0,0 27.12537,39.28403 27.12537,39.28403 0.57088,0.80873 1.16089,1.51036 1.77122,2.15948 0.60653,0.59584 1.32315,1.15052 2.12084,1.58524 0.79826,0.43514 1.70322,0.74515 2.73835,0.96377 1.0863,0.21877 2.38626,0.33738 3.86076,0.33912 0,0 23.03521,0.0271 23.03521,0.0271 0,0 -37.71742,-52.22984 -37.71742,-52.22984 -1.40614,-1.99155 -2.91408,-3.57249 -4.53333,-4.73075 -1.57096,-1.20316 -3.30088,-2.13728 -5.16037,-2.80894 1.19174,-0.66865 2.36591,-1.4936 3.48194,-2.49348 1.11347,-0.99756 2.13559,-2.23994 3.10905,-3.75225 0,0 26.24578,-39.84656 26.24578,-39.84656 0,0 -19.97753,-0.003 -19.97753,-0.003 -2.26238,-3.6e-4 -4.13346,0.29089 -5.66803,0.89467 -1.49149,0.60481 -2.78293,1.77298 -3.87773,3.46716 0,0 -20.73222,32.221 -20.73222,32.221 -1.44736,2.20634 -3.9606,3.32446 -7.50976,3.32237 0,0 -3.82108,-0.002 -3.82108,-0.002 0,0 -1.52303,-39.91167 -1.52303,-39.91167 0,0 -22.90848,-0.005 -22.90848,-0.005 0,0 0,0 0,0 m 96.98428,0.0195 c 0,0 13.19253,105.87092 13.19253,105.87092 0,0 71.64488,0.0845 71.64488,0.0845 0,0 -4.13507,-20.77813 -4.13507,-20.77813 0,0 -44.71173,-0.0442 -44.71173,-0.0442 0,0 -3.99714,-26.37421 -3.99714,-26.37421 0,0 33.28843,0.0247 33.28843,0.0247 0,0 -3.40473,-18.11937 -3.40473,-18.11937 0,0 -32.62887,-0.0188 -32.62887,-0.0188 0,0 -3.56014,-23.49079 -3.56014,-23.49079 0,0 41.47995,0.0156 41.47995,0.0156 0,0 -3.4144,-17.15686 -3.4144,-17.15686 0,0 -63.75371,-0.0121 -63.75371,-0.0121 0,0 0,0 0,0 m 76.72269,0.0155 c 0,0 22.69021,105.95727 22.69021,105.95727 0,0 43.27943,0.051 43.27943,0.051 8.66983,0.0104 16.14885,-1.47813 22.39903,-4.39543 6.24794,-2.95358 11.09018,-6.99047 14.52809,-12.12105 3.38509,-5.12802 5.31507,-11.12093 5.85437,-17.90988 0.56433,-6.74128 -0.40552,-13.95709 -2.86435,-21.66232 -2.40276,-7.52884 -5.8816,-14.38603 -10.4299,-20.573 -4.45318,-6.14688 -9.60992,-11.35829 -15.51378,-15.70382 -5.84515,-4.30207 -12.30076,-7.66138 -19.38063,-10.06383 -6.9944,-2.38866 -14.34221,-3.5696 -22.05561,-3.57124 0,0 -38.50686,-0.007 -38.50686,-0.007 0,0 0,0 0,0 m -420.88091,17.00652 c 0,0 15.56419,0.005 15.56419,0.005 4.45222,0.002 8.23051,0.72896 11.36671,2.21076 3.15754,1.44199 5.62595,3.56623 7.39126,6.33996 1.83333,2.7457 2.95281,6.14212 3.35611,10.18376 0.40681,4.07878 0.0246,8.68155 -1.12012,13.84883 -1.1689,5.27566 -2.88052,10.06017 -5.19085,14.35898 -2.33222,4.33932 -5.15086,8.07468 -8.44887,11.16485 -3.259,3.05956 -6.97567,5.42784 -11.1265,7.12536 -4.15309,1.65177 -8.62293,2.50083 -13.41948,2.49606 0,0 -16.76759,-0.0173 -16.76759,-0.0173 0,0 18.39514,-67.7176 18.39514,-67.7176 0,0 0,0 0,0 m 448.14109,0.16103 c 0,0 15.69392,0.005 15.69392,0.005 4.48937,0.002 8.67383,0.73214 12.60047,2.2204 3.92767,1.4483 7.5128,3.58187 10.72445,6.36785 3.26582,2.75788 6.14798,6.16951 8.64129,10.22934 2.51613,4.09732 4.54408,8.72122 6.05824,13.91243 1.54585,5.30036 2.25348,10.10747 2.14379,14.42681 -0.11088,4.36021 -1.02417,8.11369 -2.7541,11.21895 -1.70645,3.07459 -4.2315,5.45455 -7.5408,7.16048 -3.33528,1.65998 -7.40456,2.51326 -12.24422,2.50845 0,0 -16.91824,-0.0173 -16.91824,-0.0173 0,0 -16.4048,-68.03364 -16.4048,-68.03364 0,0 0,0 0,0"
         id="text3918" />
      <path
         style="fill:#bdf1b9;fill-opacity:1;stroke:none"
         d="m 158.81253,699.03575 -23.59375,79.09375 42.875,0.0312 c 8.59093,0.0104 16.72263,-1.44142 24.40625,-4.34375 7.70011,-2.93853 14.56993,-6.95773 20.59375,-12.0625 5.97044,-5.10249 10.9733,-11.08788 14.96875,-17.84375 3.99624,-6.70886 6.7288,-13.89327 8.21875,-21.5625 0.64677,-3.32963 1.00288,-6.49651 1.09375,-9.5625 -8.69565,-1.23473 -16.82741,-2.42781 -24.65625,-3.59375 0.30241,3.90888 -0.10579,8.27342 -1.1875,13.15625 -1.1689,5.27566 -2.87717,10.07619 -5.1875,14.375 -2.33222,4.33932 -5.13949,8.06608 -8.4375,11.15625 -3.259,3.05956 -6.97417,5.42748 -11.125,7.125 -4.15309,1.65177 -8.64095,2.50477 -13.4375,2.5 l -16.75,-0.0312 14.84375,-54.6875 c -8.99466,-1.45265 -16.29124,-2.67256 -22.625,-3.75 z m 100.53125,15.40625 -11.59375,63.8125 71.21875,0.0937 2.21875,-20.71875 -44.4375,-0.0625 4.0625,-26.28125 33.09375,0.0312 1.125,-9.5625 c -19.82898,-2.45132 -38.45253,-4.9212 -55.6875,-7.3125 z m 73.15625,9.4375 c -0.57695,7.22932 -0.0837,14.06016 1.53125,20.5 1.7547,6.9268 4.67759,13.01975 8.75,18.25 4.17253,5.23603 9.4496,9.4271 15.84375,12.5 6.48992,3.03882 13.9757,4.58371 22.40625,4.59375 9.19371,0.0104 17.18458,-1.55543 23.9375,-4.6875 6.76067,-3.16566 12.36269,-7.84439 16.78125,-13.90625 l -9.90625,-10.96875 c -0.53528,-0.56338 -1.09975,-0.92009 -1.6875,-1.125 -0.58696,-0.25583 -1.15996,-0.40569 -1.75,-0.40625 -0.73771,-6.4e-4 -1.46158,0.20565 -2.15625,0.5625 -0.69443,0.30606 -1.33682,0.70735 -1.9375,1.21875 -1.50587,1.3324 -2.996,2.44861 -4.5,3.375 -1.45629,0.8766 -3.03683,1.61928 -4.6875,2.1875 -1.60317,0.56901 -3.35635,0.99208 -5.25,1.25 -1.89288,0.20607 -3.96736,0.31478 -6.25,0.3125 -3.96973,-0.003 -7.64647,-0.82783 -11.03125,-2.4375 -3.3731,-1.60404 -6.29655,-3.91849 -8.71875,-6.9375 -2.35431,-3.04997 -4.13381,-6.77481 -5.34375,-11.125 -0.83922,-3.14366 -1.23703,-6.57168 -1.25,-10.3125 -8.40414,-0.94065 -16.69708,-1.88325 -24.78125,-2.84375 z m 100.34375,10.46875 0.5,44.125 25.75,0.0312 -1.625,-42.03125 c -8.28952,-0.67864 -16.48757,-1.39531 -24.625,-2.125 z m 41.75,3.46875 24.625,35.71875 c 0.57088,0.80873 1.17092,1.50713 1.78125,2.15625 0.60653,0.59584 1.29606,1.12778 2.09375,1.5625 0.79826,0.43514 1.71487,0.75013 2.75,0.96875 1.0863,0.21877 2.4005,0.34201 3.875,0.34375 l 23.03125,0.0312 -27.90625,-38.625 c -10.16326,-0.6692 -20.24314,-1.39328 -30.25,-2.15625 z m 63.15625,4.125 4.5625,36.65625 71.65625,0.0937 -4.125,-20.78125 -44.71875,-0.0312 -2.21875,-14.71875 c -8.41566,-0.36941 -16.79099,-0.76893 -25.15625,-1.21875 z m 176.84375,2.5 c -8.93937,0.29666 -17.93576,0.50673 -26.96875,0.65625 -0.38778,1.13068 -0.8502,2.18938 -1.40625,3.1875 -1.70645,3.07459 -4.22195,5.48157 -7.53125,7.1875 -3.33528,1.65998 -7.41034,2.50481 -12.25,2.5 l -16.90625,-0.0312 -3.0625,-12.625 c -8.35963,-0.0501 -16.74409,-0.15872 -25.125,-0.3125 l 7.21875,33.71875 43.25,0.0312 c 8.66983,0.0104 16.15607,-1.4577 22.40625,-4.375 6.24794,-2.95358 11.09334,-6.99442 14.53125,-12.125 3.36938,-5.10422 5.2941,-11.06241 5.84375,-17.8125 z"
         id="path4826"
         inkscape:connector-curvature="0" />
    </g>
    <path
       style="fill:#9cdb3f;fill-opacity:1;stroke:none"
       d="m 329.20532,618.53082 c -3.82278,-19.11391 -23.7862,-15.29113 -23.7862,-15.29113 18.68916,-2.97327 18.26441,-21.23767 18.26441,-21.23767 0,0 3.39802,17.41489 24.6357,14.01686 -22.08718,2.54852 -19.11391,22.51194 -19.11391,22.51194 z"
       id="path5153"
       inkscape:connector-curvature="0" />
    <path
       style="fill:url(#linearGradient5169);fill-opacity:1;stroke:url(#linearGradient5177);stroke-width:2.80000019;stroke-linecap:butt;stroke-linejoin:miter;stroke-miterlimit:4;stroke-opacity:1;stroke-dasharray:none"
       d="m 335.3429,597.93469 62.72649,-16.80751"
       id="path5161"
       inkscape:connector-curvature="0" />
  </g>
</svg>
