<?xml version="1.0" encoding="UTF-8" standalone="no"?>
<!-- Created with Inkscape (http://www.inkscape.org/) -->

<svg
   xmlns:dc="http://purl.org/dc/elements/1.1/"
   xmlns:cc="http://creativecommons.org/ns#"
   xmlns:rdf="http://www.w3.org/1999/02/22-rdf-syntax-ns#"
   xmlns:svg="http://www.w3.org/2000/svg"
   xmlns="http://www.w3.org/2000/svg"
   xmlns:sodipodi="http://sodipodi.sourceforge.net/DTD/sodipodi-0.dtd"
   xmlns:inkscape="http://www.inkscape.org/namespaces/inkscape"
   width="800"
   height="800"
   id="svg2"
   version="1.1"
   inkscape:version="0.48.5 r10040"
   sodipodi:docname="haudio_blank.svg">
  <defs
     id="defs4" />
  <sodipodi:namedview
     id="base"
     pagecolor="#ffffff"
     bordercolor="#666666"
     borderopacity="1.0"
     inkscape:pageopacity="0.0"
     inkscape:pageshadow="2"
     inkscape:zoom="0.49497475"
     inkscape:cx="497.91966"
     inkscape:cy="383.99403"
     inkscape:document-units="px"
     inkscape:current-layer="layer1"
     showgrid="false"
     showguides="true"
     inkscape:guide-bbox="true"
     inkscape:window-width="1280"
     inkscape:window-height="708"
     inkscape:window-x="0"
     inkscape:window-y="0"
     inkscape:window-maximized="1" />
  <metadata
     id="metadata7">
    <rdf:RDF>
      <cc:Work
         rdf:about="">
        <dc:format>image/svg+xml</dc:format>
        <dc:type
           rdf:resource="http://purl.org/dc/dcmitype/StillImage" />
        <dc:title />
      </cc:Work>
    </rdf:RDF>
  </metadata>
  <g
     inkscape:label="Layer 1"
     inkscape:groupmode="layer"
     id="layer1"
     transform="translate(0,-252.36218)">
    <path
       style="fill:#000000;fill-opacity:1"
       d="m 729.60857,270.83774 c -1.18171,0.46973 -2.0528,9.85085 -2.02121,21.89653 0.0773,29.54578 -5.91441,42.78101 -30.73936,67.87923 -22.20965,22.45411 -56.67036,47.00126 -60.55231,43.11931 -1.88927,-1.88927 1.81494,-7.41835 11.622,-17.34879 7.89248,-7.99173 13.86523,-15.84058 13.30635,-17.51722 -0.58653,-1.75956 -8.6628,2.21399 -19.11735,9.43235 l -18.10674,12.46418 -13.89587,-12.46418 c -40.67661,-36.57178 -103.88081,-68.34632 -161.36055,-81.10136 -31.28843,-6.94304 -96.11106,-8.32671 -129.86324,-2.77917 -113.52561,18.65923 -213.27707,91.5869 -263.853137,192.94207 -12.534056,25.11849 -21.357534,49.04418 -21.222786,57.52049 0.0857,5.39323 0.305284,5.40541 5.642566,-1.01061 3.070795,-3.69141 8.638092,-12.78689 12.379958,-20.21217 C 77.2471,473.215 126.38131,425.24962 179.16361,399.35351 c 75.20647,-36.89779 167.97543,-36.88879 243.97782,0.0841 26.85579,13.06456 68.72141,42.45465 68.72141,48.25657 0,1.98972 -10.00503,11.41231 -22.2334,20.88592 -12.22836,9.47361 -31.79715,25.72361 -43.45618,36.12927 -23.88319,21.3157 -36.82033,31.51261 -32.50792,25.60209 1.59251,-2.18265 11.59753,-14.72447 22.2334,-27.79175 19.39275,-23.82603 22.19483,-28.80235 16.08552,-28.80235 -5.59761,0 -75.42915,73.03996 -91.54432,95.75519 -20.16431,28.42269 -39.10293,67.07055 -44.38257,90.44949 -6.0899,26.96693 -10.50077,23.08336 -9.76922,-8.59017 0.35396,-15.32552 3.18191,-36.52691 7.15848,-53.64649 3.6151,-15.56338 5.53951,-29.34557 4.29509,-30.65513 -7.48045,-7.87197 -37.52741,72.64631 -37.64518,100.89245 -0.0353,8.43397 -1.02258,9.84982 -8.75861,12.1273 l -8.75861,2.52653 -0.75796,47.9197 -0.75796,47.9197 -50.44622,-0.75795 -50.44623,-0.75796 -0.75796,-47.75127 -0.75795,-47.83548 -6.90583,-1.68435 c -9.69907,-2.4343 -32.412787,0.638 -39.076877,5.30569 -13.775191,9.64854 -14.401446,12.84659 -15.832872,75.71145 l -1.347478,59.20484 -11.790437,-18.10674 c -6.473556,-9.94396 -12.840392,-18.10675 -14.148524,-18.10675 -7.349849,0 3.278603,26.1153 23.412438,57.35206 64.60057,100.22504 168.57503,159.31225 290.88692,165.31845 17.78672,0.8735 48.10498,4.4122 67.37393,7.9165 38.28256,6.9619 93.61453,13.6443 141.65367,17.0963 16.91751,1.2156 61.14184,2.3486 98.1975,2.5265 61.20611,0.2959 68.42501,-0.1617 78.82749,-4.8846 12.98778,-5.8955 18.35538,-14.9282 15.58022,-26.1074 -1.1999,-4.83344 -19.72668,-25.85329 -50.86731,-57.52066 -26.96518,-27.42118 -52.57314,-53.68729 -56.84675,-58.44661 l -7.748,-8.67439 10.61139,-14.23274 c 48.70337,-65.72685 71.3502,-133.56382 71.50058,-213.74378 0.12504,-66.77675 -15.66487,-127.89422 -46.48801,-179.80416 l -16.25396,-27.28644 15.41178,-13.81165 c 20.71347,-18.52595 18.38085,-23.92524 -4.04243,-9.43235 -29.61475,19.14093 -28.03033,11.12268 4.21087,-21.13857 39.73353,-39.75819 54.41482,-65.08903 54.6571,-94.23928 0.11345,-13.65217 -4.81126,-30.62277 -9.76922,-33.68696 -0.0811,-0.0501 -0.17383,-0.0313 -0.25252,0 z M 549.80441,530.31157 c 2.22334,0 4.04244,0.51231 4.04244,1.09483 0,0.58254 -1.8191,1.75754 -4.04244,2.61074 -2.22334,0.85317 -4.04243,0.34086 -4.04243,-1.09483 0,-1.43571 1.81909,-2.61074 4.04243,-2.61074 z m 11.28514,16.33818 2.86339,6.23209 c 1.56763,3.44054 2.06808,7.4377 1.09482,8.92704 -0.97323,1.48934 -12.67963,9.64334 -25.93896,18.02253 -33.67844,21.28304 -35.073,20.48612 -11.79043,-6.48474 7.10735,-8.23326 17.59356,-17.66286 23.32822,-20.88592 l 10.44296,-5.811 z m 11.28513,34.61335 3.11604,10.27453 c 4.8506,15.98093 6.53142,81.40899 2.69496,105.35597 -3.88192,24.23074 -15.44949,62.48932 -18.8647,62.48932 -1.2977,0 -7.95457,-10.30821 -14.82226,-22.90714 -11.6858,-21.43787 -17.60144,-27.88485 -17.60144,-19.20157 0,5.35946 6.99058,24.61038 16.67505,45.64584 6.11871,13.29031 7.6268,19.07011 5.47413,21.22278 -6.06088,6.06088 -41.99078,-56.72442 -47.66706,-83.29101 -2.41883,-11.32087 -6.24456,-13.55911 -8.42174,-4.88461 -3.63369,14.47774 6.72912,45.31306 27.70753,82.61727 6.68457,11.8866 11.61327,22.15791 10.94826,22.82292 -2.13324,2.13328 -34.28826,-45.03626 -42.69822,-62.65775 -4.46967,-9.36532 -8.80532,-23.05918 -9.685,-30.4867 -1.73146,-14.61952 -6.5062,-17.69482 -11.87466,-7.66378 -8.43031,15.75221 4.44466,61.0722 29.9814,105.60862 7.52879,13.13035 13.33936,24.10205 12.88526,24.42305 -1.91331,1.35249 -20.47908,-22.12613 -35.70818,-45.22475 -9.62099,-14.59257 -19.56509,-33.92155 -24.08618,-46.90909 -7.84359,-22.53189 -12.46417,-26.34679 -12.46417,-10.19031 0,19.39558 15.89237,56.57887 39.07687,91.46011 9.69538,14.58675 -0.85025,5.7997 -17.34878,-14.4854 -18.14997,-22.31559 -36.4341,-55.18153 -39.32953,-70.74262 -2.73021,-14.67312 0.20886,-22.41776 10.94826,-29.055 29.78752,-18.40971 16.14802,-25.01866 -19.28578,-9.34814 -7.96188,3.52113 -14.49079,5.57786 -14.4854,4.54774 0.0313,-5.82151 12.34121,-20.34719 26.6127,-31.32887 16.2199,-12.48091 79.79472,-50.79867 124.8102,-75.29036 l 23.41244,-12.80105 z m -267.0534,234.71391 c 1.16741,0 8.14061,6.2167 15.49601,13.81166 19.26161,19.88886 50.4691,42.57781 78.91171,57.26783 13.58403,7.01589 24.75991,13.30875 24.75991,13.98009 0,2.87779 -8.22077,0.46628 -30.992,-9.17969 -39.41952,-16.69828 -70.92257,-34.87752 -85.22802,-49.18297 -5.0608,-5.06081 -7.44708,-26.69692 -2.94761,-26.69692 z m -96.00784,19.28579 c 18.64821,0.0574 23.63523,1.01899 26.69692,3.78978 4.17759,3.78068 4.80538,9.51479 4.88461,44.46679 0.0501,22.05976 -0.78192,40.68887 -1.85278,41.35075 -3.77602,2.33383 -48.87305,-13.95443 -69.73202,-25.18101 -25.45683,-13.70135 -29.93644,-15.89369 -30.23405,-29.89718 -0.0162,-0.76191 -0.005,-1.60651 0,-2.4423 0.005,-0.29221 -0.005,-0.70982 0,-1.01061 0.038,-2.45597 0.22315,-5.2349 0.33687,-8.42174 l 0.75796,-21.72809 45.4774,-0.67374 c 9.6923,-0.15765 17.44901,-0.27176 23.66509,-0.25252 z m 95.50254,21.13857 c 0.90596,0 7.2728,4.70763 14.14852,10.44296 15.36848,12.8195 45.38917,31.42354 64.51054,39.91897 7.85946,3.49185 13.62319,7.5448 12.71682,9.01134 -3.58968,5.80817 -22.62696,0.6697 -58.69953,-15.74866 -29.81999,-13.57266 -34.27648,-17.69729 -34.27648,-31.66574 0,-6.56909 0.69417,-11.95887 1.60013,-11.95887 z m 2.10543,51.2041 c 2.23431,0 4.76833,1.19629 5.64257,2.61087 0.87424,1.41432 7.5845,5.86822 14.90648,9.85325 7.32198,3.98503 12.65975,8.2463 11.87466,9.5167 -2.36763,3.83088 -15.32275,2.56641 -25.34944,-2.44244 -6.81288,-3.40346 -9.65859,-6.77431 -10.27453,-12.12725 -0.59653,-5.18429 0.35849,-7.41113 3.20026,-7.41113 z m 160.68681,89.52318 c 6.67002,-0.1051 14.55277,0.8314 17.51723,2.1053 4.87897,2.09615 4.75123,2.36485 -1.34748,2.18965 -3.70557,-0.1051 -11.58832,-1.1281 -17.51722,-2.18965 l -10.77983,-1.85278 12.1273,-0.25333 z"
       id="path4212"
       inkscape:connector-curvature="0" />
  </g>
</svg>
