<?xml version="1.0" encoding="UTF-8" standalone="no"?>
<!-- Created with Inkscape (http://www.inkscape.org/) -->

<svg
   xmlns:dc="http://purl.org/dc/elements/1.1/"
   xmlns:cc="http://creativecommons.org/ns#"
   xmlns:rdf="http://www.w3.org/1999/02/22-rdf-syntax-ns#"
   xmlns:svg="http://www.w3.org/2000/svg"
   xmlns="http://www.w3.org/2000/svg"
   xmlns:sodipodi="http://sodipodi.sourceforge.net/DTD/sodipodi-0.dtd"
   xmlns:inkscape="http://www.inkscape.org/namespaces/inkscape"
   width="800"
   height="800"
   id="svg2"
   version="1.1"
   inkscape:version="0.48.5 r10040"
   sodipodi:docname="New document 1">
  <defs
     id="defs4" />
  <sodipodi:namedview
     id="base"
     pagecolor="#ffffff"
     bordercolor="#666666"
     borderopacity="1.0"
     inkscape:pageopacity="0.0"
     inkscape:pageshadow="2"
     inkscape:zoom="0.35"
     inkscape:cx="565.27094"
     inkscape:cy="344.6148"
     inkscape:document-units="px"
     inkscape:current-layer="layer1"
     showgrid="false"
     showguides="true"
     inkscape:guide-bbox="true"
     inkscape:window-width="1280"
     inkscape:window-height="709"
     inkscape:window-x="0"
     inkscape:window-y="0"
     inkscape:window-maximized="1" />
  <metadata
     id="metadata7">
    <rdf:RDF>
      <cc:Work
         rdf:about="">
        <dc:format>image/svg+xml</dc:format>
        <dc:type
           rdf:resource="http://purl.org/dc/dcmitype/StillImage" />
        <dc:title></dc:title>
      </cc:Work>
    </rdf:RDF>
  </metadata>
  <g
     inkscape:label="Layer 1"
     inkscape:groupmode="layer"
     id="layer1"
     transform="translate(0,-252.36218)">
    <flowRoot
       xml:space="preserve"
       id="flowRoot3036"
       style="font-size:46.793396px;font-style:normal;font-variant:normal;font-weight:300;font-stretch:normal;text-align:center;line-height:125%;letter-spacing:0px;word-spacing:0px;writing-mode:lr-tb;text-anchor:middle;fill:#000000;fill-opacity:1;stroke:none;font-family:Roboto;-inkscape-font-specification:Roboto Light"><flowRegion
         id="flowRegion3038"><rect
           id="rect3040"
           width="235.36554"
           height="87.88327"
           x="158.59395"
           y="651.3316" /></flowRegion><flowPara
         id="flowPara3042"></flowPara></flowRoot>    <path
       inkscape:connector-curvature="0"
       id="path3057"
       d="m 168.67249,1052.3393 -90.363815,-0.027 -12.898839,-25.2666 -12.898813,-25.2666 -0.541226,-13.67079 -0.541226,-13.67077 2.800021,-6.79054 2.800048,-6.79028 1.950847,6.14638 1.950874,6.14666 2.14672,-1.32662 c 1.180691,-0.72974 3.724029,-9.05251 5.651882,-18.49519 l 3.505131,-17.1683 5.771445,-4.82058 5.771446,-4.82087 -4.784771,1.69572 -4.784771,1.69545 0.04129,-3.71024 c 0.02188,-2.0405 1.644786,-8.31457 3.604765,-13.94201 l 3.563615,-10.23208 6.255801,-6.65898 6.255773,-6.65897 -1.658706,-13.18479 c -0.912307,-7.25163 -2.06437,-17.17929 -2.560182,-22.06146 -0.495784,-4.88218 -1.921919,-9.80366 -3.169158,-10.93661 l -2.267735,-2.05994 1.865295,5.17149 1.865295,5.17152 -3.886601,-3.22563 -3.886629,-3.22561 -1.254402,-11.51541 -1.254376,-11.51545 2.773335,-14.61131 2.773335,-14.6113 -3.455124,-2.1354 -3.455151,-2.13538 3.137306,-1.93895 3.137251,-1.93893 -1.65739,-5.92177 -1.65739,-5.92174 2.614345,3.77895 2.614343,3.77897 2.001948,-6.30759 c 1.101072,-3.46915 2.333875,-11.58103 2.739569,-18.02639 l 0.737647,-11.7188 7.202721,-12.88712 7.202747,-12.88708 -3.16716,-1.95741 -3.167165,-1.95741 10.612235,-9.6202 c 5.83671,-5.29111 16.37866,-14.96157 23.42654,-21.48991 l 12.8143,-11.86973 -3.07961,-14.24902 -3.07959,-14.249 3.17695,-6.25716 3.17698,-6.25714 -0.4866,-10.97167 -0.48657,-10.97168 2.09059,-3.38264 2.09056,-3.38264 -1.62105,-2.62293 -1.62105,-2.62296 2.72409,-4.89596 c 1.49826,-2.69282 5.82629,-11.96346 9.61783,-20.60151 3.79155,-8.63801 9.85969,-20.40387 13.48473,-26.14633 l 6.59104,-10.44084 -12.65851,-3.73762 -12.65847,-3.73761 -4.89477,-5.66006 -4.89474,-5.66005 0.76111,-20.91106 0.76107,-20.91107 5.46071,-6.10127 5.46068,-6.10126 11.11191,-4.79896 11.11191,-4.79896 13.49549,0.72345 c 7.42251,0.39791 20.74012,2.06487 29.59468,3.70438 8.85456,1.63948 21.49327,5.04088 28.08602,7.5587 6.59279,2.51778 12.53515,4.02952 13.20526,3.3594 0.67011,-0.67011 -1.9615,-10.38312 -5.84808,-21.58442 -3.88658,-11.20132 -7.61443,-25.12708 -8.28416,-30.94612 l -1.21766,-10.58006 6.04967,-6.43959 6.04968,-6.4396 12.57527,-4.80388 12.57529,-4.80388 19.88252,-0.0497 19.88256,-0.0498 -8.94593,-4.10123 c -4.92026,-2.25567 -9.35604,-5.02401 -9.85729,-6.15185 -0.50128,-1.12783 -3.26674,-2.05061 -6.14551,-2.05061 l -5.23412,0 -9.087,-8.886 -9.08695,-8.88601 -3.56603,-11.33328 -3.56602,-11.3333 -0.29283,-11.16763 -0.2928,-11.16763 13.62301,-13.86002 13.62301,-13.86004 13.21261,-8.49871 13.21258,-8.4987 16.86312,-4.48484 16.86309,-4.48483 24.84638,0.50428 24.84642,0.50429 17.53298,6.21809 17.53301,6.21811 9.56955,7.06858 c 5.26324,3.88775 10.49231,6.76528 11.62016,6.39455 l 2.05062,-0.67402 0.29509,6.15185 c 0.16241,3.38352 0.26986,12.69119 0.23924,20.68372 l -0.0561,14.53189 3.86213,1.48203 3.86211,1.48205 0,7.56236 0,7.56238 5.54239,12.52956 c 3.04834,6.89124 8.69437,16.27541 12.54678,20.8537 3.8523,4.57831 8.06241,8.32419 9.35569,8.32419 l 2.35146,0 8.76458,-18.45555 8.76461,-18.45554 11.59063,-15.13606 c 6.37486,-8.32485 19.76383,-22.78169 29.75329,-32.12632 l 18.1626,-16.99026 3.83985,0 c 2.11192,0 4.60024,1.23037 5.52963,2.73416 l 1.6898,2.73415 7.0995,0 7.09948,0 8.46054,6.24443 c 4.65329,3.43445 11.96698,7.77038 16.25267,9.6354 l 7.79211,3.39096 1.40473,5.37171 1.40473,5.37169 2.18727,-1.3518 2.1873,-1.35182 3.63762,8.21794 3.63761,8.21797 3.43379,0 c 1.88859,0 3.48739,0.92278 3.55287,2.05061 0.0653,1.12784 1.1285,7.26794 2.36226,13.64463 l 2.24318,11.59405 -3.79831,3.15232 -3.79832,3.15229 4.17022,4.60803 4.17021,4.60804 0,4.70157 c 0,2.58586 -2.41229,9.69441 -5.36067,15.79682 l -5.36064,11.09529 4.67711,-1.52823 c 2.57242,-0.84053 11.44415,-4.00712 19.71498,-7.03687 l 15.03785,-5.50863 11.64504,-0.0891 11.64503,-0.0892 8.17759,7.81493 8.17758,7.81495 0,6.05113 0,6.05115 4.10123,4.10123 4.10123,4.10123 0,6.64009 0,6.64009 -2.70183,0 -2.70184,0 -1.72924,10.8141 -1.72925,10.81407 -11.11844,5.50098 -11.11844,5.50095 -3.70544,-3.07524 -3.70543,-3.07524 -3.16511,3.16511 -3.16511,3.16514 -4.83746,0 -4.83746,0 -9.58223,14.97943 -9.5822,14.97942 -4.17259,-1.60117 -4.17257,-1.60118 0,6.83538 0,6.83539 4.32486,1.65961 c 2.37866,0.91279 7.05535,1.65961 10.3926,1.65961 l 6.06778,0 12.04127,21.18969 c 6.62273,11.65434 17.29856,28.11299 23.72412,36.57479 6.42557,8.46177 12.94032,18.69243 14.47719,22.73477 1.5369,4.04231 2.79436,9.88096 2.79436,12.97477 l 0,5.62511 -4.61315,-3.75249 -4.61315,-3.75247 1.86918,4.98284 1.8692,4.98283 -2.82055,5.27025 -2.82055,5.27024 2.58949,0 2.58949,0 -0.44269,12.98724 -0.44266,12.98723 6.79957,0.9586 6.7996,0.95857 7.55471,5.37945 7.55475,5.37945 0,7.85998 0,7.86001 -5.55296,9.41156 -5.55296,9.41154 8.28793,6.97385 8.28794,6.97384 2.83493,7.45642 2.83494,7.45645 -2.83576,2.83576 c -1.55967,1.55967 -2.83575,4.99697 -2.83575,7.6384 l 0,4.80268 -10.32242,11.17909 -10.32239,11.17908 -6.43688,0.48487 -6.43689,0.48488 -2.63575,7.56087 -2.63573,7.56087 -10.9598,3.28363 -10.95984,3.28364 -2.04695,5.53347 -2.04695,5.53346 1.27789,4.88673 1.27792,4.88676 2.48294,0 2.48293,0 2.50515,6.58901 c 1.37782,3.62395 3.00836,11.62135 3.62343,17.772 l 1.11831,11.183 -3.00758,0.24661 c -1.65416,0.13562 0.93475,1.38655 5.75313,2.77985 l 8.7607,2.53327 4.52371,15.67571 c 2.48806,8.62161 5.62038,17.81211 6.96069,20.42334 1.34034,2.61123 2.44456,6.91752 2.45383,9.56954 0.008,2.65202 1.82346,8.28561 4.03156,12.51904 2.20811,4.23337 4.38482,10.38522 4.83716,13.67085 0.45234,3.28537 1.66657,7.31715 2.69831,8.95928 l 1.87585,2.98598 1.55155,29.47227 1.55155,29.47227 -1.69018,5.32504 -1.69014,5.32538 -3.77015,-4.97349 -3.77013,-4.97343 -0.087,3.28892 c -0.0479,1.80919 1.31794,6.3725 3.03505,10.1412 l 3.12199,6.8521 -4.34687,6.6342 -4.34689,6.6341 -0.65308,12.6167 -0.65311,12.6171 -62.14682,0 -62.14679,0 -0.92729,-2.782 c -0.51002,-1.5301 -0.36304,-8.6047 0.32663,-15.7214 l 1.25393,-12.9394 1.67519,10.9366 1.67519,10.9366 3.23864,-7.6968 3.23863,-7.697 0,-10.9538 0,-10.9541 -3.4177,-3.8109 c -1.87973,-2.09628 -4.78922,-5.4694 -6.46554,-7.49596 -1.6763,-2.02655 -4.50637,-6.40995 -6.28901,-9.74097 l -3.24121,-6.05616 -2.59695,1.60495 -2.59698,1.60495 0.0418,7.35762 0.0418,7.3576 2.85817,-4.10122 2.85817,-4.10124 -1.75021,8.886 -1.75021,8.88603 2.26784,0 2.26787,0 0.32616,17.2255 c 0.17936,9.4738 1.18509,19.9314 2.23487,23.2389 l 1.90871,6.0138 -51.77545,0 -51.77546,0 -1.69471,-10.2531 c -0.9321,-5.6392 -1.70828,-14.2518 -1.72482,-19.1391 l -0.0301,-8.8859 -2.97448,0 -2.97449,0 1.75377,11.6201 c 0.96456,6.391 2.40084,15.0036 3.19172,19.139 l 1.43797,7.519 -4.07143,0 -4.07145,0 -3.1062,-18.4556 c -1.70841,-10.1505 -3.21132,-20.9162 -3.3398,-23.9238 -0.1285,-3.0076 0.54896,-12.23534 1.50543,-20.50616 l 1.73906,-15.03784 -1.75525,4.10122 c -0.96537,2.25568 -4.04731,6.30223 -6.84873,8.99237 l -5.0935,4.8914 0,3.9946 0,3.99491 2.42338,0 2.42342,0 -0.80398,23.9238 c -0.44219,13.1581 -0.91752,24.8466 -1.05633,25.9745 l -0.25237,2.0506 -40.9201,0 -40.92012,0 5.57464,-9.4485 5.57464,-9.4481 5.89836,-1.872 5.89834,-1.8721 7.57389,-8.1079 c 4.16564,-4.4594 7.57388,-8.6363 7.57388,-9.2822 0,-0.6455 -2.76834,0.3503 -6.15186,2.2136 -3.38351,1.8631 -7.38221,3.5144 -8.88599,3.6701 -1.50379,0.1558 -4.88731,1.2667 -7.51893,2.4695 l -4.78477,2.187 -0.20124,3.1251 -0.20123,3.1252 -13.57062,11.6201 -13.57062,11.6202 -10.83548,0 -10.83546,0 0,-3.281 0,-3.281 -3.28098,3.281 -3.28099,3.281 -16.99734,0 -16.99731,0 -1.37908,-3.4177 -1.37908,-3.4177 -0.21572,3.4177 -0.216,3.4177 -10.70878,0 -10.70876,0 -1.37908,-3.4177 -1.37908,-3.4177 -0.21573,3.4177 -0.216,3.4177 -12.30369,0 -12.30369,0 0,-3.281 0,-3.281 -3.28099,3.281 -3.28099,3.281 -90.36381,-0.028 z m 90.0904,-2.7098 c 0.75189,0 1.36707,-0.6152 1.36707,-1.367 0,-0.752 -0.61518,-1.3672 -1.36707,-1.3672 -0.7519,0 -1.36708,0.6152 -1.36708,1.3672 0,0.7518 0.61518,1.367 1.36708,1.367 z m 19.13908,0 c 0.75189,0 1.36708,-0.6152 1.36708,-1.367 0,-0.752 -0.61519,-1.3672 -1.36708,-1.3672 -0.75189,0 -1.36708,0.6152 -1.36708,1.3672 0,0.7518 0.61519,1.367 1.36708,1.367 z m 23.24031,-1.367 c 1.50379,-0.9294 2.73416,-2.9202 2.73416,-4.4239 l 0,-2.7342 -2.73416,1.6897 c -1.50378,0.9293 -2.73415,2.9204 -2.73415,4.4241 l 0,2.7343 2.73415,-1.69 z m 282.98502,-1.3672 c 0.75189,0 1.36707,-0.6151 1.36707,-1.3671 0,-0.7518 -0.61518,-1.367 -1.36707,-1.367 -0.75189,0 -1.36708,0.6152 -1.36708,1.367 0,0.752 0.61519,1.3671 1.36708,1.3671 z m 16.40493,0 c 0.75189,0 1.36708,-0.6151 1.36708,-1.3671 0,-0.7518 -0.61519,-1.367 -1.36708,-1.367 -0.75189,0 -1.36708,0.6152 -1.36708,1.367 0,0.752 0.61519,1.3671 1.36708,1.3671 z m -352.70597,-2.7341 c 0.7519,0 1.36708,-0.6152 1.36708,-1.3671 0,-0.7518 -0.61518,-1.3671 -1.36708,-1.3671 -0.75188,0 -1.36707,0.6153 -1.36707,1.3671 0,0.7519 0.61519,1.3671 1.36707,1.3671 z m 12.3037,0 c 1.50378,0 2.73416,-1.2304 2.73416,-2.7342 0,-1.5037 -1.23038,-2.7341 -2.73416,-2.7341 -1.50378,0 -2.73415,1.2304 -2.73415,2.7341 0,1.5038 1.23037,2.7342 2.73415,2.7342 z m 70.17665,-0.9113 1.82275,-1.8229 -1.82275,-1.8225 -1.82278,-1.8229 0,3.6454 0,3.6457 1.82278,-1.8228 z m 7.74677,0.9113 c 0.75188,0 1.36707,-0.6152 1.36707,-1.3671 0,-0.7518 -0.61519,-1.3671 -1.36707,-1.3671 -0.7519,0 -1.36709,0.6153 -1.36709,1.3671 0,0.7519 0.61519,1.3671 1.36709,1.3671 z m 42.83985,-0.9326 7.21727,-0.4345 -1.34009,-2.1703 -1.3401,-2.1704 3.65308,-4.5062 3.65308,-4.5064 -3.41769,2.0533 -3.4177,2.0534 0,-2.8957 0,-2.8955 -2.93463,0 -2.93465,0 0.98354,4.7847 0.98356,4.7848 -4.16147,3.1686 -4.16149,3.1686 7.21729,-0.4344 z m 162.22175,0.9326 c 0.75189,0 1.36707,-0.6152 1.36707,-1.3671 0,-0.7518 -0.61518,-1.3671 -1.36707,-1.3671 -0.7519,0 -1.36708,0.6153 -1.36708,1.3671 0,0.7519 0.61518,1.3671 1.36708,1.3671 z m -251.54223,-2.7342 c 0.75188,0 1.36707,-0.6152 1.36707,-1.367 0,-0.752 -0.61519,-1.3671 -1.36707,-1.3671 -0.7519,0 -1.36708,0.6151 -1.36708,1.3671 0,0.7518 0.61518,1.367 1.36708,1.367 z m 27.17065,-3.691 c 1.40982,-0.4134 2.98341,-2.0121 3.49688,-3.5529 l 0.93361,-2.8005 -10.33226,-0.3169 -10.33227,-0.3167 6.83538,3.8694 c 3.75947,2.1281 7.98888,3.531 9.39866,3.1176 z m -20.91696,-6.8674 c 0.63323,-1.8997 0.40796,-4.1975 -0.50057,-5.1058 l -1.6519,-1.652 -1.64087,1.6408 -1.64084,1.641 2.14144,3.4647 2.14144,3.465 1.1513,-3.4537 z m -11.88337,-0.3782 c 0.66313,0 1.96613,-1.2303 2.89551,-2.7341 l 1.68979,-2.7341 -2.89549,0 -2.89552,0 0,2.7341 c 0,1.5038 0.54256,2.7341 1.20571,2.7341 z m 112.71741,-0.9113 1.82275,-1.8228 -1.82275,-1.8226 -1.82278,-1.8229 0,3.6455 0,3.6457 1.82278,-1.8229 z m -150.07945,-2.3142 7.4477,-0.5675 0,-7.673 0,-7.6731 -2.30658,0 -2.30659,0 -1.42196,5.4378 -1.42195,5.4373 -2.13682,-1.3205 -2.13679,-1.3207 -1.58235,4.1237 -1.58236,4.1234 7.4477,-0.5674 z m 18.38432,0.4914 c 0.7519,0 1.36707,-0.6152 1.36707,-1.3671 0,-0.7519 -0.61517,-1.367 -1.36707,-1.367 -0.7519,0 -1.36708,0.6151 -1.36708,1.367 0,0.7519 0.61518,1.3671 1.36708,1.3671 z m 8.20246,0 c 0.7519,0 1.36708,-0.6152 1.36708,-1.3671 0,-0.7519 -0.61518,-1.367 -1.36708,-1.367 -0.75188,0 -1.36707,0.6151 -1.36707,1.367 0,0.7519 0.61519,1.3671 1.36707,1.3671 z m 234.1461,-6.4321 2.94375,-5.065 -2.84182,-5.8716 -2.84185,-5.8716 -0.10199,10.9366 -0.10198,10.9366 2.94373,-5.065 z m -208.17163,0.5859 4.10124,0.257 -6.75894,-5.1938 -6.75894,-5.1935 -2.12707,1.3146 c -1.16989,0.7229 -2.12706,2.3819 -2.12706,3.6867 0,1.3048 2.15315,2.9351 4.78477,3.6227 2.63162,0.6877 6.63033,1.3658 8.886,1.5069 z m -35.54401,-2.3563 c 1.50379,0 2.73415,-1.1576 2.73415,-2.5729 0,-1.4149 -1.23036,-3.3331 -2.73415,-4.2625 l -2.73415,-1.6897 0,4.2625 0,4.2626 2.73415,0 z m 50.58186,0 c 0.7519,0 1.36709,-0.6152 1.36709,-1.3671 0,-0.7519 -0.61519,-1.367 -1.36709,-1.367 -0.75188,0 -1.36707,0.6151 -1.36707,1.367 0,0.7519 0.61519,1.3671 1.36707,1.3671 z m -38.27816,-5.4683 c 0.75189,0 1.36708,-0.6152 1.36708,-1.3671 0,-0.7519 -0.61519,-1.3671 -1.36708,-1.3671 -0.75189,0 -1.36708,0.6152 -1.36708,1.3671 0,0.7519 0.61519,1.3671 1.36708,1.3671 z m 30.23707,0 c 0.66314,0 1.2057,-0.5425 1.2057,-1.2058 0,-0.663 -1.42047,-2.0834 -3.1566,-3.1565 l -3.15661,-1.9509 1.9509,3.1566 c 1.073,1.7362 2.49347,3.1566 3.15661,3.1566 z m 427.73385,-5.4683 c 1.50378,0 2.73415,-0.5424 2.73415,-1.2057 0,-0.6631 -1.23037,-1.9662 -2.73415,-2.8955 l -2.73416,-1.6898 0,2.8955 0,2.8955 2.73416,0 z m -463.43923,-5.4683 c 0.7519,0 1.36708,-0.6152 1.36708,-1.3671 0,-0.7519 -0.61518,-1.3671 -1.36708,-1.3671 -0.7519,0 -1.36707,0.6152 -1.36707,1.3671 0,0.7519 0.61517,1.3671 1.36707,1.3671 z m 24.6074,0 c 0.75188,0 1.36707,-0.6152 1.36707,-1.3671 0,-0.7519 -0.61519,-1.3671 -1.36707,-1.3671 -0.7519,0 -1.36709,0.6152 -1.36709,1.3671 0,0.7519 0.61519,1.3671 1.36709,1.3671 z m 331.27641,-2.0506 1.37909,-3.41774 -1.37909,-3.41769 -1.37908,-3.41769 0,6.83538 0,6.83544 1.37908,-3.4177 z m -424.23768,-0.6836 c 0.75189,0 1.36708,-0.61517 1.36708,-1.36705 0,-0.7519 -0.61519,-1.36709 -1.36708,-1.36709 -0.75189,0 -1.36707,0.61519 -1.36707,1.36709 0,0.75188 0.61518,1.36705 1.36707,1.36705 z m 84.75879,0 c 0.7519,0 1.36709,-0.61517 1.36709,-1.36705 0,-0.7519 -0.61519,-1.36709 -1.36709,-1.36709 -0.75188,0 -1.36707,0.61519 -1.36707,1.36709 0,0.75188 0.61519,1.36705 1.36707,1.36705 z m 298.18425,0 c 0.66314,0 1.2057,-0.54244 1.2057,-1.20574 0,-0.66303 -1.42047,-2.08343 -3.15661,-3.15658 l -3.15661,-1.95082 1.95091,3.15658 c 1.07299,1.73619 2.49346,3.15656 3.15661,3.15656 z m -146.43865,-2.73414 3.64553,0 -1.82276,-1.82258 -1.82277,-1.82286 -1.82278,1.82286 -1.82276,1.82258 3.64554,0 z m -150.37851,-2.73415 c 1.50378,0 2.73415,-0.54245 2.73415,-1.20576 0,-0.66303 -1.23037,-1.96613 -2.73415,-2.89547 l -2.73416,-1.68971 0,2.89547 0,2.89547 2.73416,0 z m 39.64523,0 c 0.7519,0 1.36709,-0.61518 1.36709,-1.36707 0,-0.7519 -0.61519,-1.36708 -1.36709,-1.36708 -0.75188,0 -1.36707,0.61518 -1.36707,1.36708 0,0.75189 0.61519,1.36707 1.36707,1.36707 z m 293.1458,-1.04691 c 0.64848,-0.64854 -0.94736,-5.29196 -3.54628,-10.31897 l -4.72536,-9.14028 4.18,3.46718 4.17998,3.46719 -2.1887,-11.66965 c -1.20378,-6.41815 -3.4794,-15.05316 -5.05689,-19.18857 -1.5775,-4.13541 -3.20624,-7.51811 -3.6194,-7.51757 -0.41315,8.3e-4 -0.71248,7.07545 -0.66519,15.7214 l 0.0859,15.72002 2.29924,6.83539 c 1.2646,3.75946 3.55436,8.40315 5.08839,10.31924 1.53403,1.9161 3.31973,2.95316 3.96822,2.30462 z m -353.2972,-4.4214 c 0.7519,0 1.36709,-0.61518 1.36709,-1.36708 0,-0.75189 -0.61519,-1.36707 -1.36709,-1.36707 -0.75189,0 -1.36708,0.61518 -1.36708,1.36707 0,0.7519 0.61519,1.36708 1.36708,1.36708 z m 231.07835,-3.395 5.42604,-3.38871 -0.0418,-4.12693 -0.0418,-4.12721 -2.90633,4.10124 -2.90635,4.10122 1.32901,-6.83538 c 0.73095,-3.75946 4.59068,-18.5239 8.57719,-32.80986 l 7.24819,-25.97447 1.4854,-15.72133 1.48545,-15.72139 -3.01318,0 -3.01317,0 0,5.38251 0,5.38248 -3.75219,-1.43983 -3.75217,-1.43986 -1.31081,6.85699 -1.31078,6.85698 3.69589,1.41824 3.6959,1.4184 0,-4.17692 0,-4.17677 2.36747,1.46318 2.36748,1.46318 -1.28207,6.70664 -1.28207,6.70687 -3.65133,-1.40125 -3.65133,-1.40098 0.15367,11.1425 0.15366,11.14251 -4.08204,8.90814 -4.08204,8.90788 -1.666,17.08519 -1.66603,17.08545 5.42606,-3.38871 z m 81.821,3.395 2.89552,0 0,-2.73415 c 0,-1.50379 -0.54256,-2.73416 -1.20571,-2.73416 -0.66313,0 -1.96612,1.23037 -2.89551,2.73416 l -1.68979,2.73415 2.89549,0 z m -129.83524,-2.73415 c 0.68353,0 4.07049,-2.82767 7.52658,-6.28364 3.45607,-3.45624 8.4335,-9.56462 11.06088,-13.5748 l 4.77712,-7.29063 0,-5.56455 0,-5.56455 2.29961,0 c 1.2648,0 5.64789,-6.15184 9.74018,-13.67077 4.09232,-7.51893 8.05159,-13.67078 8.79837,-13.67078 0.74679,0 0.47274,1.53797 -0.609,3.4177 l -1.96679,3.41769 2.4495,-2.239 c 1.34726,-1.23147 2.64243,-5.53775 2.87819,-9.56954 0.23569,-4.03179 0.70681,-8.56086 1.04678,-10.06464 0.33996,-1.50379 0.4724,-6.11768 0.29433,-10.25308 l -0.32378,-7.51892 -2.73416,0 -2.73415,0 -0.21572,12.98723 -0.21573,12.98718 -1.42387,-3.55194 -1.42386,-3.55214 -5.28118,9.85354 -5.28116,9.85362 0.76903,3.65639 0.76904,3.65638 -8.88601,8.52154 -8.886,8.52127 0,3.44285 c 0,1.8934 -3.07592,7.96924 -6.83539,13.5018 l -6.83538,10.05923 0,4.24642 c 0,2.33551 0.55927,4.24614 1.24281,4.24614 z m 15.4416,-20.68771 -2.07033,5.28704 -1.75115,-2.83341 -1.75114,-2.83341 3.92669,-5.18778 3.92668,-5.18751 -0.10527,2.73416 c -0.0579,1.50378 -1.03687,5.11341 -2.17553,8.02091 z m -244.98633,15.2194 c 0.75188,0 1.36707,-0.61519 1.36707,-1.36708 0,-0.75189 -0.61519,-1.36707 -1.36707,-1.36707 -0.7519,0 -1.36709,0.61518 -1.36709,1.36707 0,0.75189 0.61519,1.36708 1.36709,1.36708 z m 106.63202,0 c 0.7519,0 1.36709,-0.61519 1.36709,-1.36708 0,-0.75189 -0.61519,-1.36707 -1.36709,-1.36707 -0.75188,0 -1.36707,0.61518 -1.36707,1.36707 0,0.75189 0.61519,1.36708 1.36707,1.36708 z m -8.20246,-2.73415 c 0.7519,0 1.36708,-0.61519 1.36708,-1.36709 0,-0.75188 -0.61518,-1.36707 -1.36708,-1.36707 -0.75188,0 -1.36707,0.61519 -1.36707,1.36707 0,0.7519 0.61519,1.36709 1.36707,1.36709 z m 33.26556,-0.9113 1.82276,-1.82286 -1.82276,-1.82259 -1.82277,-1.82286 0,3.64545 0,3.64572 1.82277,-1.82286 z m 223.67477,0.9113 c 0.71329,0 3.17403,-3.62987 5.46832,-8.06658 2.29428,-4.43672 4.08021,-10.28098 3.96867,-12.98724 l -0.20287,-4.92065 -5.06275,10.93661 c -2.78452,6.01515 -5.15402,11.85939 -5.26554,12.98724 -0.11156,1.12783 0.3808,2.05062 1.09409,2.05062 z m -95.6252,-2.73416 c 0.7519,0 1.36708,-0.61518 1.36708,-1.36708 0,-0.7519 -0.61518,-1.36707 -1.36708,-1.36707 -0.75189,0 -1.36707,0.61517 -1.36707,1.36707 0,0.7519 0.61518,1.36708 1.36707,1.36708 z m 115.346,-3.3857 c 0.68434,-2.61413 0.70916,-7.53561 0.0553,-10.93663 l -1.18908,-6.18383 -0.0552,10.93662 -0.0553,10.93661 1.24426,-4.75277 z m -287.59774,0.65155 c 0.75189,0 1.36708,-0.61519 1.36708,-1.36708 0,-0.7519 -0.61519,-1.36709 -1.36708,-1.36709 -0.7519,0 -1.36709,0.61519 -1.36709,1.36709 0,0.75189 0.61519,1.36708 1.36709,1.36708 z m 107.65734,-0.0821 c 0.56392,0.0465 0.298,-3.55331 -0.5909,-7.99795 l -1.61625,-8.08106 4.00863,1.53823 4.00859,1.53824 0,-3.02671 0,-3.02671 -9.35974,0 -9.35978,0 -8.12339,-6.83539 c -4.46789,-3.75947 -8.91185,-6.83538 -9.87552,-6.83538 l -1.75213,0 2.73415,5.10904 2.73416,5.10877 -1.45315,1.45319 -1.45315,1.45293 -9.29613,-9.29612 -9.29612,-9.29613 -6.85633,0 -6.85631,0 -3.99115,-7.71797 c -2.19514,-4.24505 -5.75403,-9.18101 -7.90865,-10.96916 l -3.91744,-3.25118 4.0183,11.6527 4.01831,11.65269 21.78109,10.93662 c 11.97959,6.01514 23.12247,11.41209 24.76196,11.99337 l 2.98085,1.05648 -1.80946,-5.15771 -1.80949,-5.15799 3.72583,4.78477 c 2.04919,2.63163 5.12816,4.78478 6.84209,4.78478 l 3.11628,0 0,3.96534 0,3.96562 4.78477,2.78665 c 2.63162,1.53276 5.24616,2.82438 5.81008,2.87004 z m 56.39194,0.0821 c 0.7519,0 1.36708,-0.61519 1.36708,-1.36708 0,-0.7519 -0.61518,-1.36709 -1.36708,-1.36709 -0.7519,0 -1.36707,0.61519 -1.36707,1.36709 0,0.75189 0.61517,1.36708 1.36707,1.36708 z m -111.64464,-3.64546 1.82275,-1.82286 -1.82275,-1.82259 -1.82278,-1.82286 0,3.64545 0,3.64572 1.82278,-1.82286 z m 63.21524,-1.44472 c 0.63323,-1.8997 0.40796,-4.19748 -0.50057,-5.10577 l -1.6519,-1.65197 -1.64087,1.64077 -1.64084,1.64104 2.14144,3.46471 2.14145,3.46501 1.15129,-3.45379 z m 145.4374,2.35601 c 1.12303,0 5.3961,-7.47408 9.49572,-16.60943 l 7.45388,-16.60918 -1.60404,-5.9476 c -0.88221,-3.27087 -4.16558,-9.02326 -7.29634,-12.78272 l -5.69235,-6.83538 2.05152,8.20246 c 1.12833,4.51135 1.82571,12.40076 1.54975,17.53194 l -0.5018,9.32949 -3.14311,3.78708 -3.14313,3.78734 -2.25009,-3.54701 -2.25008,-3.5473 -0.005,5.46832 c -0.003,3.00756 0.73736,8.23664 1.64411,11.62015 0.90673,3.38351 2.56748,6.15184 3.69051,6.15184 z m -1.31259,-10.93661 c -0.75189,0 -1.36707,-0.61519 -1.36707,-1.36707 0,-0.7519 0.61518,-1.36709 1.36707,-1.36709 0.7519,0 1.36708,0.61519 1.36708,1.36709 0,0.75188 -0.61518,1.36707 -1.36708,1.36707 z m -90.19375,7.29117 3.38435,0 0,-6.32984 0,-6.32985 -2.06235,1.27467 c -1.1343,0.70104 -2.65724,3.54948 -3.38434,6.32984 l -1.32196,5.05518 3.3843,0 z m 11.35897,0 1.82275,-1.82286 -1.82275,-1.82259 -1.82278,-1.82286 0,3.64545 0,3.64572 1.82278,-1.82286 z m 112.28632,-10.68562 1.02312,-12.964 -3.08945,-4.80801 -3.08947,-4.80801 1.57351,5.00842 c 0.86545,2.75466 1.7953,10.75206 2.06637,17.77201 l 0.49283,12.76358 1.02309,-12.96399 z m 31.92733,6.09606 2.70159,-2.70161 -3.14177,-3.14181 -3.14176,-3.14155 0.44017,5.84316 0.44015,5.84344 2.70162,-2.70163 z m 5.70916,2.7667 c 0.75189,0 1.36708,-0.61519 1.36708,-1.36708 0,-0.75189 -0.61519,-1.36708 -1.36708,-1.36708 -0.75189,0 -1.36708,0.61519 -1.36708,1.36708 0,0.75189 0.61519,1.36708 1.36708,1.36708 z m -303.68358,-5.46831 4.10124,0 2.83037,-5.2884 c 1.55668,-2.90887 2.83033,-6.75063 2.83033,-8.5374 l 0,-3.24873 -4.25051,3.52762 c -2.33776,1.94015 -5.45699,5.78191 -6.93157,8.53739 l -2.68109,5.00952 4.10123,0 z m 13.86318,0 c 0.75189,0 1.36708,-0.61519 1.36708,-1.36707 0,-0.7519 -0.61519,-1.36709 -1.36708,-1.36709 -0.7519,0 -1.36708,0.61519 -1.36708,1.36709 0,0.75188 0.61518,1.36707 1.36708,1.36707 z m 257.46625,-0.91129 1.82274,-1.82287 -1.82274,-1.82258 -1.82278,-1.82286 0,3.64544 0,3.64573 1.82278,-1.82286 z m -171.87326,-8.20548 c 0.51738,-4.26254 0.20478,-9.6677 -0.69467,-12.01168 l -1.63533,-4.26146 -1.47901,1.47891 -1.47904,1.47917 2.17371,10.53224 2.17367,10.53252 0.94067,-7.7497 z m 10.10242,6.38261 c 0.7519,0 1.36708,-0.61518 1.36708,-1.36707 0,-0.75189 -0.61518,-1.36708 -1.36708,-1.36708 -0.75189,0 -1.36707,0.61519 -1.36707,1.36708 0,0.75189 0.61518,1.36707 1.36707,1.36707 z m 49.08795,-5.4642 c 2.07933,-3.75701 3.19921,-7.41257 2.4886,-8.12318 -0.7106,-0.7106 -2.43665,0.51785 -3.83564,2.73006 -1.39898,2.2122 -2.51886,5.86749 -2.4886,8.12317 l 0.0549,4.10124 3.78062,-6.83129 z m 99.20831,-0.1039 3.60783,-5.15088 -1.73799,-6.92452 -1.73799,-6.92479 -2.29483,1.41821 -2.29484,1.41847 0.425,10.65719 0.42497,10.65719 3.60785,-5.15087 z m -268.08141,-0.58238 c 0.68769,-2.63162 0.68769,-6.93792 0,-9.56953 l -1.25041,-4.78478 0,9.56954 0,9.56954 1.25041,-4.78477 z m 102.01314,3.4177 c 1.5038,0 2.71532,-0.92278 2.6923,-2.05062 -0.0219,-1.12784 -1.23455,-3.89617 -2.6923,-6.15185 l -2.6504,-4.10123 -0.0418,6.15185 -0.0418,6.15185 2.73415,0 z m 199.54379,-2.73415 c 1.48497,-2.25568 2.71878,-5.84426 2.74181,-7.97444 l 0.0418,-3.87348 -1.89324,1.89313 c -1.04127,1.04144 -2.27509,4.63001 -2.74178,7.97471 l -0.84857,6.0813 2.69995,-4.10122 z m -315.74536,0 c 0.7519,0 1.36708,-0.61519 1.36708,-1.36709 0,-0.75189 -0.61518,-1.36707 -1.36708,-1.36707 -0.75189,0 -1.36707,0.61518 -1.36707,1.36707 0,0.7519 0.61518,1.36709 1.36707,1.36709 z m 107.91332,0 2.81994,0 0,-2.73416 c 0,-1.50379 -1.23037,-2.73416 -2.73415,-2.73416 l -2.73415,0 0,-4.10123 0,-4.10123 -2.89553,0 -2.89549,0 1.10684,2.05061 c 0.60876,1.12784 1.87314,4.20377 2.8097,6.83539 l 1.70285,4.78478 2.81999,0 z m 225.65356,0 c 0.75189,0 1.36708,-0.61519 1.36708,-1.36709 0,-0.75189 -0.61519,-1.36707 -1.36708,-1.36707 -0.75189,0 -1.36708,0.61518 -1.36708,1.36707 0,0.7519 0.61519,1.36709 1.36708,1.36709 z m -243.33978,-2.73416 c 0.7519,0 1.36709,-0.61518 1.36709,-1.36708 0,-0.7519 -0.61519,-1.36708 -1.36709,-1.36708 -0.75188,0 -1.36707,0.61518 -1.36707,1.36708 0,0.7519 0.61519,1.36708 1.36707,1.36708 z m -84.30309,-3.64545 1.82275,-1.82287 -1.82275,-1.82258 -1.82277,-1.82286 0,3.64544 0,3.64573 1.82277,-1.82286 z m 32.35416,0.91129 c 0.75189,0 1.36708,-0.61518 1.36708,-1.36707 0,-0.7519 -0.61519,-1.36709 -1.36708,-1.36709 -0.7519,0 -1.36708,0.61519 -1.36708,1.36709 0,0.75189 0.61518,1.36707 1.36708,1.36707 z m 289.8204,0 c 0.75189,0 1.36708,-0.61518 1.36708,-1.36707 0,-0.7519 -0.61519,-1.36709 -1.36708,-1.36709 -0.75189,0 -1.36708,0.61519 -1.36708,1.36709 0,0.75189 0.61519,1.36707 1.36708,1.36707 z m -330.83272,-2.73416 c 0.75189,0 1.36708,-0.61518 1.36708,-1.36707 0,-0.75189 -0.61519,-1.36708 -1.36708,-1.36708 -0.7519,0 -1.36709,0.61519 -1.36709,1.36708 0,0.75189 0.61519,1.36707 1.36709,1.36707 z m 28.08302,-3.09697 0.90303,-4.46406 -3.87437,-9.20671 -3.87436,-9.20672 0.6752,8.20246 c 0.37136,4.51136 1.70844,10.6632 2.97132,13.67078 l 2.29614,5.46831 0.90304,-4.46406 z m 62.59978,2.18568 1.82275,-1.82286 -1.82275,-1.82258 -1.82277,-1.82287 0,3.64545 0,3.64572 1.82277,-1.82286 z m 7.74676,0.91129 c 0.7519,0 1.36708,-0.61518 1.36708,-1.36707 0,-0.75189 -0.61518,-1.36708 -1.36708,-1.36708 -0.75188,0 -1.36707,0.61519 -1.36707,1.36708 0,0.75189 0.61519,1.36707 1.36707,1.36707 z m 227.21966,-0.7404 1.65187,-1.65198 -1.43603,-3.58857 -1.43604,-3.58858 -0.21572,5.24055 -0.21572,5.24055 1.65189,-1.65197 z m -175.27071,-1.99375 c 0.75189,0 1.36707,-0.61518 1.36707,-1.36707 0,-0.7519 -0.61518,-1.36708 -1.36707,-1.36708 -0.7519,0 -1.36708,0.61518 -1.36708,1.36708 0,0.75189 0.61518,1.36707 1.36708,1.36707 z m 40.71979,-5.46831 c 0.59101,0 1.80728,-1.90926 2.70284,-4.24313 l 1.62828,-4.2434 -2.70282,1.67056 c -1.48656,0.91867 -2.70285,2.82821 -2.70285,4.24314 0,1.41519 0.48356,2.57283 1.07455,2.57283 z m 102.41321,-4.14661 1.41266,-1.41274 -3.23544,-3.23532 -3.23541,-3.2356 0,2.82547 c 0,1.55382 0.82025,3.64545 1.82278,4.64806 l 1.82275,1.82259 1.41266,-1.41246 z m 25.17888,-1.58281 2.21196,-3.57901 -1.49525,-2.41945 -1.49529,-2.41918 -2.73415,2.73415 -2.73415,2.73416 2.01744,3.26431 2.01746,3.26431 2.21198,-3.57929 z m -15.03785,0.26248 c 0.66315,0 1.20571,-0.54245 1.20571,-1.20549 0,-0.6633 -1.42047,-2.0837 -3.15661,-3.15685 l -3.15661,-1.95082 1.95091,3.15658 c 1.07298,1.73618 2.49346,3.15658 3.1566,3.15658 z m -222.43056,-8.20247 c 0.65633,0 5.839,-2.25949 11.51707,-5.02154 l 10.32376,-5.02155 13.08769,0.68655 13.08766,0.68682 -1.36889,-5.23468 -1.36885,-5.2346 4.42012,0 4.42012,0 0,-4.10122 c 0,-2.25568 -0.6763,-4.10124 -1.50286,-4.10124 -0.82656,0 -4.94434,1.77966 -9.15061,3.95482 l -7.64776,3.95482 -6.57078,-1.69482 -6.57077,-1.6948 4.10123,5.023 4.10123,5.02303 -6.43975,-3.43208 -6.43973,-3.43204 -9.96521,1.93334 c -5.48083,1.06334 -17.89455,1.74297 -27.58597,1.51033 l -17.62084,-0.42303 -3.53297,-2.93212 -3.53296,-2.9321 2.88929,8.28823 2.8893,8.28829 3.77094,1.44692 3.77092,1.44719 -1.69247,-4.41047 -1.69247,-4.41073 3.75,2.31773 3.75,2.31775 11.06896,-0.64854 11.06895,-0.64828 2.59744,-2.58787 c 1.4286,-1.42329 4.22528,-2.58782 6.21488,-2.58782 l 3.61744,0 -4.47873,6.83533 c -2.46329,3.75947 -3.94172,6.83538 -3.28538,6.83538 z m 202.87414,0 3.84526,0 -1.42999,-5.4683 -1.42999,-5.46831 -5.83297,0.216 -5.83296,0.216 3.41769,1.3791 3.41769,1.37911 0,3.87348 0,3.8732 3.84527,0 z m -208.90687,-2.73415 3.64553,0 -1.82275,-1.82259 -1.82278,-1.82286 -1.82277,1.82286 -1.82276,1.82259 3.64553,0 z m 92.79989,0 2.89553,0 0,-2.73415 c 0,-1.50379 -0.54257,-2.73416 -1.20571,-2.73416 -0.66315,0 -1.96613,1.23037 -2.89553,2.73416 l -1.68979,2.73415 2.8955,0 z m 135.50203,0 c 0.75189,0 1.36708,-0.61519 1.36708,-1.36707 0,-0.7519 -0.61519,-1.36708 -1.36708,-1.36708 -0.75189,0 -1.36708,0.61518 -1.36708,1.36708 0,0.75188 0.61519,1.36707 1.36708,1.36707 z m 9.08319,-1.33645 c 0.72319,-0.72318 -1.94745,-4.57725 -5.93476,-8.56444 -3.98733,-3.98733 -7.24966,-6.23841 -7.24966,-5.00241 0,1.23597 2.67064,5.09001 5.93479,8.56444 3.26414,3.47456 6.52647,5.7256 7.24963,5.00241 z m -294.96373,-1.3977 2.89553,0 0,-2.73416 c 0,-1.50378 -0.54257,-2.73415 -1.20571,-2.73415 -0.66314,0 -1.96613,1.23037 -2.89553,2.73415 l -1.68978,2.73416 2.89549,0 z m 192.91928,0 c 0.75189,0 1.36708,-0.61519 1.36708,-1.36708 0,-0.75189 -0.61519,-1.36708 -1.36708,-1.36708 -0.75189,0 -1.36707,0.61519 -1.36707,1.36708 0,0.75189 0.61518,1.36708 1.36707,1.36708 z m 43.40471,-0.79728 c 1.50378,-0.50145 3.16897,-2.21603 3.70038,-3.81032 l 0.96622,-2.89856 -5.58011,-1.45925 -5.58011,-1.45921 0,3.38956 c 0,1.86422 0.84586,4.23556 1.87973,5.26934 1.03384,1.03378 3.1101,1.46961 4.61389,0.96844 z m -30.41748,-3.76493 c 4.88731,-0.93044 9.39866,-2.12996 10.02525,-2.66586 0.62656,-0.53589 0.53685,-1.5767 -0.19932,-2.31293 -0.73623,-0.73622 -5.24758,-2.12039 -10.02525,-3.07592 l -8.68668,-1.73734 0,5.74172 0,5.74168 8.886,-1.69135 z m 47.32554,1.82805 c 0.66315,0 1.20571,-1.23037 1.20571,-2.73415 l 0,-2.7341 -2.89553,0 -2.89549,0 1.68979,2.7341 c 0.92939,1.50378 2.23238,2.73415 2.89552,2.73415 z m 25.81311,0 3.64552,0 -1.82274,-1.82258 -1.82278,-1.82287 -1.82279,1.82287 -1.82275,1.82258 3.64554,0 z m -266.50455,-5.46825 c 0.61595,0 0.39134,-1.89863 -0.49912,-4.21915 -0.89048,-2.32054 -2.20545,-3.63277 -2.92213,-2.91606 -0.7167,0.7167 -0.49209,2.61532 0.49912,4.21915 0.99124,1.60382 2.30618,2.91606 2.92213,2.91606 z m 242.05852,-2.73416 c 1.41504,0 2.57278,-1.15775 2.57278,-2.57278 0,-1.41503 -1.31223,-3.38379 -2.91605,-4.37503 l -2.91606,-1.80222 -1.45898,1.45894 -1.45893,1.45898 1.80221,2.91605 c 0.99124,1.60383 2.96,2.91606 4.37503,2.91606 z m 16.03565,-0.76742 5.67622,0.42757 0,-2.40285 c 0,-1.32159 -1.28929,-3.19971 -2.8651,-4.17361 l -2.86506,-1.77072 -4.14361,1.59004 -4.14359,1.59005 1.33244,2.15597 c 0.73287,1.1858 3.88676,2.34838 7.0087,2.58355 z m -340.19435,-1.96946 c 0.75189,0 1.36707,-0.61519 1.36707,-1.36709 0,-0.75188 -0.61518,-1.36707 -1.36707,-1.36707 -0.7519,0 -1.36708,0.61519 -1.36708,1.36707 0,0.7519 0.61518,1.36709 1.36708,1.36709 z m 105.26495,0 5.46831,0 0,-4.10124 0,-4.10123 -5.46831,0 -5.4683,0 0,4.10123 0,4.10124 5.4683,0 z m 191.39084,0 3.64553,0 -1.82276,-1.82279 -1.82277,-1.82274 -1.82278,1.82274 -1.82276,1.82279 3.64554,0 z m 17.93337,0 c 0.66315,0 1.20571,-1.23037 1.20571,-2.73416 l 0,-2.73415 -2.89553,0 -2.89549,0 1.68978,2.73415 c 0.9294,1.50379 2.23239,2.73416 2.89553,2.73416 z m -116.17202,-7.8047 2.57844,-6.43762 4.08363,1.56705 4.08362,1.56702 0,-3.7918 c 0,-2.08548 0.82427,-5.93982 1.83173,-8.56518 l 1.83171,-4.77337 -3.88233,2.34043 -3.88234,2.34047 3.85989,-4.75552 3.85989,-4.75549 1.98923,3.21868 1.98926,3.21868 3.14674,-14.67279 3.14674,-14.67279 -2.84401,-0.94802 -2.84404,-0.94801 0,-3.52582 c 0,-1.9392 -2.61716,-9.44232 -5.81591,-16.67362 l -5.8159,-13.14781 3.45425,-5.53114 3.45425,-5.53111 -2.8164,-0.93881 -2.81639,-0.93879 1.45615,-5.56835 1.45616,-5.56835 1.99549,3.22879 1.9955,3.22879 2.93017,-8.40553 2.93019,-8.40553 -3.09304,-1.91161 -3.09305,-1.91159 -1.07274,3.21824 -1.07275,3.21823 -3.87336,0 c -2.13037,0 -4.03042,0.92278 -4.22233,2.05062 -0.19194,1.12784 -0.65136,4.51135 -1.02096,7.51893 -0.36963,3.00756 -0.96398,8.54422 -1.32079,12.30369 -0.35684,3.75946 -0.51257,9.06115 -0.34611,11.78153 l 0.30264,4.94611 3.1988,-1.97695 3.19879,-1.97697 -1.83171,4.54977 c -1.00746,2.50236 -2.67726,6.70289 -3.71072,9.33452 l -1.87899,4.78477 4.23857,-3.44159 4.23856,-3.44162 -1.38892,7.26567 -1.38892,7.26565 3.13058,-1.9348 3.13057,-1.93479 0,2.73415 c 0,1.50379 -1.53796,3.71069 -3.41769,4.90426 -1.87973,1.19357 -4.34047,2.34276 -5.4683,2.55375 -1.12784,0.21108 -2.66581,0.69123 -3.4177,1.06717 -0.75189,0.37594 -2.80251,0.83734 -4.55693,1.02531 l -3.18983,0.34177 -1.11956,4.10123 -1.11952,4.10123 2.90044,-4.10123 2.90042,-4.10123 -0.0383,2.73415 c -0.0219,1.50378 -3.67596,6.73286 -8.12205,11.62016 l -8.08377,8.886 -4.13976,0 -4.13979,0 0,2.78625 0,2.78623 6.4648,-1.62255 6.46484,-1.62256 1.65183,4.30462 c 0.90851,2.36754 2.83294,4.30463 4.27652,4.30463 1.44356,0 4.47964,-1.85498 6.74685,-4.1222 l 4.12221,-4.1222 1.80924,2.92741 1.80924,2.92742 -4.36906,4.82776 -4.36907,4.82777 0.17334,5.25302 0.17335,5.25302 2.57847,-6.43761 z m 80.60589,3.27168 c 2.1791,-0.83618 3.96198,-1.93127 3.96198,-2.43353 0,-0.50227 -1.10146,-1.59393 -2.44767,-2.42594 l -2.44764,-1.51271 -1.51434,3.94628 -1.51431,3.94626 3.96198,-1.52036 z m 81.5454,1.79886 2.73013,0 -7.29742,-7.61689 -7.29747,-7.61692 -6.20133,-0.43509 -6.20131,-0.43508 5.43629,3.08416 c 2.98994,1.69627 7.83582,5.31965 10.76864,8.05197 2.93279,2.73232 6.5609,4.96785 8.06247,4.96785 z m -233.43024,-2.73415 3.64553,0 -1.82275,-1.82278 -1.82278,-1.82276 -1.82277,1.82276 -1.82276,1.82278 3.64553,0 z m 39.64525,0 c 0.75188,0 1.36707,-0.61519 1.36707,-1.36708 0,-0.75189 -0.61519,-1.36708 -1.36707,-1.36708 -0.7519,0 -1.36709,0.61519 -1.36709,1.36708 0,0.75189 0.61519,1.36708 1.36709,1.36708 z m 126.22681,-0.91138 1.82276,-1.82278 -1.82276,-1.82278 -1.82278,-1.82275 0,3.64553 0,3.64553 1.82278,-1.82275 z m 177.26436,0.91138 c 0.75189,0 1.36708,-0.61519 1.36708,-1.36708 0,-0.75189 -0.61519,-1.36708 -1.36708,-1.36708 -0.75189,0 -1.36708,0.61519 -1.36708,1.36708 0,0.75189 0.61519,1.36708 1.36708,1.36708 z m -200.94323,-2.73416 5.45117,0 0,-2.21158 c 0,-1.21637 -1.80644,-4.59988 -4.01429,-7.51892 -2.20783,-2.91903 -4.14482,-4.69216 -4.30441,-3.94028 -0.15967,0.7519 -0.80617,4.13541 -1.43688,7.51893 l -1.14673,6.15185 5.45114,0 z m 18.21056,-0.91138 1.82276,-1.82277 -1.82276,-1.82278 -1.82278,-1.82276 0,3.64554 0,3.64553 1.82278,-1.82276 z m 21.41754,0.91138 c 0.75189,0 1.36708,-0.61518 1.36708,-1.36708 0,-0.75189 -0.61519,-1.36707 -1.36708,-1.36707 -0.75189,0 -1.36707,0.61518 -1.36707,1.36707 0,0.7519 0.61518,1.36708 1.36707,1.36708 z m -60.1514,-2.73415 c 0.75189,0 1.36707,-0.61519 1.36707,-1.36708 0,-0.75189 -0.61518,-1.36707 -1.36707,-1.36707 -0.7519,0 -1.36708,0.61518 -1.36708,1.36707 0,0.75189 0.61518,1.36708 1.36708,1.36708 z m 68.51523,0 c 0.66315,0 1.20571,-0.54257 1.20571,-1.20571 0,-0.66315 -1.42047,-2.08362 -3.1566,-3.15661 l -3.15662,-1.9509 1.95091,3.15661 c 1.07298,1.73613 2.49346,3.15661 3.1566,3.15661 z m -203.01098,-2.90748 2.21195,0.17335 -1.54545,-2.50063 -1.54548,-2.50063 3.43472,-1.23114 3.43474,-1.23113 5.03283,2.59364 5.03284,2.59365 8.63794,-3.49143 c 4.75087,-1.92028 9.54778,-4.79163 10.65984,-6.38081 l 2.02188,-2.88937 -1.12213,-3.07787 -1.12214,-3.07786 4.27427,0.34371 4.27428,0.34371 1.15343,-3.261 1.15343,-3.261 -6.03289,0.45445 -6.03285,0.45444 -3.857,8.27487 -3.85699,8.27486 1.57368,-9.56955 1.57369,-9.56954 -4.40699,6.27866 -4.40699,6.27866 1.52511,3.97442 1.52514,3.97442 -2.44786,0 -2.44787,0 -0.88403,-4.58952 -0.88401,-4.58955 -4.45926,4.45935 c -2.45263,2.45262 -4.91336,4.03246 -5.46831,3.51074 -0.55498,-0.52173 -5.93053,-0.0339 -11.94567,1.08425 l -10.93661,2.03287 6.83538,2.97386 c 3.75947,1.63563 7.83078,3.05184 9.04738,3.14715 z m 64.61343,0.17335 2.89553,0 0,-2.73415 c 0,-1.50379 -0.54257,-2.73416 -1.20571,-2.73416 -0.66315,0 -1.96613,1.23037 -2.89553,2.73416 l -1.68979,2.73415 2.8955,0 z m -274.62118,-2.73415 c 0.75189,0 1.36708,-0.61519 1.36708,-1.36708 0,-0.7519 -0.61519,-1.36708 -1.36708,-1.36708 -0.75189,0 -1.36708,0.61518 -1.36708,1.36708 0,0.75189 0.61519,1.36708 1.36708,1.36708 z m 112.19798,-0.0418 c 1.45009,-0.0219 4.44645,-1.18651 6.65857,-2.5855 l 4.02205,-2.54361 -2.03653,-2.03654 -2.03654,-2.03653 -4.622,4.62201 -4.62204,4.62203 2.63649,-0.0418 z m 232.30552,0.0418 c 0.75189,0 1.36707,-0.61519 1.36707,-1.36708 0,-0.7519 -0.61518,-1.36708 -1.36707,-1.36708 -0.7519,0 -1.36708,0.61518 -1.36708,1.36708 0,0.75189 0.61518,1.36708 1.36708,1.36708 z m 46.48063,0 c 0.75189,0 1.36708,-0.61519 1.36708,-1.36708 0,-0.7519 -0.61519,-1.36708 -1.36708,-1.36708 -0.7519,0 -1.36708,0.61518 -1.36708,1.36708 0,0.75189 0.61518,1.36708 1.36708,1.36708 z m 11.39231,-3.64554 1.82276,-1.82278 -1.82276,-1.82277 -1.82277,-1.82276 0,3.64553 0,3.64554 1.82277,-1.82276 z m 19.13909,0 1.82276,-1.82278 -1.82276,-1.82277 -1.82278,-1.82276 0,3.64553 0,3.64554 1.82278,-1.82276 z m 6.37968,0.91138 3.64554,0 -1.82276,-1.82278 -1.82278,-1.82275 -1.82277,1.82275 -1.82275,1.82278 3.64552,0 z M 179.4724,880.11199 c 0.75189,0 1.36707,-0.61518 1.36707,-1.36707 0,-0.7519 -0.61518,-1.36708 -1.36707,-1.36708 -0.7519,0 -1.36708,0.61518 -1.36708,1.36708 0,0.75189 0.61518,1.36707 1.36708,1.36707 z m 378.59463,0 2.64833,0 -1.57378,-4.10123 c -0.86561,-2.25568 -2.05734,-4.10123 -2.64836,-4.10123 -0.59099,0 -1.07454,1.84555 -1.07454,4.10123 l 0,4.10123 2.64835,0 z M 149.3967,877.37784 c 0.75189,0 1.36708,-0.61519 1.36708,-1.36708 0,-0.75189 -0.61519,-1.36708 -1.36708,-1.36708 -0.7519,0 -1.36707,0.61519 -1.36707,1.36708 0,0.75189 0.61517,1.36708 1.36707,1.36708 z m 269.31424,0 3.64553,0 -1.82275,-1.82278 -1.82278,-1.82275 -1.82278,1.82275 -1.82275,1.82278 3.64553,0 z m 154.47974,0 c 0.75189,0 1.36708,-0.61519 1.36708,-1.36708 0,-0.75189 -0.61519,-1.36708 -1.36708,-1.36708 -0.75189,0 -1.36708,0.61519 -1.36708,1.36708 0,0.75189 0.61519,1.36708 1.36708,1.36708 z m -226.65003,-3.47464 1.65187,-1.6519 -1.43603,-3.58858 -1.43604,-3.58857 -0.21572,5.24047 -0.216,5.24044 1.6519,-1.65186 z m 159.13519,-0.55424 1.53058,-1.53056 -3.39741,-3.37214 -3.3974,-3.37211 1.86682,4.90269 1.86686,4.9027 1.53055,-1.53058 z m 7.80714,-0.75589 1.37908,-3.4177 -1.37908,-3.41769 -1.37909,-3.41769 0,6.83538 0,6.83539 1.37909,-3.41769 z m 10.94861,1.13924 1.82276,-1.82278 -1.82276,-1.82277 -1.82277,-1.82276 0,3.64553 0,3.64553 1.82277,-1.82275 z m 27.17067,0.17089 1.65186,-1.6519 -1.43602,-3.58858 -1.43604,-3.58857 -0.21573,5.24047 -0.21572,5.24044 1.6519,-1.65186 z m -425.60725,-1.99367 2.89553,0 0,-2.73416 c 0,-1.50378 -0.54257,-2.73415 -1.20571,-2.73415 -0.66314,0 -1.96613,1.23037 -2.89552,2.73415 l -1.68979,2.73416 2.89549,0 z m 17.93338,0 c 0.7519,0 1.36707,-0.61519 1.36707,-1.36707 0,-0.7519 -0.61517,-1.36709 -1.36707,-1.36709 -0.7519,0 -1.36708,0.61519 -1.36708,1.36709 0,0.75188 0.61518,1.36707 1.36708,1.36707 z m 57.11501,0 c 0.76316,0 4.76744,-3.13233 8.89836,-6.96077 l 7.51079,-6.96076 0.8376,-5.48848 c 0.46068,-3.01867 2.78312,-9.25072 5.16099,-13.84898 l 4.32335,-8.36047 -3.64486,1.21051 -3.64491,1.21055 -2.69864,7.97903 c -1.48423,4.38848 -3.94497,8.88299 -5.46831,9.98782 l -2.76966,2.00872 2.5272,0.0418 2.52723,0.0418 -5.53817,6.15184 c -3.04598,3.38352 -6.40899,7.68982 -7.47334,9.56955 -1.06435,1.87973 -1.31078,3.41769 -0.54763,3.41769 z m 19.44132,0 c 0.75189,0 1.36707,-0.61519 1.36707,-1.36707 0,-0.7519 -0.61518,-1.36709 -1.36707,-1.36709 -0.75189,0 -1.36708,0.61519 -1.36708,1.36709 0,0.75188 0.61519,1.36707 1.36708,1.36707 z m 209.22438,-2.76708 c 2.97373,-1.59149 5.40677,-3.46551 5.40677,-4.16449 0,-0.69899 -1.71394,-1.27089 -3.80871,-1.27089 l -3.8087,0 -1.59809,4.1645 -1.59806,4.1645 5.40679,-2.89362 z M 177.56519,858.26331 c 2.55274,-3.74596 8.81262,-11.4683 13.91081,-17.16073 5.09818,-5.69243 8.68585,-10.93344 7.97263,-11.64668 -0.71324,-0.71323 -4.29153,2.08761 -7.95177,6.22411 -3.66024,4.13648 -9.40109,11.40195 -12.75743,16.14543 -3.35631,4.74349 -6.03789,9.66496 -5.95902,10.93662 0.079,1.27166 2.23204,-0.75279 4.78478,-4.49875 z m 60.69154,5.44376 3.64552,0 -1.82275,-1.82279 -1.82277,-1.82274 -1.82278,1.82274 -1.82276,1.82279 3.64554,0 z m 8.33362,0 c 1.25416,0 3.00748,-1.17665 3.89628,-2.61476 l 1.61599,-2.61472 3.92997,1.50804 3.92994,1.50808 8.28618,-9.0722 c 4.5574,-4.98972 8.28618,-7.99212 8.28618,-6.67201 l 0,2.40018 5.46831,-4.94877 5.46831,-4.94877 0,-4.75202 0,-4.75201 4.10124,-1.57381 4.10122,-1.57378 0,2.1015 c 0,1.15584 -1.45593,3.55747 -3.2354,5.33693 -1.7795,1.7795 -2.70227,3.7277 -2.05062,4.32938 0.65163,0.60167 4.26071,-0.13343 8.02018,-1.63339 l 6.83539,-2.72734 -3.04943,-1.1603 -3.04941,-1.16026 7.83418,-8.38653 c 4.3088,-4.61261 7.8342,-9.28929 7.8342,-10.39266 0,-1.10337 -3.13381,-3.43399 -6.96403,-5.17914 l -6.96406,-3.17304 -9.50854,0 -9.50857,0 -2.49784,6.56979 c -1.3738,3.61337 -3.80409,7.37709 -5.40064,8.36383 l -2.90279,1.79401 0,-2.89549 0,-2.89553 2.73415,0 2.73415,0 0,-5.89207 0,-5.89208 -5.4683,4.94876 -5.46832,4.94877 0,-2.31342 c 0,-1.2724 -1.80642,0.0749 -4.01428,2.99392 l -4.01426,5.30735 -0.087,-2.90214 c -0.0479,-1.59617 2.28167,-5.44457 5.17667,-8.552 l 5.26367,-5.64988 -8.1529,0.64135 -8.15292,0.64138 -3.26258,3.49783 -3.26262,3.49785 6.83539,-1.54566 6.83539,-1.54565 -6.15185,4.24133 c -3.38352,2.33272 -6.15185,5.39424 -6.15185,6.80337 l 0,2.56201 2.73416,-1.68979 2.73415,-1.68978 0,1.72371 c 0,0.94807 -1.84556,3.5693 -4.10124,5.82498 l -4.10122,4.10124 -0.27987,-3.613 -0.27987,-3.61299 -2.67165,9.56954 c -1.46941,5.26324 -3.34325,13.73617 -4.16406,18.8287 l -1.49241,9.25916 3.09615,-1.91352 3.09619,-1.91353 1.64027,4.27452 c 0.90216,2.351 2.6664,4.27453 3.92056,4.27453 z m 4.97433,-15.98658 -5.10549,5.88666 0,-4.05756 0,-4.05757 6.83126,-3.65598 6.83129,-3.656 1.82687,1.82691 1.82689,1.82688 -3.55269,0 -3.55267,0 -5.10546,5.88666 z m 26.2411,-3.1525 c -0.69899,0 -1.27089,-1.07973 -1.27089,-2.39939 0,-1.31964 2.04698,-4.08797 4.54887,-6.15185 l 4.54887,-3.75246 -3.27798,6.15184 c -1.8029,3.38352 -3.84991,6.15186 -4.54887,6.15186 z m -29.52381,-3.64554 -1.82278,1.82276 0,-3.64554 0,-3.64553 1.82278,1.82276 1.82275,1.82277 -1.82275,1.82278 z m 13.21507,-18.22771 c -0.75189,0 -1.36708,-0.61518 -1.36708,-1.36707 0,-0.75189 0.61519,-1.36708 1.36708,-1.36708 0.75189,0 1.36708,0.61519 1.36708,1.36708 0,0.75189 -0.61519,1.36707 -1.36708,1.36707 z m 24.345,41.01233 6.25025,0 4.94877,-5.46831 4.94876,-5.46831 -2.47439,0.087 c -1.36092,0.0479 -4.68469,1.76326 -7.38623,3.81204 l -4.91182,3.72507 -5.7688,-1.50857 -5.76877,-1.50857 1.95599,3.16487 1.95596,3.16483 6.25028,0 z m 235.3997,0 c 0.75189,0 1.36708,-0.61519 1.36708,-1.36708 0,-0.75189 -0.61519,-1.36708 -1.36708,-1.36708 -0.75189,0 -1.36707,0.61519 -1.36707,1.36708 0,0.75189 0.61518,1.36708 1.36707,1.36708 z m -292.09886,-2.73416 1.82276,0 -1.59008,-1.59007 -1.59007,-1.59008 4.13885,-9.90568 4.13886,-9.90565 -4.34146,3.60307 -4.34143,3.60307 1.49835,2.42438 1.49831,2.42435 -2.65358,0 -2.65357,0 0.91593,4.78477 c 0.5038,2.63162 1.01011,5.09236 1.12517,5.46831 0.1151,0.37594 1.02943,0.68353 2.03196,0.68353 z m 212.80837,0 c 0.7519,0 1.36708,-0.61518 1.36708,-1.36708 0,-0.75189 -0.61518,-1.36707 -1.36708,-1.36707 -0.75189,0 -1.36707,0.61518 -1.36707,1.36707 0,0.7519 0.61518,1.36708 1.36707,1.36708 z m 62.88556,0 c 0.75189,0 1.36708,-0.61518 1.36708,-1.36708 0,-0.75189 -0.61519,-1.36707 -1.36708,-1.36707 -0.75189,0 -1.36708,0.61518 -1.36708,1.36707 0,0.7519 0.61519,1.36708 1.36708,1.36708 z m -335.19162,-6.97209 c 1.36208,-1.4286 5.05318,-7.24877 8.20247,-12.9337 3.14928,-5.68494 5.7026,-11.2216 5.67402,-12.3037 -0.0284,-1.0821 -3.71968,3.87318 -8.20246,11.01172 -4.48279,7.13856 -8.15052,13.84407 -8.15052,14.90115 l 0,1.92197 2.47649,-2.59744 z m 322.88793,-3.96452 2.73415,0 0,-2.91659 c 0,-1.60412 -3.18682,-7.09471 -7.08184,-12.20135 l -7.08182,-9.28476 -1.47308,-10.98252 -1.47305,-10.98253 -2.38172,1.47199 -2.38172,1.47199 0,9.73077 0,9.73078 8.20246,9.34209 c 4.51135,5.13816 8.20246,10.52963 8.20246,11.98112 0,1.45145 1.23037,2.63901 2.73416,2.63901 z m -177.72006,-10.93663 3.64553,0 -1.82276,-1.82277 -1.82277,-1.82276 -1.82278,1.82276 -1.82275,1.82277 3.64553,0 z m -77.46771,-3.64553 1.82275,-1.82278 -1.82275,-1.82277 -1.82278,-1.82276 0,3.64553 0,3.64554 1.82278,-1.82276 z m 73.56787,-2.44121 4.94141,-4.71967 -1.66633,-1.66636 -1.66636,-1.66633 -3.27505,6.386 -3.27508,6.38603 4.94141,-4.71967 z m 185.72113,3.35259 c 0.75189,0 1.36707,-0.61519 1.36707,-1.36708 0,-0.75189 -0.61518,-1.36708 -1.36707,-1.36708 -0.75189,0 -1.36708,0.61519 -1.36708,1.36708 0,0.75189 0.61519,1.36708 1.36708,1.36708 z m -168.62799,-6.01908 c 2.47721,-1.95276 6.56805,-6.0112 9.09077,-9.01877 2.52272,-3.00757 4.08969,-5.96875 3.48219,-6.5804 -0.6075,-0.61163 -4.19271,2.22007 -7.96711,6.29271 -3.77439,4.07266 -6.86253,6.65362 -6.86253,5.7355 l 0,-1.66929 -2.77875,1.71734 -2.77875,1.71738 1.65509,2.678 1.65509,2.678 4.504,-3.55047 z M 206.9532,815.42758 c 2.17909,-0.83619 3.96198,-2.61907 3.96198,-3.96198 0,-1.34288 -1.09875,-2.44163 -2.44163,-2.44163 -1.34291,0 -3.1258,1.78289 -3.96199,3.96198 l -1.52034,3.96198 3.96198,-1.52035 z m 21.73398,-0.9353 c 0.7519,0 1.36709,-0.61518 1.36709,-1.36708 0,-0.75189 -0.61519,-1.36707 -1.36709,-1.36707 -0.75189,0 -1.36708,0.61518 -1.36708,1.36707 0,0.7519 0.61519,1.36708 1.36708,1.36708 z m 8.20247,0 c 0.75189,0 1.36708,-0.61518 1.36708,-1.36708 0,-0.75189 -0.61519,-1.36707 -1.36708,-1.36707 -0.75189,0 -1.36708,0.61518 -1.36708,1.36707 0,0.7519 0.61519,1.36708 1.36708,1.36708 z m 90.2271,0 c 0.7519,0 1.36708,-0.61518 1.36708,-1.36708 0,-0.75189 -0.61518,-1.36707 -1.36708,-1.36707 -0.75189,0 -1.36707,0.61518 -1.36707,1.36707 0,0.7519 0.61518,1.36708 1.36707,1.36708 z m 128.50528,0 c 0.75189,0 1.36707,-0.61518 1.36707,-1.36708 0,-0.75189 -0.61518,-1.36707 -1.36707,-1.36707 -0.7519,0 -1.36708,0.61518 -1.36708,1.36707 0,0.7519 0.61518,1.36708 1.36708,1.36708 z m 30.5314,-0.91137 1.82275,-1.82278 -1.82275,-1.82278 -1.82278,-1.82276 0,3.64554 0,3.64553 1.82278,-1.82275 z m -380.21839,-2.56328 1.65187,-1.65189 -1.43604,-3.58858 -1.43603,-3.58858 -0.21572,5.24048 -0.21573,5.24044 1.65187,-1.65187 z m 224.34223,-3.99225 c 0.74894,-1.8511 0.79452,-5.54221 0.10117,-8.20246 l -1.26029,-4.8368 -0.10115,8.20246 -0.10144,8.20247 1.36174,-3.36567 z m 7.76481,1.99859 c 0.0897,0 2.43201,-2.64991 5.20515,-5.88868 l 5.04202,-5.88869 -4.25775,1.63385 -4.25774,1.63387 -1.34072,-3.26411 -1.3407,-3.26409 0.39331,7.51893 c 0.21628,4.13541 0.46672,7.51892 0.55643,7.51892 z m 8.21376,0 c 0.75189,0 1.36707,-0.61518 1.36707,-1.36708 0,-0.75188 -0.61518,-1.36707 -1.36707,-1.36707 -0.7519,0 -1.36708,0.61519 -1.36708,1.36707 0,0.7519 0.61518,1.36708 1.36708,1.36708 z m 5.46831,0 c 0.75189,0 1.36708,-0.61518 1.36708,-1.36708 0,-0.75188 -0.61519,-1.36707 -1.36708,-1.36707 -0.7519,0 -1.36708,0.61519 -1.36708,1.36707 0,0.7519 0.61518,1.36708 1.36708,1.36708 z m -35.54402,-2.73415 4.10124,0 0,-4.436 0,-4.43603 -4.10124,3.40372 c -2.25568,1.87204 -4.10122,3.86826 -4.10122,4.436 0,0.56777 1.84554,1.03231 4.10122,1.03231 z m -98.42956,-2.73415 c 0.75188,0 1.36707,-0.61519 1.36707,-1.36709 0,-0.75189 -0.61519,-1.36707 -1.36707,-1.36707 -0.7519,0 -1.36708,0.61518 -1.36708,1.36707 0,0.7519 0.61518,1.36709 1.36708,1.36709 z m 18.9777,0 c 0.66315,0 1.96614,-1.23037 2.89553,-2.73416 l 1.68979,-2.73416 -2.8955,0 -2.89552,0 0,2.73416 c 0,1.50379 0.54257,2.73416 1.2057,2.73416 z m 52.11031,-2.73416 c 0.7519,0 1.36709,-0.61518 1.36709,-1.36708 0,-0.7519 -0.61519,-1.36708 -1.36709,-1.36708 -0.75188,0 -1.36707,0.61518 -1.36707,1.36708 0,0.7519 0.61519,1.36708 1.36707,1.36708 z m -42.81828,-2.73416 c 1.26242,0 3.75801,-3.21031 5.54578,-7.13401 l 3.25047,-7.13404 5.38813,1.40905 5.38815,1.40902 1.53115,-2.47747 1.53116,-2.47748 -8.16851,0 -8.16853,0 -4.29653,4.29654 c -2.3631,2.36307 -4.29653,6.05418 -4.29653,8.20246 l 0,3.90593 2.29526,0 z m 228.74081,0 c 0.7519,0 1.36708,-0.61518 1.36708,-1.36707 0,-0.7519 -0.61518,-1.36709 -1.36708,-1.36709 -0.7519,0 -1.36707,0.61519 -1.36707,1.36709 0,0.75189 0.61517,1.36707 1.36707,1.36707 z m -215.99822,-2.73416 c 0.75189,0 1.36707,-0.61518 1.36707,-1.36707 0,-0.75189 -0.61518,-1.36708 -1.36707,-1.36708 -0.7519,0 -1.36708,0.61519 -1.36708,1.36708 0,0.75189 0.61518,1.36707 1.36708,1.36707 z m 120.75851,-0.91137 1.82275,-1.82278 -1.82275,-1.82277 -1.82278,-1.82276 0,3.64553 0,3.64554 1.82278,-1.82276 z m 8.20246,-5.46831 1.82275,-1.82278 -1.82275,-1.82278 -1.82278,-1.82274 0,3.64552 0,3.64554 1.82278,-1.82276 z m 193.79478,-5.6589 c 2.13295,-2.13297 5.30785,-4.35469 7.05533,-4.93718 l 3.17722,-1.05907 -3.4009,-10.30487 c -1.8705,-5.66766 -2.81086,-10.8949 -2.08969,-11.61605 0.72116,-0.72117 2.11022,1.87232 3.0868,5.76332 l 1.77559,7.07455 2.65402,-1.64028 2.65399,-1.64025 0,5.31093 0,5.31094 6.68489,1.27788 6.68493,1.2779 -6.06586,-11.21223 c -3.33621,-6.16674 -8.39467,-14.69223 -11.24104,-18.9455 l -5.17518,-7.73329 -2.59797,4.6423 c -1.42886,2.55326 -4.30962,11.97956 -6.40166,20.94734 l -3.80371,16.30503 1.56258,2.5283 1.56259,2.5283 3.87807,-3.87807 z m 21.74774,1.10197 c 0.7519,0 1.36708,-0.61519 1.36708,-1.36707 0,-0.7519 -0.61518,-1.36709 -1.36708,-1.36709 -0.75189,0 -1.36707,0.61519 -1.36707,1.36709 0,0.75188 0.61518,1.36707 1.36707,1.36707 z m -209.685,-2.77601 4.6234,-0.0418 -4.10123,-2.65041 c -2.25568,-1.45774 -5.09663,-2.66927 -6.31323,-2.69229 l -2.21195,-0.0418 1.68979,2.73416 1.68979,2.73415 4.62343,-0.0418 z m 31.73711,-0.1739 5.24044,0.21573 -1.65186,-1.6519 -1.6519,-1.65187 -3.58858,1.43604 -3.58857,1.43603 5.24047,0.21572 z m 142.85959,-0.69551 1.82274,-1.82289 -1.82274,-1.82278 -1.82278,-1.82275 0,3.64553 0,3.64553 1.82278,-1.82275 z M 112.84635,769.37873 c 1.39136,-6.01514 3.83788,-15.02743 5.43673,-20.02733 1.59883,-4.99987 2.31723,-9.68044 1.59642,-10.40124 -0.7208,-0.72084 -3.29449,4.51196 -5.7193,11.62836 l -4.40875,12.93894 0.28258,8.39895 0.2826,8.39894 2.52972,-10.93662 z m 233.40949,5.08998 c 2.25568,-0.8656 4.10123,-2.63392 4.10123,-3.92961 l 0,-2.35583 -4.10123,1.57378 c -2.25568,0.86561 -4.10124,2.63392 -4.10124,3.92961 l 0,2.35583 4.10124,-1.57378 z m 13.67077,1.74541 c 0.7519,0 1.36708,-0.61519 1.36708,-1.36709 0,-0.75188 -0.61518,-1.36707 -1.36708,-1.36707 -0.75189,0 -1.36707,0.61519 -1.36707,1.36707 0,0.7519 0.61518,1.36709 1.36707,1.36709 z m 260.47953,-4.12382 5.1827,-5.44573 -0.99837,-9.56954 -0.99836,-9.56954 -4.53361,-3.4177 c -2.49346,-1.87973 -5.52879,-3.41769 -6.74516,-3.41769 l -2.21157,0 -0.22311,6.15185 -0.2231,6.15185 -4.30852,-9.56954 -4.30853,-9.56955 -1.69343,6.62303 -1.69342,6.623 6.21711,12.28034 c 3.41941,6.75419 6.99906,13.00162 7.95478,13.88314 l 1.73766,1.60281 -1.92738,-10.64597 -1.92739,-10.64598 4.17555,4.17555 4.17554,4.17555 -1.41711,7.81491 -1.41712,7.8149 5.18271,-5.44569 z m -147.92348,-2.25587 1.82275,-1.82278 -1.82275,-1.82278 -1.82279,-1.82275 0,3.64553 0,3.64553 1.82279,-1.82275 z m 174.5302,0.91138 c 0.75189,0 1.36708,-0.61519 1.36708,-1.36708 0,-0.75189 -0.61519,-1.36708 -1.36708,-1.36708 -0.75189,0 -1.36708,0.61519 -1.36708,1.36708 0,0.75189 0.61519,1.36708 1.36708,1.36708 z m -412.85737,-2.73416 c 0.7519,0 1.36708,-0.61518 1.36708,-1.36708 0,-0.75189 -0.61518,-1.36707 -1.36708,-1.36707 -0.75188,0 -1.36707,0.61518 -1.36707,1.36707 0,0.7519 0.61519,1.36708 1.36707,1.36708 z m 169.51759,0 c 0.7519,0 1.36709,-0.61518 1.36709,-1.36708 0,-0.75189 -0.61519,-1.36707 -1.36709,-1.36707 -0.75188,0 -1.36707,0.61518 -1.36707,1.36707 0,0.7519 0.61519,1.36708 1.36707,1.36708 z m 28.70864,0 3.64552,0 -1.82275,-1.82278 -1.82277,-1.82275 -1.82279,1.82275 -1.82275,1.82278 3.64554,0 z m 48.00907,0 c 0.66314,0 1.20571,-0.54257 1.20571,-1.20571 0,-0.66314 -1.42048,-2.08361 -3.15661,-3.15661 l -3.15661,-1.95089 1.9509,3.1566 c 1.07299,1.73613 2.49346,3.15661 3.15661,3.15661 z m -81.73031,-3.64553 1.82275,-1.82278 -1.82275,-1.82278 -1.82278,-1.82275 0,3.64553 0,3.64553 1.82278,-1.82275 z m 247.04822,0.91138 2.15929,0 -1.42999,-5.46831 c -0.7865,-3.00757 -2.40168,-5.46832 -3.58928,-5.46832 l -2.15931,0 1.43,5.46832 c 0.7865,3.00757 2.40168,5.46831 3.58929,5.46831 z m -471.24891,-3.64554 1.82276,-1.82277 -1.82276,-1.82278 -1.82278,-1.82276 0,3.64554 0,3.64553 1.82278,-1.82276 z m 32.35415,0.91138 c 0.7519,0 1.36708,-0.61518 1.36708,-1.36708 0,-0.75189 -0.61518,-1.36707 -1.36708,-1.36707 -0.75189,0 -1.36707,0.61518 -1.36707,1.36707 0,0.7519 0.61518,1.36708 1.36707,1.36708 z m 240.89044,-0.74049 1.65187,-1.6519 -1.43604,-3.58857 -1.43603,-3.58858 -0.21572,5.24047 -0.21573,5.24045 1.65189,-1.65187 z m 13.38596,0.74049 c 0.75189,0 1.36707,-0.61518 1.36707,-1.36708 0,-0.75189 -0.61518,-1.36707 -1.36707,-1.36707 -0.7519,0 -1.36708,0.61518 -1.36708,1.36707 0,0.7519 0.61518,1.36708 1.36708,1.36708 z m -70.63233,-3.64553 1.82276,-1.82278 -1.82276,-1.82277 -1.82278,-1.82276 0,3.64553 0,3.64553 1.82278,-1.82275 z m 89.77141,0.91138 c 0.75189,0 1.36708,-0.61518 1.36708,-1.36708 0,-0.7519 -0.61519,-1.36708 -1.36708,-1.36708 -0.75189,0 -1.36707,0.61518 -1.36707,1.36708 0,0.7519 0.61518,1.36708 1.36707,1.36708 z M 212.3692,753.13476 c 2.20786,-2.91904 4.01429,-7.06839 4.01429,-9.22077 l 0,-3.91345 -4.10123,3.40372 -4.10124,3.40372 0.087,5.81705 0.087,5.81708 4.01428,-5.30735 z m 260.11346,3.02889 1.82275,-1.82278 -1.82275,-1.82277 -1.82279,-1.82275 0,3.64552 0,3.64554 1.82279,-1.82276 z m 16.71369,0.91138 2.32398,0 4.66622,-10.25308 4.66621,-10.25308 -4.36017,5.46831 c -2.39808,3.00757 -5.54367,7.62146 -6.99017,10.25308 l -2.63002,4.78477 2.32395,0 z m -260.06546,-10.25308 1.37908,-3.41769 -1.37908,-3.41769 -1.37909,-3.4177 0,6.83539 0,6.83539 1.37909,-3.4177 z m 7.75876,2.05062 c 0.75189,0 1.36708,-0.61519 1.36708,-1.36708 0,-0.75189 -0.61519,-1.36708 -1.36708,-1.36708 -0.75189,0 -1.36708,0.61519 -1.36708,1.36708 0,0.75189 0.61519,1.36708 1.36708,1.36708 z m 397.65246,-1.65573 c 0.66475,-0.66475 -0.84199,-3.25924 -3.34827,-5.76556 l -4.55694,-4.55691 -1.91612,1.91612 -1.91613,1.9161 5.26443,3.84944 c 2.89541,2.1172 5.8083,3.30557 6.47303,2.64081 z m -450.74947,-4.49612 c 1.53277,-2.63163 4.02871,-4.78477 5.54653,-4.78477 l 2.75964,0 -1.68979,2.73415 -1.68979,2.73416 1.59609,0 c 0.87788,0 2.98969,-3.38352 4.69292,-7.51893 l 3.09682,-7.51893 1.10804,4.63322 1.10805,4.63324 4.61348,-1.76103 c 2.5374,-0.96855 6.99861,-3.97628 9.9138,-6.68383 l 5.30031,-4.92282 -3.2497,0 -3.24971,0 -0.28667,-7.51893 -0.28671,-7.51892 -3.6044,10.93661 -3.60444,10.93662 -0.20998,-8.72463 -0.20998,-8.72466 -2.73416,-1.68979 -2.73415,-1.68979 -0.22202,-7.35758 -0.22201,-7.35756 -3.75585,8.20247 -3.75584,8.20246 -0.55653,-5.46831 c -0.30609,-3.00757 -0.36534,-7.92905 -0.13179,-10.93662 l 0.42489,-5.46831 -5.71452,6.83539 -5.71449,6.83539 1.59026,-4.92679 1.5903,-4.92678 -2.73257,1.68883 -2.73257,1.68883 0.59055,7.75035 0.59055,7.75037 -3.33725,4.02115 -3.33726,4.02115 2.50257,6.50428 2.5026,6.5043 1.42789,-4.10122 c 0.78536,-2.25568 2.18661,-8.67195 3.1139,-14.25841 0.92731,-5.58645 2.64171,-10.74782 3.8098,-11.46971 l 2.12375,-1.31256 -2.80388,13.68761 -2.80387,13.68764 3.53761,2.18637 3.53762,2.18636 -4.3305,1.66177 -4.33046,1.66176 0.0831,4.87061 0.0831,4.87056 2.78687,-4.78477 z m 20.74286,2.50632 1.82274,-1.82278 -1.82274,-1.82278 -1.82278,-1.82275 0,3.64553 0,3.64553 1.82278,-1.82275 z m 281.16223,0.91137 c 0.75189,0 1.36708,-0.61518 1.36708,-1.36707 0,-0.7519 -0.61519,-1.36708 -1.36708,-1.36708 -0.75189,0 -1.36708,0.61518 -1.36708,1.36708 0,0.75189 0.61519,1.36707 1.36708,1.36707 z m -72.4551,-2.73415 3.64553,0 -1.82275,-1.82278 -1.82278,-1.82275 -1.82278,1.82275 -1.82275,1.82278 3.64553,0 z m 305.44664,-1.04409 c 0.70396,-0.70396 -0.0246,-3.52537 -1.62171,-6.26978 -1.5959,-2.7444 -2.93905,-4.16767 -2.98476,-3.16284 -0.0457,1.00486 0.68402,3.82626 1.6217,6.26978 0.93766,2.44351 2.28081,3.8668 2.98477,3.16284 z m -560.13419,-3.19385 c 1.27764,-1.4286 4.34358,-7.82652 6.81323,-14.21761 l 4.49028,-11.62016 -2.06705,0 c -1.13686,0 -4.2028,4.92993 -6.81324,10.95538 -2.61041,6.02545 -4.74621,12.42337 -4.74621,14.21761 l 0,3.26222 2.32299,-2.59744 z m 10.4364,-2.14174 1.82275,-1.82279 -1.82275,-1.82278 -1.82278,-1.82274 0,3.64552 0,3.64553 1.82278,-1.82274 z m 319.4404,-1.82279 c 0.7519,0 1.36708,-0.61518 1.36708,-1.36708 0,-0.75188 -0.61518,-1.36707 -1.36708,-1.36707 -0.75189,0 -1.36707,0.61519 -1.36707,1.36707 0,0.7519 0.61518,1.36708 1.36707,1.36708 z m -38.27817,-2.73415 c 0.7519,0 1.36708,-0.61518 1.36708,-1.36708 0,-0.75189 -0.61518,-1.36707 -1.36708,-1.36707 -0.75188,0 -1.36707,0.61518 -1.36707,1.36707 0,0.7519 0.61519,1.36708 1.36707,1.36708 z m 289.82041,0 c 0.75189,0 1.36708,-0.61518 1.36708,-1.36708 0,-0.75189 -0.61519,-1.36707 -1.36708,-1.36707 -0.75189,0 -1.36708,0.61518 -1.36708,1.36707 0,0.7519 0.61519,1.36708 1.36708,1.36708 z m -571.43834,-2.73415 c 0.75189,0 1.36708,-0.61519 1.36708,-1.36709 0,-0.75188 -0.61519,-1.36707 -1.36708,-1.36707 -0.75189,0 -1.36708,0.61519 -1.36708,1.36707 0,0.7519 0.61519,1.36709 1.36708,1.36709 z m -34.31216,-7.82182 c 3.08194,-3.55014 5.60354,-7.54884 5.60354,-8.88601 0,-1.33718 -0.58358,-2.43126 -1.29687,-2.43126 -0.71328,0 -3.23486,3.9987 -5.60354,8.88601 l -4.3067,8.88599 5.60357,-6.45473 z m 19.27431,3.72058 c 1.50379,-0.92939 2.73416,-2.92016 2.73416,-4.42394 l 0,-2.73416 -2.73416,1.68979 c -1.50379,0.9294 -2.73415,2.92016 -2.73415,4.42395 l 0,2.73415 2.73415,-1.68979 z m 340.40227,-4.10123 c 0.75188,0 1.36707,-0.61518 1.36707,-1.36708 0,-0.75189 -0.61519,-1.36707 -1.36707,-1.36707 -0.7519,0 -1.36708,0.61518 -1.36708,1.36707 0,0.7519 0.61518,1.36708 1.36708,1.36708 z m 229.50762,0 c 0.66314,0 1.96613,-1.23037 2.89552,-2.73415 l 1.68979,-2.73416 -2.8955,0 -2.89551,0 0,2.73416 c 0,1.50378 0.54256,2.73415 1.2057,2.73415 z m -8.04109,-2.73415 c 0.75189,0 1.36707,-0.61519 1.36707,-1.36708 0,-0.7519 -0.61518,-1.36708 -1.36707,-1.36708 -0.7519,0 -1.36708,0.61518 -1.36708,1.36708 0,0.75189 0.61518,1.36708 1.36708,1.36708 z m -545.62525,-10.93663 2.89553,0 0,-2.73415 c 0,-1.50378 -0.54256,-2.73415 -1.20571,-2.73415 -0.66314,0 -1.96613,1.23037 -2.89552,2.73415 l -1.68979,2.73415 2.89549,0 z m 335.09533,-8.20246 c 0.75189,0 1.36708,-0.61518 1.36708,-1.36707 0,-0.7519 -0.61519,-1.36708 -1.36708,-1.36708 -0.75189,0 -1.36708,0.61518 -1.36708,1.36708 0,0.75189 0.61519,1.36707 1.36708,1.36707 z m 157.88366,-4.51516 2.15359,-1.33101 -1.93653,-3.22876 -1.93652,-3.22877 4.59374,3.72562 4.59371,3.72564 1.59901,-5.09272 c 0.87947,-2.80097 2.73959,-7.22913 4.13361,-9.84036 l 2.53456,-4.74767 0,-13.18529 0,-13.1853 -4.22304,-5.30735 -4.22304,-5.30735 1.75735,17.08847 1.75733,17.08846 -2.80214,0 -2.80212,0 -1.25039,-4.78476 -1.2504,-4.78477 -0.31716,6.15184 -0.31717,6.15185 -3.84526,0 -3.84525,0 1.57968,6.15185 1.57968,6.15184 -7.25672,-6.83538 -7.25674,-6.83539 -0.0473,-3.41769 -0.047,-3.4177 -2.44163,0 c -1.34291,0 -3.12563,-1.78244 -3.96163,-3.96101 l -1.51996,-3.96103 4.13745,-9.02622 c 2.27564,-4.9644 5.29915,-11.17935 6.71897,-13.81098 l 2.58146,-4.78477 -2.68899,0 -2.68899,0 -5.64735,12.39666 -5.64731,12.39666 -2.73306,-1.68914 -2.73306,-1.68913 1.82966,7.74802 c 1.00631,4.26143 2.90119,8.91687 4.21082,10.34547 1.30964,1.4286 2.38115,3.58174 2.38115,4.78477 0,1.20303 -1.24032,2.18733 -2.7563,2.18733 l -2.75627,0 -4.42137,-11.05006 c -2.43173,-6.07753 -4.70942,-10.69142 -5.06153,-10.25308 -0.3521,0.43833 -1.52847,4.48557 -2.61415,8.99383 l -1.97395,8.19686 2.02762,-2.02762 2.02762,-2.02762 3.81797,5.45092 3.81798,5.45092 4.13043,0 4.13046,0 -1.73559,5.46831 -1.73558,5.46831 4.44686,0 4.44682,0 -1.99842,-3.41769 -1.99842,-3.4177 5.93831,5.20854 c 3.26606,2.86468 5.93828,4.3415 5.93828,3.28183 l 0,-1.9267 4.72638,2.64502 4.72639,2.645 2.15361,-1.331 z m 6.45044,-12.63026 -1.65189,1.65187 0.21572,-5.24044 0.21573,-5.24048 1.43603,3.58858 1.43603,3.58858 -1.65186,1.65189 z m -320.01955,11.67711 c 0.66314,0 1.20571,-0.54256 1.20571,-1.20571 0,-0.66313 -1.42048,-2.08361 -3.15661,-3.1566 l -3.15661,-1.9509 1.9509,3.1566 c 1.073,1.73614 2.49347,3.15661 3.15661,3.15661 z m 262.31748,-16.40492 c 0.7519,0 1.36708,-0.61519 1.36708,-1.36708 0,-0.7519 -0.61518,-1.36708 -1.36708,-1.36708 -0.75188,0 -1.36707,0.61518 -1.36707,1.36708 0,0.75189 0.61519,1.36708 1.36707,1.36708 z m -249.41159,-2.73416 2.54455,0 -6.43882,-6.78814 c -3.54137,-3.73349 -7.57608,-6.80942 -8.96604,-6.83539 l -2.52723,-0.0473 6.42152,6.83539 c 3.53184,3.75946 7.56655,6.83538 8.96602,6.83538 z m 290.88534,-0.91712 c 0.64449,-0.64449 0.34895,-4.45019 -0.65672,-8.45712 -1.00568,-4.00693 -2.35581,-6.75804 -3.00027,-6.11357 -0.6445,0.6445 -0.34897,4.45019 0.65672,8.45713 1.00567,4.00692 2.3558,6.75803 3.00027,6.11356 z m -303.9526,-18.22196 c 0.7519,0 1.36708,-0.61519 1.36708,-1.36708 0,-0.75189 -0.61518,-1.36708 -1.36708,-1.36708 -0.75189,0 -1.36708,0.61519 -1.36708,1.36708 0,0.75189 0.61519,1.36708 1.36708,1.36708 z m 10.93662,-5.46831 c 0.7519,0 1.36708,-0.61519 1.36708,-1.36708 0,-0.75189 -0.61518,-1.36708 -1.36708,-1.36708 -0.75189,0 -1.36707,0.61519 -1.36707,1.36708 0,0.75189 0.61518,1.36708 1.36707,1.36708 z m 8.62623,0 c 0.51881,0 0.94331,-1.84556 0.94331,-4.10124 l 0,-4.10122 -4.78477,-0.0418 -4.78477,-0.0418 4.10123,-2.65049 4.10123,-2.65041 -2.96199,-0.0418 c -1.62912,-0.0219 -3.78494,0.78107 -4.79075,1.78688 l -1.82872,1.82874 4.53097,5.00665 c 2.49201,2.75364 4.95543,5.00664 5.47426,5.00664 z m 19.17102,-0.91137 1.82275,-1.82279 -1.82275,-1.82278 -1.82278,-1.82275 0,3.64553 0,3.64553 1.82278,-1.82274 z m 240.60562,-5.46832 1.82275,-1.82277 -1.82275,-1.82278 -1.82279,-1.82276 0,3.64554 0,3.64552 1.82279,-1.82275 z m -232.85886,-7.29108 c 0.7519,0 1.36708,-0.61519 1.36708,-1.36708 0,-0.7519 -0.61518,-1.36708 -1.36708,-1.36708 -0.75189,0 -1.36707,0.61518 -1.36707,1.36708 0,0.75189 0.61518,1.36708 1.36707,1.36708 z m 183.18837,0 c 0.75189,0 1.36708,-0.61519 1.36708,-1.36708 0,-0.7519 -0.61519,-1.36708 -1.36708,-1.36708 -0.75189,0 -1.36708,0.61518 -1.36708,1.36708 0,0.75189 0.61519,1.36708 1.36708,1.36708 z m -202.04263,-3.47465 1.65186,-1.6519 -1.43603,-3.58857 -1.43603,-3.58858 -0.21573,5.24047 -0.21572,5.24045 1.6519,-1.65187 z m 207.34957,0.74049 c 0.66314,0 1.96613,-1.23037 2.89553,-2.73416 l 1.68979,-2.73415 -2.8955,0 -2.89553,0 0,2.73415 c 0,1.50379 0.54257,2.73416 1.20571,2.73416 z m 85.87712,-1.41265 1.41265,-1.41263 -3.23543,-3.23544 -3.23541,-3.23541 0,2.82528 c 0,1.55394 0.82025,3.64557 1.82278,4.64807 l 1.82276,1.82278 1.41265,-1.41265 z m -282.57489,-1.32151 c 0.7519,0 1.36707,-0.61518 1.36707,-1.36707 0,-0.7519 -0.61517,-1.36708 -1.36707,-1.36708 -0.7519,0 -1.36708,0.61518 -1.36708,1.36708 0,0.75189 0.61518,1.36707 1.36708,1.36707 z m 27.29717,-2.73415 c 0.35924,0 0.0487,-3.16211 -0.69013,-7.02686 l -1.34326,-7.02688 -2.80975,2.80975 -2.80979,2.80978 3.49991,4.2171 c 1.92493,2.31942 3.79381,4.21711 4.15302,4.21711 z m 246.27967,0 c 0.66315,0 1.20571,-1.23037 1.20571,-2.73416 l 0,-2.73415 -2.89553,0 -2.89549,0 1.68979,2.73415 c 0.92939,1.50379 2.23238,2.73416 2.89552,2.73416 z m -278.25976,-5.09034 c 0.63322,-1.89966 0.40796,-4.19729 -0.50058,-5.10582 l -1.65189,-1.65186 -1.64088,1.64084 -1.64084,1.64088 2.14144,3.46491 2.14144,3.46494 1.15131,-3.45389 z m 14.16666,2.35616 2.64833,0 -1.57378,-4.10123 c -0.8656,-2.25568 -2.05734,-4.10124 -2.64836,-4.10124 -0.59098,0 -1.07454,1.84556 -1.07454,4.10124 l 0,4.10123 2.64835,0 z m -120.37838,-2.73416 2.89553,0 0,-2.73415 c 0,-1.50379 -0.54257,-2.73416 -1.20571,-2.73416 -0.66315,0 -1.96613,1.23037 -2.89553,2.73416 l -1.68979,2.73415 2.8955,0 z m 97.22387,0 c 0.75189,0 1.36707,-0.61518 1.36707,-1.36707 0,-0.7519 -0.61518,-1.36708 -1.36707,-1.36708 -0.7519,0 -1.36708,0.61518 -1.36708,1.36708 0,0.75189 0.61518,1.36707 1.36708,1.36707 z m 50.17211,-6.92925 c 0.52652,-0.50016 0.14628,-2.22163 -0.8449,-3.82546 -0.99125,-1.60383 -3.0085,-2.91606 -4.48281,-2.91606 l -2.6806,0 3.52548,3.82547 c 1.93903,2.10401 3.95629,3.41624 4.48283,2.91605 z m 206.83843,1.46094 c 0.75189,0 1.36707,-0.61518 1.36707,-1.36708 0,-0.75189 -0.61518,-1.36707 -1.36707,-1.36707 -0.7519,0 -1.36708,0.61518 -1.36708,1.36707 0,0.7519 0.61518,1.36708 1.36708,1.36708 z m -229.669,-2.73415 c 0.7519,0 1.36708,-0.61519 1.36708,-1.36708 0,-0.75189 -0.61518,-1.36707 -1.36708,-1.36707 -0.75189,0 -1.36707,0.61518 -1.36707,1.36707 0,0.75189 0.61518,1.36708 1.36707,1.36708 z m 5.92402,-0.91137 1.82274,-1.82278 -1.82274,-1.82279 -1.82278,-1.82275 0,3.64554 0,3.64552 1.82278,-1.82274 z m -163.19654,-1.82278 5.52693,0 0,-4.39376 0,-4.39377 4.10124,1.57381 4.10123,1.57378 0,-7.95529 0,-7.9553 -2.48743,-1.53731 -2.48742,-1.53731 -4.33224,1.66245 -4.33227,1.66245 1.63749,2.64951 1.63748,2.6495 -5.46442,-3.41257 -5.46443,-3.41261 -3.02417,-10.09371 c -1.66327,-5.55154 -3.02413,-13.25439 -3.02413,-17.11742 0,-3.86303 1.23706,-10.48735 2.74905,-14.72064 l 2.74908,-7.69691 -5.7403,6.77222 -5.74028,6.77221 1.54666,9.63272 1.54666,9.6327 -2.32209,-3.72124 -2.32212,-3.72127 -1.18961,10.18987 -1.1896,10.18984 3.58921,3.58918 c 1.97403,1.97406 3.58917,4.90745 3.58917,6.51863 0,1.61122 1.03289,2.92946 2.29528,2.92946 1.26241,0 3.69676,3.07592 5.40971,6.83539 l 3.11439,6.83539 5.52693,0 z m 6.89402,-19.13909 c -0.7519,0 -1.36709,-0.61519 -1.36709,-1.36708 0,-0.75189 0.61519,-1.36708 1.36709,-1.36708 0.75188,0 1.36707,0.61519 1.36707,1.36708 0,0.75189 -0.61519,1.36708 -1.36707,1.36708 z m 17.51531,-3.9426 2.47748,-1.53115 -1.44044,-5.5082 c -0.79222,-3.0295 -2.73137,-6.30606 -4.30916,-7.28119 l -2.86878,-1.77299 1.83171,4.77337 c 1.00746,2.62536 1.83172,6.59093 1.83172,8.81234 l 0,4.03898 2.47747,-1.53116 z m -13.94213,-8.28875 1.53058,-1.53055 -3.39741,-3.37215 -3.39741,-3.37211 1.86683,4.90269 1.86685,4.9027 1.53056,-1.53058 z m 4.03679,-6.90773 2.59733,0 -1.43097,-5.47208 -1.43097,-5.47209 2.90984,1.79839 2.90989,1.7984 -1.76044,-6.5794 c -0.96825,-3.61865 -1.77726,-8.97861 -1.79779,-11.91099 l -0.0372,-5.3316 -2.38457,2.59745 c -1.31152,1.4286 -3.14132,7.63718 -4.06627,13.79687 l -1.68169,11.19943 1.7878,1.7878 c 0.98329,0.98329 2.95661,1.78782 4.38515,1.78782 z m 254.86888,0 c 0.75189,0 1.36708,-0.61519 1.36708,-1.36708 0,-0.75189 -0.61519,-1.36708 -1.36708,-1.36708 -0.7519,0 -1.36709,0.61519 -1.36709,1.36708 0,0.75189 0.61519,1.36708 1.36709,1.36708 z m 21.87324,-5.46831 c 0.75189,0 1.36707,-0.61519 1.36707,-1.36708 0,-0.75189 -0.61518,-1.36707 -1.36707,-1.36707 -0.7519,0 -1.36708,0.61518 -1.36708,1.36707 0,0.75189 0.61518,1.36708 1.36708,1.36708 z m 88.86002,-2.73415 3.64554,0 -1.82276,-1.82279 -1.82278,-1.82275 -1.82278,1.82275 -1.82275,1.82279 3.64553,0 z m -403.28782,-2.73416 c 0.75189,0 1.36707,-0.61518 1.36707,-1.36708 0,-0.7519 -0.61518,-1.36707 -1.36707,-1.36707 -0.75189,0 -1.36708,0.61517 -1.36708,1.36707 0,0.7519 0.61519,1.36708 1.36708,1.36708 z m 1.36707,-12.3037 c 1.5038,-0.92939 2.73416,-2.92016 2.73416,-4.42394 l 0,-2.73415 -2.73416,1.68979 c -1.50378,0.92939 -2.73415,2.92015 -2.73415,4.42394 l 0,2.73415 2.73415,-1.68979 z m 331.1675,1.36708 c 1.31967,0 2.39939,-0.5719 2.39939,-1.27089 0,-0.69898 -2.76834,-2.74597 -6.15185,-4.54887 l -6.15185,-3.27798 3.75246,4.54887 c 2.06388,2.50189 4.83221,4.54887 6.15185,4.54887 z m -14.52771,-8.24432 c 0.4647,0.0219 0.0845,-1.18852 -0.84491,-2.6923 -0.92939,-1.50378 -3.15516,-2.71531 -4.94614,-2.6923 l -3.25633,0.0418 4.10124,2.65041 c 2.25568,1.45774 4.48144,2.66927 4.94614,2.6923 z m -312.53855,-2.6923 c 0.7519,0 1.36707,-0.61519 1.36707,-1.36707 0,-0.7519 -0.61517,-1.36708 -1.36707,-1.36708 -0.7519,0 -1.36708,0.61518 -1.36708,1.36708 0,0.75188 0.61518,1.36707 1.36708,1.36707 z m 19.13908,0 c 0.5744,0 1.80477,-1.23037 2.73415,-2.73415 l 1.68979,-2.73416 -4.42394,0 -4.42395,0 1.68979,2.73416 c 0.9294,1.50378 2.15977,2.73415 2.73416,2.73415 z m 85.86441,-4.29547 c 0.69518,-0.69518 -0.17143,-2.6994 -1.92585,-4.45383 l -3.18987,-3.18985 -2.01698,2.01701 -2.01701,2.01701 3.94287,2.43682 c 2.16857,1.34026 4.51165,1.86803 5.20684,1.17284 z m 8.67818,-5.76173 2.7817,-2.78171 -2.67583,-6.56776 c -1.47169,-3.61229 -3.46071,-10.19473 -4.41999,-14.62768 l -1.74417,-8.05985 -2.50443,3.95862 -2.5044,3.95865 -0.0418,-6.15185 -0.0418,-6.15185 2.56226,0 2.56226,0 -1.55291,-9.56954 -1.55292,-9.56955 3.00606,0 3.0061,0 -1.57378,-4.10122 -1.57381,-4.10124 3.02668,0 3.02668,0 0.41065,4.78477 0.41066,4.78477 1.72025,-12.30369 1.72025,-12.3037 -2.56185,-3.53357 -2.56187,-3.53356 3.16511,-3.16512 c 1.74081,-1.7408 3.16511,-4.22202 3.16511,-5.5138 l 0,-2.34867 -2.73415,1.68979 -2.73416,1.68979 0,-2.73415 c 0,-1.50378 1.31426,-3.54639 2.92054,-4.53914 l 2.92057,-1.805 -1.33982,-3.49152 -1.33981,-3.49149 3.18118,-3.18118 3.18117,-3.18117 -4.07838,-2.57844 -4.07837,-2.57842 2.59744,-0.0418 2.59745,-0.0418 -2.88287,-2.88286 -2.88286,-2.88287 -8.60058,-1.08846 -8.60059,-1.08847 0,2.60426 0,2.60425 5.46831,0 5.46831,0 0,3.90279 0,3.90278 -7.20411,5.66676 c -3.96226,3.11672 -8.88374,5.66675 -10.93662,5.66675 l -3.7325,0 0,3.5544 0,3.5544 7.51892,0.0618 7.51893,0.0618 2.00875,-2.93273 2.00873,-2.93273 0.0418,4.59461 0.0418,4.5946 -6.08342,0.8737 -6.08341,0.8737 -3.30958,6.66306 -3.30959,6.66305 4.60823,3.39475 4.60822,3.39476 -4.85454,1.88164 -4.85458,1.88165 2.57145,3.0984 c 1.41429,1.70411 2.67605,4.02117 2.80393,5.14901 0.12796,1.12784 0.2324,3.35361 0.2324,4.94614 l 0,2.8955 2.73415,-1.68979 2.73417,-1.68982 0,2.89553 c 1.8e-4,1.59253 -1.08669,2.89552 -2.41509,2.89552 l -2.41527,0 -1.35743,5.19082 -1.35742,5.19082 3.7692,14.53066 3.76923,14.53067 4.10469,4.10473 4.10474,4.10471 0.17335,-4.00357 0.17334,-4.00359 2.6442,6.61534 2.6442,6.61531 2.7817,-2.7817 z m -6.76482,-15.29068 -1.65189,1.65187 0.216,-5.24045 0.21572,-5.24047 1.43603,3.58858 1.43604,3.58857 -1.65187,1.6519 z m -4.79617,-47.15279 -1.41266,1.41264 -1.82274,-1.82277 c -1.00254,-1.00251 -1.82279,-3.09413 -1.82279,-4.64807 l 0,-2.82528 3.23541,3.23541 3.23544,3.23543 -1.41266,1.41264 z m 4.51136,-9.52397 c -0.7519,0 -1.36708,-0.61519 -1.36708,-1.36707 0,-0.7519 0.61518,-1.36709 1.36708,-1.36709 0.75189,0 1.36707,0.61519 1.36707,1.36709 0,0.75188 -0.61518,1.36707 -1.36707,1.36707 z m -11.09799,-10.93662 c -0.66315,0 -1.20571,-1.23037 -1.20571,-2.73415 l 0,-2.73416 2.89553,0 2.89549,0 -1.68979,2.73416 c -0.9294,1.50378 -2.23238,2.73415 -2.89552,2.73415 z m -89.02138,82.02464 c 1.50379,0 3.49455,-1.23037 4.42395,-2.73415 l 1.68979,-2.73415 -2.73416,0 c -1.50378,0 -3.49455,1.23037 -4.42394,2.73415 l -1.68979,2.73415 2.73415,0 z m 86.44859,-2.73415 c 0.75189,0 1.36708,-0.61519 1.36708,-1.36708 0,-0.75189 -0.61519,-1.36707 -1.36708,-1.36707 -0.75189,0 -1.36707,0.61518 -1.36707,1.36707 0,0.75189 0.61518,1.36708 1.36707,1.36708 z m 35.77606,0 c 0.7301,0 -0.008,-2.49519 -1.64011,-5.54489 l -2.96754,-5.5449 -2.59695,1.60503 -2.59699,1.60501 0,-6.99673 0,-6.99676 -2.49339,0 -2.4934,0 0.77141,7.0273 0.77139,7.02729 3.08907,3.08908 3.08907,3.08908 0.0831,-3.96453 0.0831,-3.96452 2.78687,4.78477 c 1.53277,2.63162 3.3842,4.78477 4.11427,4.78477 z M 256.1901,521.9377 c 0.66314,0 1.20571,-1.23037 1.20571,-2.73415 l 0,-2.73417 -2.89553,0 -2.89549,0 1.68979,2.73417 c 0.92939,1.50378 2.23238,2.73415 2.89552,2.73415 z m 363.48121,0 c 0.75189,0 1.36708,-0.61518 1.36708,-1.36708 0,-0.7519 -0.61519,-1.36707 -1.36708,-1.36707 -0.75189,0 -1.36708,0.61517 -1.36708,1.36707 0,0.7519 0.61519,1.36708 1.36708,1.36708 z m -345.87057,-2.73415 c 1.50378,0 2.73415,-1.15776 2.73415,-2.57279 0,-1.41504 -1.23037,-3.33321 -2.73415,-4.2626 l -2.73415,-1.68979 0,4.26257 0,4.26261 2.73415,0 z m 170.88467,0 c 0.75189,0 1.36708,-0.61519 1.36708,-1.36708 0,-0.7519 -0.61519,-1.36709 -1.36708,-1.36709 -0.75189,0 -1.36708,0.61519 -1.36708,1.36709 0,0.75189 0.61519,1.36708 1.36708,1.36708 z m -276.14963,-2.73417 c 0.75189,0 1.36708,-0.61517 1.36708,-1.36707 0,-0.75189 -0.61519,-1.36708 -1.36708,-1.36708 -0.75189,0 -1.36708,0.61519 -1.36708,1.36708 0,0.7519 0.61519,1.36707 1.36708,1.36707 z m 99.4142,-3.63737 0.98459,-2.27028 -7.43605,-7.76159 -7.43609,-7.76158 -6.53577,-1.64038 -6.53578,-1.64036 -0.216,-4.73268 -0.21572,-4.73269 -1.37908,3.41769 -1.37909,3.4177 -3.56957,0 -3.56961,0 0.37975,-4.4905 0.37975,-4.49048 -3.85338,-1.3509 -3.85338,-1.35089 1.80946,5.15785 1.8095,5.15784 -3.43492,-4.38689 c -1.88917,-2.41281 -6.19849,-5.26404 -9.57624,-6.3361 l -6.14135,-1.94921 0,2.9184 0,2.91842 -8.11664,0 -8.11667,0 1.49332,-3.89155 1.49333,-3.89155 -5.50062,-2.94384 -5.50063,-2.94384 -8.83791,0 -8.83788,0 2.01572,2.01576 c 1.10868,1.10865 4.08207,2.03142 6.60756,2.05062 l 4.59179,0.0347 0.16022,6.83538 c 0.088,3.75946 1.14963,9.00691 2.35881,11.661 l 2.19856,4.82565 -1.32869,5.08082 -1.32866,5.08086 5.12171,-1.33935 5.12169,-1.33936 0,-3.84097 0,-3.84097 6.4198,-2.92504 6.41979,-2.92506 13.40283,4.54857 c 7.37156,2.50169 15.24838,6.07551 17.50405,7.94178 2.25568,1.86629 5.33161,3.29642 6.83539,3.17802 1.50379,-0.11838 4.27213,-1.19176 6.15186,-2.38533 l 3.41769,-2.1701 0,6.81513 0,6.81516 7.51892,0.86513 7.51893,0.86515 0.98462,-2.27031 z m -69.3385,-26.97134 -8.20246,-0.10144 4.8368,-1.26042 c 2.66025,-0.69322 6.35136,-0.64764 8.20246,0.10143 l 3.36566,1.36175 -8.20246,-0.10144 z m 410.57892,29.69734 1.82274,-1.82278 -1.82274,-1.82277 -1.82278,-1.82276 0,3.64553 0,3.64554 1.82278,-1.82276 z m 18.68338,-1.82278 c 0.75188,0 1.36707,-0.61519 1.36707,-1.36707 0,-0.7519 -0.61519,-1.36708 -1.36707,-1.36708 -0.7519,0 -1.36709,0.61518 -1.36709,1.36708 0,0.75188 0.61519,1.36707 1.36709,1.36707 z m -451.13553,-2.73415 c 0.75188,0 1.36707,-0.61519 1.36707,-1.36708 0,-0.75189 -0.61519,-1.36708 -1.36707,-1.36708 -0.7519,0 -1.36708,0.61519 -1.36708,1.36708 0,0.75189 0.61518,1.36708 1.36708,1.36708 z m 276.60533,-6.37969 1.82274,-1.82278 -1.82274,-1.82278 -1.82279,-1.82274 0,3.64552 0,3.64554 1.82279,-1.82276 z m -289.75845,-7.97462 c 0.68769,-2.63163 0.68769,-6.93792 0,-9.56955 l -1.25042,-4.78477 0,9.56955 0,9.56954 1.25042,-4.78477 z m 297.24196,-3.6877 2.9974,-8.47245 3.41769,1.18136 3.41769,1.18141 0.0418,-5.01264 0.0418,-5.01261 2.41703,3.81724 2.41704,3.81721 7.38649,-7.38649 7.38648,-7.38647 -1.88561,-10.0512 c -1.03701,-5.52813 -3.04998,-12.22697 -4.47319,-14.88627 -1.42324,-2.65932 -3.84736,-4.8351 -5.387,-4.8351 l -2.79931,0 1.88912,3.05664 c 1.039,1.68116 2.86126,7.3671 4.04947,12.63543 l 2.16036,9.57882 -1.44648,3.76949 -1.4465,3.76947 -4.72008,0 -4.7201,0 -9.75145,-9.75144 -9.75144,-9.75145 -1.83012,2.96115 c -1.00654,1.62865 -2.38417,6.0168 -3.0614,9.75147 l -1.23129,6.79027 2.62546,0 2.62547,0 -3.92222,7.51893 c -2.15725,4.13541 -3.92982,8.47005 -3.9391,9.63256 l -0.0164,2.11366 7.41317,-4.84782 7.41319,-4.84779 -2.12135,3.44217 -2.12137,3.44216 1.96386,6.12738 1.96383,6.12738 2.99742,-8.47247 z m -2.01521,-12.94507 -1.82278,1.82275 0,-3.64552 0,-3.64554 1.82278,1.82275 1.82276,1.82279 -1.82276,1.82277 z m -255.0548,17.31631 c 0.7519,0 2.12748,-1.23038 3.05686,-2.73416 0.9294,-1.50378 1.07461,-2.73415 0.32272,-2.73415 -0.7519,0 -2.12748,1.23037 -3.05687,2.73415 -0.92939,1.50378 -1.07461,2.73416 -0.32271,2.73416 z M 666.15194,491.862 c 0.75189,0 1.36708,-0.61519 1.36708,-1.36708 0,-0.75189 -0.61519,-1.36708 -1.36708,-1.36708 -0.75189,0 -1.36708,0.61519 -1.36708,1.36708 0,0.75189 0.61519,1.36708 1.36708,1.36708 z m -352.27046,-6.35951 c 0.74774,-0.74774 -0.53305,-4.85181 -2.84621,-9.12016 l -4.20573,-7.76065 -0.10936,3.59743 c -0.0602,1.9786 1.22058,6.08268 2.8462,9.12019 1.62562,3.03751 3.56747,4.91092 4.3152,4.16319 z m 21.89344,-2.75434 1.82275,-1.82277 -1.82275,-1.82278 -1.82278,-1.82276 0,3.64554 0,3.64553 1.82278,-1.82276 z m 282.52931,-1.82277 c 1.45775,-2.25568 2.65041,-5.33161 2.65041,-6.83539 l 0,-2.73415 -2.65041,4.10122 c -1.45774,2.25568 -2.6504,5.33161 -2.6504,6.83539 l 0,2.73416 2.6504,-4.10123 z m 15.03785,2.73415 c 0.7519,0 1.36708,-0.61518 1.36708,-1.36708 0,-0.75188 -0.61518,-1.36707 -1.36708,-1.36707 -0.75189,0 -1.36708,0.61519 -1.36708,1.36707 0,0.7519 0.61519,1.36708 1.36708,1.36708 z m -467.54046,-2.73415 c 0.7519,0 1.36708,-0.61519 1.36708,-1.36708 0,-0.7519 -0.61518,-1.36707 -1.36708,-1.36707 -0.75189,0 -1.36707,0.61517 -1.36707,1.36707 0,0.75189 0.61518,1.36708 1.36707,1.36708 z m 421.57145,-2.89583 1.05541,-4.26287 -5.50823,-12.14205 -5.50825,-12.14204 -0.0602,6.23967 -0.0602,6.23968 4.51286,10.16526 4.51287,10.16525 1.05543,-4.2629 z m 23.00083,-4.4851 3.00629,-3.00629 0.4114,-7.07779 0.41141,-7.07778 3.80903,-1.46373 c 2.09497,-0.80507 4.28254,-0.99022 4.86128,-0.41152 0.57871,0.57874 -0.20889,4.36913 -1.75016,8.42309 l -2.80237,7.37084 2.49234,-1.54037 2.49237,-1.54037 1.27278,3.43474 1.27278,3.43472 4.75767,-4.52749 4.75765,-4.52748 -4.22027,-8.45975 -4.22028,-8.45975 2.52458,0 2.5246,0 0,-4.10123 c 0,-2.25568 -0.51456,-4.10123 -1.14344,-4.10123 -0.62891,0 -3.08257,0.7441 -5.45262,1.65356 l -4.30914,1.65358 1.3279,2.14859 1.32789,2.14858 -6.89903,4.52043 -6.89904,4.52041 1.61556,2.61404 1.61555,2.61404 -2.89549,0 -2.89552,0 0,7.38222 0,7.38222 3.00628,-3.00628 z M 297.04106,467.2546 c 0.75188,0 1.36707,-0.61518 1.36707,-1.36707 0,-0.7519 -0.61519,-1.36708 -1.36707,-1.36708 -0.7519,0 -1.36709,0.61518 -1.36709,1.36708 0,0.75189 0.61519,1.36707 1.36709,1.36707 z m -4.36749,-9.75899 c 0.7193,-0.7193 -0.90957,-3.43166 -3.61975,-6.0275 l -4.92757,-4.71967 3.61974,6.0275 c 1.99088,3.31513 4.20828,5.43897 4.92758,4.71967 z m 326.99774,1.55653 c 0.75189,0 1.36708,-0.61519 1.36708,-1.36707 0,-0.7519 -0.61519,-1.36709 -1.36708,-1.36709 -0.75189,0 -1.36708,0.61519 -1.36708,1.36709 0,0.75188 0.61519,1.36707 1.36708,1.36707 z m -319.73474,-5.46831 c 0.66315,0 1.20571,-1.23037 1.20571,-2.73415 l 0,-2.73416 -2.89552,0 -2.8955,0 1.6898,2.73416 c 0.92939,1.50378 2.23237,2.73415 2.89551,2.73415 z m 6.67402,0 c 1.50379,0 2.73415,-0.54256 2.73415,-1.20571 0,-0.66314 -1.23036,-1.96613 -2.73415,-2.89553 l -2.73415,-1.68979 0,2.8955 0,2.89553 2.73415,0 z m 149.01144,-5.46831 c 0.75189,0 1.36707,-0.61518 1.36707,-1.36708 0,-0.75189 -0.61518,-1.36707 -1.36707,-1.36707 -0.7519,0 -1.36708,0.61518 -1.36708,1.36707 0,0.7519 0.61518,1.36708 1.36708,1.36708 z m -144.9102,-2.73415 c 0.75189,0 1.36708,-0.61519 1.36708,-1.36708 0,-0.75189 -0.61519,-1.36708 -1.36708,-1.36708 -0.7519,0 -1.36709,0.61519 -1.36709,1.36708 0,0.75189 0.61519,1.36708 1.36709,1.36708 z m 355.83659,0 c 1.43611,0 4.13877,-1.52768 6.00593,-3.39484 l 3.39483,-3.39483 2.31462,3.7451 2.31461,3.74514 3.08445,-1.90628 3.08443,-1.90631 -1.81277,-3.22876 -1.8128,-3.22877 3.68211,3.41769 3.68209,3.4177 8.79908,0 c 4.83951,0 10.74529,-0.74684 13.12395,-1.65961 l 4.32485,-1.6596 0,-10.77987 0,-10.77987 -4.00009,-7.73536 -4.00012,-7.73536 -4.20234,-1.61257 -4.20238,-1.61262 -4.10123,1.57379 -4.10123,1.5738 0,3.80871 0,3.80871 -2.89552,0 -2.8955,0 1.87082,-3.02707 1.87084,-3.02709 -6.49424,1.84331 c -3.57185,1.01383 -9.87777,3.14048 -14.01318,4.72588 l -7.51892,2.88253 0,3.5417 0,3.54165 -3.36339,1.12114 -3.36337,1.12111 3.44793,6.62566 3.44796,6.62564 -1.43814,-4.97315 -1.43811,-4.97318 6.13832,0.87195 6.13834,0.87192 0.17334,4.10123 c 0.0954,2.25568 -1.63333,6.25438 -3.84145,8.88601 l -4.01484,4.78477 2.6111,0 z m 32.18543,-8.20246 -5.96967,0 -1.64861,-6.15186 c -0.90676,-3.38351 -1.66546,-8.92017 -1.686,-12.3037 l -0.0372,-6.15184 2.91841,0 2.91841,0 -1.68189,6.15184 -1.68189,6.15186 3.01269,-4.80643 3.01268,-4.80642 -1.55964,-2.52358 -1.55964,-2.52356 2.77875,-1.71738 2.77874,-1.71736 0.40966,9.04736 0.40966,9.04737 1.15548,-7.68935 1.15545,-7.68934 3.90321,3.23937 3.90317,3.23934 0,7.32084 0,7.32086 -3.28099,3.28099 -3.28099,3.28099 -5.96967,0 z m -21.52269,-2.73417 c -0.49753,0 -1.65145,-1.94617 -2.56422,-4.32485 -0.9128,-2.37866 -1.65962,-4.8394 -1.65962,-5.46831 0,-0.62888 0.96856,-1.14345 2.15234,-1.14345 l 2.1523,0 0.41192,5.4683 c 0.22666,3.00758 0.005,5.46831 -0.49272,5.46831 z m -8.32506,-16.40492 c -0.7519,0 -1.36708,-0.61519 -1.36708,-1.36708 0,-0.75189 0.61518,-1.36708 1.36708,-1.36708 0.75188,0 1.36707,0.61519 1.36707,1.36708 0,0.75189 -0.61519,1.36708 -1.36707,1.36708 z m 8.20246,-5.46831 c -0.7519,0 -1.36708,-0.61519 -1.36708,-1.36708 0,-0.75189 0.61518,-1.36707 1.36708,-1.36707 0.7519,0 1.36708,0.61518 1.36708,1.36707 0,0.75189 -0.61518,1.36708 -1.36708,1.36708 z m -23.24031,27.34155 3.64552,0 -1.82274,-1.82278 -1.82278,-1.82276 -1.82279,1.82276 -1.82274,1.82278 3.64553,0 z m -375.94628,-2.73415 c 0.75189,0 1.36708,-0.61519 1.36708,-1.36709 0,-0.75189 -0.61519,-1.36708 -1.36708,-1.36708 -0.75189,0 -1.36708,0.61519 -1.36708,1.36708 0,0.7519 0.61519,1.36709 1.36708,1.36709 z m 317.29772,0 c 0.82657,0 5.16901,-1.89585 9.64985,-4.21299 l 8.14699,-4.21294 3.1185,1.92732 3.11849,1.92734 -2.21842,-5.23331 c -1.22011,-2.8783 -2.80143,-8.63186 -3.51404,-12.78568 -0.71257,-4.1538 -2.13526,-8.07133 -3.16153,-8.70559 -1.02626,-0.63424 -3.65274,-0.005 -5.83663,1.40054 l -3.97067,2.55376 3.63664,2.34729 3.63662,2.34728 -0.90246,7.9058 -0.9025,7.90579 -6.15184,0.8737 -6.15185,0.87369 0,2.544 c 0,1.3992 0.6763,2.544 1.50285,2.544 z m 27.20578,0 c 0.75189,0 1.36707,-0.61519 1.36707,-1.36709 0,-0.75189 -0.61518,-1.36708 -1.36707,-1.36708 -0.7519,0 -1.36708,0.61519 -1.36708,1.36708 0,0.7519 0.61518,1.36709 1.36708,1.36709 z m -321.94672,-5.84066 c 0.37594,0.20479 0.68353,-0.71459 0.68353,-2.04307 l 0,-2.41543 -6.83538,-1.30665 -6.83539,-1.30668 0,2.16485 0,2.16485 6.15185,1.1849 c 3.38352,0.65168 6.45944,1.35245 6.83539,1.55723 z m 287.58552,0.37234 2.91841,0 0,-3.2024 c 0,-1.76132 2.04307,-5.45997 4.54018,-8.21923 l 4.54015,-5.01681 -1.8711,-1.87113 -1.87112,-1.87109 -3.7427,3.93847 c -2.05846,2.16619 -4.57281,6.70683 -5.58743,10.09034 l -1.84479,6.15185 2.9184,0 z M 324.3826,418.03982 c 0.75189,0 1.36708,-0.61519 1.36708,-1.36708 0,-0.75189 -0.61519,-1.36708 -1.36708,-1.36708 -0.75189,0 -1.36708,0.61519 -1.36708,1.36708 0,0.75189 0.61519,1.36708 1.36708,1.36708 z m -45.11355,-2.73416 3.64553,0 -1.82276,-1.82278 -1.82277,-1.82274 -1.82278,1.82274 -1.82276,1.82278 3.64554,0 z m 8.20246,-4.10123 c 1.50378,-0.92939 2.73416,-2.92015 2.73416,-4.42395 l 0,-2.73415 -2.73416,1.68979 c -1.50378,0.92939 -2.73415,2.92016 -2.73415,4.42394 l 0,2.73416 2.73415,-1.68979 z m 351.79458,0.45571 1.82276,-1.82278 -1.82276,-1.82279 -1.82277,-1.82275 0,3.64554 0,3.64552 1.82277,-1.82274 z m -339.49088,-7.29109 c 0.75189,0 1.36707,-0.61519 1.36707,-1.36708 0,-0.75189 -0.61518,-1.36708 -1.36707,-1.36708 -0.7519,0 -1.36708,0.61519 -1.36708,1.36708 0,0.75189 0.61518,1.36708 1.36708,1.36708 z m 10.70878,-2.95002 5.24044,0.21572 -1.65186,-1.65187 -1.6519,-1.65188 -3.58858,1.43602 -3.58857,1.43603 5.24047,0.21574 z m 240.83345,-7.98661 c 0.7519,0 1.36708,-0.61518 1.36708,-1.36707 0,-0.7519 -0.61518,-1.36708 -1.36708,-1.36708 -0.75189,0 -1.36708,0.61518 -1.36708,1.36708 0,0.75189 0.61519,1.36707 1.36708,1.36707 z m 64.93617,-12.78608 c 1.12785,-0.66407 2.05062,-3.4449 2.05062,-6.17957 l 0,-4.97217 -4.61314,-3.75249 -4.61315,-3.75247 1.84766,4.92679 1.84769,4.92678 -2.70283,-1.67046 c -1.48655,-0.91872 -2.70284,-3.37077 -2.70284,-5.44895 0,-2.07817 -1.11562,-4.46802 -2.47918,-5.31071 l -2.47916,-1.53222 1.60645,6.15562 1.60645,6.15562 -4.79089,-4.78477 -4.7909,-4.78477 -4.58947,-0.32378 c -2.5242,-0.17799 -5.51225,-0.17799 -6.64008,0 l -2.05062,0.32378 0,-4.3627 0,-4.3627 -5.8045,-8.15163 -5.80447,-8.15167 -2.93457,2.93457 -2.93457,2.93457 5.32138,4.02451 5.32135,4.02451 -2.5732,0.087 -2.57319,0.087 5.30734,4.01429 5.30736,4.01428 -2.44986,0.087 -2.44989,0.087 7.42362,6.87995 7.4236,6.87995 2.83812,-1.75404 2.8381,-1.75405 -2.02338,6.49425 -2.02336,6.49425 6.30166,-5.46832 6.30168,-5.4683 -2.01272,3.4408 -2.01273,3.44082 6.32752,2.39001 c 3.48012,1.3145 7.25027,1.84667 8.3781,1.1826 z m -30.36822,-1.10055 c 0.96696,0.11867 2.46629,-1.6297 3.3319,-3.88537 l 1.57378,-4.10123 -4.01542,0 -4.01543,0 0,-2.92432 0,-2.92432 -5.93768,0.8737 -5.93769,0.8737 -1.03441,3.14428 -1.0344,3.14428 7.65562,2.79171 c 4.2106,1.53545 8.44679,2.88885 9.41373,3.00757 z m 40.6213,0.21573 c 1.50379,0 2.73416,-0.54257 2.73416,-1.20571 0,-0.66315 -1.23037,-1.96613 -2.73416,-2.89553 l -2.73415,-1.68979 0,2.8955 0,2.89553 2.73415,0 z m -61.51848,-5.46831 c 0.7519,0 1.36709,-0.61519 1.36709,-1.36708 0,-0.75189 -0.61519,-1.36708 -1.36709,-1.36708 -0.75188,0 -1.36707,0.61519 -1.36707,1.36708 0,0.75189 0.61519,1.36708 1.36707,1.36708 z m 65.38037,-3.64554 4.26134,0 1.55817,-4.90933 1.55817,-4.90937 -2.63239,-4.91864 c -1.44779,-2.70525 -5.23423,-7.27329 -8.41431,-10.1512 l -5.78191,-5.23257 4.01827,9.61712 4.01831,9.61714 -1.42348,5.44343 -1.42348,5.44342 4.26131,0 z m -7.96311,-1.82278 c 0.75189,0 1.36707,-0.61517 1.36707,-1.36707 0,-0.7519 -0.61518,-1.36708 -1.36707,-1.36708 -0.7519,0 -1.36708,0.61518 -1.36708,1.36708 0,0.7519 0.61518,1.36707 1.36708,1.36707 z m 1.82277,-5.46831 c 1.25315,0 2.23933,-0.92277 2.19151,-2.05061 -0.0479,-1.12784 -1.8934,-4.43893 -4.10123,-7.35797 l -4.01429,-5.30734 0,5.53518 c 0,3.04438 0.82025,6.35546 1.82278,7.35797 1.00251,1.00253 2.84806,1.82277 4.10123,1.82277 z m -12.7594,-2.73415 c 0.7519,0 1.36708,-0.61519 1.36708,-1.36707 0,-0.7519 -0.61518,-1.36708 -1.36708,-1.36708 -0.75188,0 -1.36707,0.61518 -1.36707,1.36708 0,0.75188 0.61519,1.36707 1.36707,1.36707 z m 0.45571,-11.84799 1.82275,-1.82278 -1.82275,-1.82278 -1.82278,-1.82275 0,3.64553 0,3.64553 1.82278,-1.82275 z m -260.2004,-4.55694 c 0.75189,0 1.36708,-0.61518 1.36708,-1.36708 0,-0.75188 -0.61519,-1.36707 -1.36708,-1.36707 -0.7519,0 -1.36708,0.61519 -1.36708,1.36707 0,0.7519 0.61518,1.36708 1.36708,1.36708 z m -1.78224,-7.89484 c 2.48401,-1.28243 6.40589,-2.02382 8.71526,-1.64757 l 4.1989,0.6841 0,-5.20806 0,-5.20811 -3.73896,1.43478 c -2.05644,0.78913 -5.34041,1.43477 -7.29771,1.43477 l -3.55872,0 -1.41758,5.42087 -1.4176,5.42087 4.51641,-2.33165 z m -12.74482,-3.66774 c 1.78677,-0.59557 3.73568,-2.54393 4.33093,-4.32969 l 1.08229,-3.24681 -2.6695,0 c -1.46821,0 -3.41712,1.94836 -4.33093,4.3297 l -1.66146,4.3297 3.24867,-1.0829 z m 38.42991,0.62597 c 1.54642,0 5.7677,-3.18967 9.3807,-7.08814 l 6.56905,-7.08813 4.68109,1.78182 4.68109,1.7818 -3.08136,-3.10666 -3.0814,-3.10666 -11.95646,3.43774 c -6.57607,1.89075 -12.29302,3.65494 -12.70438,3.92042 -0.41133,0.26549 0.0279,2.50432 0.97606,4.97524 l 1.72397,4.49257 2.81164,0 z m 18.15383,-2.73416 c 1.50378,0 3.49455,-1.23037 4.42395,-2.73416 l 1.68979,-2.73415 -2.73416,0 c -1.50378,0 -3.49455,1.23037 -4.42394,2.73415 l -1.68979,2.73416 2.73415,0 z m -84.43609,-9.56954 c 1.5038,-0.9294 2.73417,-2.92016 2.73417,-4.42394 l 0,-2.73416 -2.73417,1.68979 c -1.50378,0.9294 -2.73415,2.92015 -2.73415,4.42395 l 0,2.73415 2.73415,-1.68979 z m 269.31425,1.36707 c 0.75189,0 1.36708,-0.61518 1.36708,-1.36707 0,-0.7519 -0.61519,-1.36708 -1.36708,-1.36708 -0.75189,0 -1.36708,0.61518 -1.36708,1.36708 0,0.75189 0.61519,1.36707 1.36708,1.36707 z m 28.10596,-1.22011 1.48052,-1.48052 -4.96392,-5.48507 -4.96393,-5.48507 -3.90531,0 -3.90533,0 0.97976,2.93922 c 0.53884,1.61657 1.91569,2.803 3.05963,2.63652 1.14397,-0.16652 4.02801,1.64535 6.40899,4.02634 l 4.3291,4.32909 1.48049,-1.48051 z m -200.45389,-4.2482 4.00501,0 2.92656,-5.4683 c 1.60959,-3.00757 2.18718,-5.46831 1.28352,-5.46831 -0.90367,0 -4.02287,1.27365 -6.93157,2.83034 -2.90871,1.55672 -5.28857,4.01743 -5.28857,5.46831 l 0,2.63796 4.00505,0 z m 179.18331,0 c 1.50379,0 2.73416,-1.23037 2.73416,-2.73415 0,-1.50378 -1.23037,-2.73415 -2.73416,-2.73415 -1.50378,0 -2.73415,1.23037 -2.73415,2.73415 0,1.50378 1.23037,2.73415 2.73415,2.73415 z m -165.41635,-5.4683 c 0.75189,0 1.36707,-0.61519 1.36707,-1.36708 0,-0.75189 -0.61518,-1.36708 -1.36707,-1.36708 -0.7519,0 -1.36708,0.61519 -1.36708,1.36708 0,0.75189 0.61518,1.36708 1.36708,1.36708 z m -138.36735,-5.46831 c 1.34291,0 3.21663,-2.01959 4.16382,-4.48795 l 1.72219,-4.48798 -4.16382,3.45567 c -2.2901,1.90062 -4.16381,3.9202 -4.16381,4.48795 0,0.56777 1.09874,1.03231 2.44162,1.03231 z m 298.3154,0 c 1.50378,0 2.73415,-1.23037 2.73415,-2.73416 0,-1.50378 -1.23037,-2.73415 -2.73415,-2.73415 -1.50379,0 -2.73416,1.23037 -2.73416,2.73415 0,1.50379 1.23037,2.73416 2.73416,2.73416 z M 407.45161,292.26857 c 1.50378,0 3.49455,-1.23037 4.42395,-2.73416 l 1.68978,-2.73416 -2.73416,0 c -1.50378,0 -3.49455,1.23037 -4.42394,2.73416 l -1.68979,2.73416 2.73416,0 z m -54.52175,-10.93663 5.62968,0 0,-2.73415 0,-2.73416 -3.93987,0 c -2.16693,0 -4.70028,1.23037 -5.62968,2.73416 l -1.68979,2.73415 5.62966,0 z m 31.44277,-2.73415 c 2.16693,0 4.62937,-1.11562 5.47208,-2.47917 l 1.53222,-2.47916 -5.47208,1.43097 c -3.00965,0.78703 -5.47208,1.90267 -5.47208,2.47917 0,0.57649 1.77293,1.04819 3.93986,1.04819 z m 23.40169,0 c 1.50378,0 2.73415,-0.54256 2.73415,-1.20571 0,-0.66314 -1.23037,-1.96612 -2.73415,-2.89552 l -2.73415,-1.68979 0,2.89549 0,2.89553 2.73415,0 z m -35.87878,-2.73416 c 1.31964,0 3.93102,-1.84555 5.80308,-4.10122 1.87205,-2.25568 2.7385,-4.10124 1.92547,-4.10124 -0.81303,0 -3.42442,0.74681 -5.80307,1.6596 -2.3787,0.91277 -4.32487,2.75833 -4.32487,4.10124 0,1.34291 1.07972,2.44162 2.39939,2.44162 z m 26.0814,-0.21572 5.24044,0.21572 -1.65186,-1.65189 -1.6519,-1.65187 -3.58858,1.43604 -3.58857,1.436 5.24047,0.21572 z m 19.36692,749.37429 c -0.75189,0 -1.36708,-0.6153 -1.36708,-1.3672 0,-0.7518 0.61519,-1.3671 1.36708,-1.3671 0.75189,0 1.36708,0.6153 1.36708,1.3671 0,0.7519 -0.61519,1.3672 -1.36708,1.3672 z m 65.61971,-10.9367 c -0.75189,0 -1.36707,-0.6152 -1.36707,-1.3671 0,-0.7519 0.61518,-1.3671 1.36707,-1.3671 0.7519,0 1.36708,0.6152 1.36708,1.3671 0,0.7519 -0.61518,1.3671 -1.36708,1.3671 z M 81.498531,769.8344 l -1.822778,1.82275 0,-3.64552 0,-3.64554 1.822778,1.82276 1.822752,1.82278 -1.822752,1.82277 z"
       style="fill:#000000;fill-opacity:1" />
  </g>
</svg>
