<?xml version="1.0" encoding="UTF-8" standalone="no"?>
<!-- Created with Inkscape (http://www.inkscape.org/) -->

<svg
   xmlns:dc="http://purl.org/dc/elements/1.1/"
   xmlns:cc="http://creativecommons.org/ns#"
   xmlns:rdf="http://www.w3.org/1999/02/22-rdf-syntax-ns#"
   xmlns:svg="http://www.w3.org/2000/svg"
   xmlns="http://www.w3.org/2000/svg"
   xmlns:sodipodi="http://sodipodi.sourceforge.net/DTD/sodipodi-0.dtd"
   xmlns:inkscape="http://www.inkscape.org/namespaces/inkscape"
   id="svg5918"
   version="1.1"
   inkscape:version="0.48.5 r10040"
   width="800"
   height="800"
   sodipodi:docname="infinitedrop_blank.svg"
   inkscape:export-filename="/Users/Skyset/Documents/solarflystudios.github.io/Assets/Logos/infinitedrop_blank.png"
   inkscape:export-xdpi="240"
   inkscape:export-ydpi="240">
  <metadata
     id="metadata5924">
    <rdf:RDF>
      <cc:Work
         rdf:about="">
        <dc:format>image/svg+xml</dc:format>
        <dc:type
           rdf:resource="http://purl.org/dc/dcmitype/StillImage" />
        <dc:title></dc:title>
      </cc:Work>
    </rdf:RDF>
  </metadata>
  <defs
     id="defs5922" />
  <sodipodi:namedview
     pagecolor="#ffffff"
     bordercolor="#666666"
     borderopacity="1"
     objecttolerance="10"
     gridtolerance="10"
     guidetolerance="10"
     inkscape:pageopacity="0"
     inkscape:pageshadow="2"
     inkscape:window-width="1280"
     inkscape:window-height="708"
     id="namedview5920"
     showgrid="false"
     inkscape:zoom="0.39333333"
     inkscape:cx="691.71481"
     inkscape:cy="458.49877"
     inkscape:window-x="0"
     inkscape:window-y="0"
     inkscape:window-maximized="1"
     inkscape:current-layer="svg5918" />
  <path
     style="fill:#ffffff;fill-opacity:1;stroke:none"
     d="m 142.5,518.09375 c -1.70671,-0.0328 -3.6287,0.93778 -5.90625,2.9375 -5.62412,4.93804 -7.0936,10.35177 -7,25.46875 0.0698,11.27049 0.41262,14.06431 2.71875,21 1.46301,4.4 3.97636,10.29196 5.59375,13.09375 5.90473,10.22866 17.83538,21.18808 31.84375,29.25 3.4375,1.97831 6.25131,3.82965 6.25,4.125 -0.001,0.29536 -2.49476,1.81963 -5.53125,3.40625 -3.03648,1.58663 -7.41448,4.58014 -9.71875,6.625 l -3.71875,3.3125 c -0.004,0.0309 -0.0312,0.0652 -0.0312,0.0937 0,0.28647 0.12003,0.72172 0.34375,1.25 l 1.6875,2.0625 c 1.35456,1.66171 3.25058,4.43693 4.1875,6.15625 0.93692,1.71931 2.37933,3.125 3.21875,3.125 0.83943,0 3.79754,-1.71978 6.5625,-3.8125 7.46127,-5.64722 13.89248,-7.70128 24,-7.65625 7.1752,0.032 9.47833,0.48942 14.78125,2.90625 8.09371,3.68876 16.30921,12.27647 18.75,19.625 2.33108,7.01822 1.64134,18.62773 -1.5,25.21875 -9.35286,19.62374 -36.08785,26.52921 -54.78125,14.15625 -7.28892,-4.82446 -10.73322,-10.06811 -14.34375,-21.84375 -5.9701,-19.47138 -14.27597,-30.93153 -27.09375,-37.4375 -8.87589,-4.50517 -15.87698,-6.125 -26.3125,-6.125 -16.120209,0 -28.659586,5.03458 -39.5625,15.9375 -12.446073,12.44607 -17.823676,28.68807 -14.65625,44.1875 8.263645,40.43718 45.41843,74.0081 87.21875,78.78125 2.89349,0.33041 4.99162,0.54598 6.8125,0.6875 2.84981,0.0506 5.7939,0.0283 8.71875,-0.0937 1.53767,-0.13849 3.22649,-0.30943 5.46875,-0.5625 45.43161,-5.12776 80.72666,-38.59173 88.03125,-83.46875 0.40604,-2.49457 0.6985,-4.86568 0.9375,-7.15625 0.0997,-1.60605 0.21761,-3.23428 0.28125,-5 0.1023,-2.8382 0.16362,-5.1266 0.1875,-7.09375 -0.33216,-7.78154 -2.00655,-14.45372 -5.09375,-20.8125 -6.52863,-13.44707 -16.77733,-21.61133 -48.2188,-38.34375 -23.03938,-12.26103 -27.79362,-15.39364 -35.3125,-23.34375 -9.73501,-10.29333 -11.66412,-16.59791 -11.75,-38.25 -0.0598,-15.07747 -0.19057,-16.18739 -2.375,-19.25 -1.47781,-2.0719 -2.98079,-3.12344 -4.6875,-3.15625 z M 105.625,642.3125 c 1.68241,-0.0458 3.35206,0.0366 5.03125,0.21875 5.98128,0.11949 8.13286,0.62722 11.46875,2.28125 10.82168,5.36571 16.36451,12.53203 19.875,25.6875 2.93385,10.99455 6.29144,16.79737 14.53125,25.09375 7.83775,7.89157 17.30465,13.20502 28.4375,16 8.35701,2.09808 21.36344,1.486 29.28125,-1.375 3.1625,-1.14273 5.75,-1.67774 5.75,-1.21875 0,1.39595 -7.39333,10.21261 -12.59375,15.03125 -9.63285,8.92567 -22.94374,16.40482 -35.59375,20 -8.37646,2.38063 -27.25364,3.41028 -35.40625,1.9375 -13.00431,-2.34925 -29.83887,-9.60879 -37.90625,-16.375 l -3,-2.53125 8,-0.0312 c 14.50742,-0.092 28.8758,-5.25429 38.5,-13.8125 l 3.71875,-3.3125 c 0.18562,-0.64857 0.19957,-1.32506 0.0312,-2.09375 L 143,702.53125 c -1.925,-3.68581 -4.0813,-6.96201 -4.78125,-7.25 -0.69995,-0.288 -3.52613,1.61041 -6.28125,4.1875 -2.75511,2.57709 -7.57382,5.86972 -10.71875,7.34375 -3.92763,1.84092 -5.96297,2.41828 -11,2.59375 -3.54715,0.46696 -7.10898,0.45423 -10.59375,-0.0625 -8.591616,-0.53137 -12.930739,-2.66571 -19.46875,-8.78125 -10.180947,-9.52309 -13.419245,-24.73352 -7.875,-36.84375 3.617633,-7.90195 10.440046,-14.85193 18,-18.34375 4.521074,-2.0882 6.516646,-2.66469 12.03125,-2.8125 1.09257,-0.12569 2.2121,-0.22005 3.3125,-0.25 z M 42.90625,753.65625 c 15.973754,17.67556 36.042194,30.82044 58.5,37.53125 C 95.412833,789.00868 89.456028,786.45321 83.5,783.5 68.145356,775.88663 54.484324,765.72124 42.90625,753.65625 z"
     id="path5959"
     inkscape:connector-curvature="0" />
  <path
     style="fill:#000000"
     d="m 399.0182,0.01028169 c -25.12238,0.12268 -49.70641,1.33699001 -50.43118,3.50906001 -0.59833,1.79317 -4.47811,3.25842 -8.61428,3.25842 -13.67441,0 -68.82917,15.3708003 -94.67346,26.4015103 C 123.87647,85.004262 34.271427,193.83489 9.451966,319.58561 c -2.4662335,12.49547 -5.5777744,27.09983 -6.9416059,32.41705 -1.3318116,5.1924 -2.45831528,25.30148 -2.50901398,45.11652 -0.002369,0.45857 0.00131,0.87699 0,1.33679 -4.2e-6,0.0281 0,0.0556 0,0.0834 0,0.11229 -9.42e-5,0.22191 0,0.3342 -0.0354943,16.56676 0.6308764,33.51747 2.00721118,38.93388 13.4422947,136.18813 95.9223057,258.04863 218.7860227,318.90708 45.23127,22.40456 90.5192,36.38592 137.8285,42.44295 3.22698,0.41307 13.74589,0.57893 26.51191,0.58484 1.62143,0.0452 3.23967,0.0508 4.85076,0.0834 3.33123,0.0676 6.54517,0.15132 9.78516,0.1671 18.6267,0.0901 35.19602,-0.67302 43.74048,-2.00518 8.88605,-0.6188 15.58947,-1.31417 18.14853,-2.17228 0.4774,-0.16015 1.59003,-0.5268 2.34175,-0.75194 37.65723,-5.67634 73.02304,-16.84289 110.64751,-34.67288 34.40101,-16.3024 75.60638,-45.34449 104.79316,-73.94096 56.46081,-55.31886 90.3298,-115.01653 110.73115,-195.00361 5.53447,-21.6989 7.57481,-30.24895 8.27974,-49.04333 0.44087,-6.12638 0.82323,-12.8614 1.08724,-20.30243 1.07863,-30.40081 0.16355,-61.28983 -1.75631,-75.69549 -1.01182,-13.02888 -3.1484,-21.26561 -7.61067,-37.51342 C 775.00058,253.64479 759.36397,218.59424 731.04439,176.29887 674.63218,92.047092 573.53657,25.718862 476.37947,9.2842117 465.33981,7.4167917 454.61006,4.6217217 452.54384,3.0180317 449.76735,0.86305169 424.14059,-0.11241831 399.0182,0.01026169 z M 378.69519,47.131982 c 4.56764,0.0877 8.59004,2.89907 12.54507,8.43845 5.84615,8.18811 6.19613,11.15556 6.35617,51.466248 0.22984,57.88841 5.39268,74.74415 31.44631,102.26411 20.12264,21.2552 32.84632,29.63044 94.50619,62.41118 84.14623,44.73532 111.57464,66.56305 129.04696,102.51476 8.26221,17.00065 12.74335,34.8392 13.63231,55.6437 -0.0639,5.25932 -0.22802,11.37752 -0.50181,18.96565 -0.17032,4.72078 -0.48588,9.07396 -0.7527,13.36785 -0.63963,6.12401 -1.42234,12.46334 -2.50901,19.13275 -19.54914,119.98192 -114.00864,209.45023 -235.59642,223.15966 -6.00092,0.6766 -10.52068,1.13362 -14.63592,1.50389 -7.82772,0.32623 -15.70693,0.3859 -23.33383,0.25051 -4.87318,-0.37836 -10.48837,-0.95471 -18.23216,-1.83808 -111.86943,-12.76136 -211.3061,-102.51561 -233.42194,-210.6273 -8.47692,-41.43883 5.91506,-84.86298 39.22425,-118.13843 29.17927,-29.14974 62.73817,-42.61005 105.88039,-42.61005 27.92839,0 46.66528,4.33073 70.41966,16.37563 34.30399,17.39417 56.53284,48.0337 72.51051,100.09183 9.66279,31.48301 18.88071,45.50228 38.38791,58.40082 50.0288,33.07999 121.57917,14.61773 146.61005,-37.84774 8.40711,-17.62157 10.25305,-48.66042 4.01443,-67.42413 -6.53225,-19.64682 -28.51924,-42.60668 -50.18028,-52.46884 -14.19211,-6.46157 -20.35594,-7.68451 -39.55879,-7.77007 -27.05057,-0.12031 -44.2623,5.37129 -64.23076,20.46953 -7.39981,5.59504 -15.31655,10.19299 -17.5631,10.19299 -2.24652,0 -6.10682,-3.75821 -8.61428,-8.35491 -2.50746,-4.59672 -7.58174,-12.01647 -11.20693,-16.45917 l -4.51622,-5.51424 c -0.59874,-1.4124 -0.91998,-2.57607 -0.91998,-3.34197 0,-0.0762 0.0723,-0.1679 0.0836,-0.25051 l 9.95246,-8.8562 c 6.16688,-5.46708 17.88364,-13.47045 26.01011,-17.71241 8.1265,-4.24195 14.80051,-8.31719 14.80318,-9.10686 0.004,-0.78964 -7.52704,-5.73933 -16.72676,-11.02848 -37.49034,-21.55412 -69.42012,-50.8549 -85.22284,-78.20196 -4.32859,-7.49079 -11.05502,-23.24336 -14.97045,-35.00708 -6.17185,-18.54305 -7.08933,-26.01254 -7.27614,-56.145 -0.2505,-40.416328 3.68224,-54.890318 18.73397,-68.092518 6.09537,-5.3464 11.23915,-7.94132 15.80679,-7.85361 z M 280.00731,379.23967 c -2.94498,0.0802 -5.94116,0.33235 -8.86519,0.66839 -14.75863,0.39519 -20.09934,1.93647 -32.19901,7.51942 -20.23257,9.33563 -38.49126,27.9169 -48.17307,49.04333 -14.83796,32.37756 -6.17136,73.04373 21.07572,98.5044 17.49756,16.35033 29.11027,22.05664 52.10386,23.47729 9.32622,1.38152 18.85868,1.41555 28.35186,0.1671 13.48051,-0.46913 18.92765,-2.01274 29.43909,-6.93457 8.41672,-3.94093 21.31295,-12.74401 28.6864,-19.63404 7.37347,-6.89004 14.93713,-11.96557 16.81039,-11.19558 1.87326,0.76996 7.64413,9.52911 12.79597,19.38339 l 7.35978,14.1198 c 0.45047,2.05515 0.41313,3.86379 -0.0836,5.59779 l -9.95242,8.8562 c -25.75707,22.88099 -64.2109,36.68274 -103.03684,36.92871 l -21.41025,0.0834 8.02884,6.76748 c 21.59058,18.08995 66.6446,37.49885 101.4478,43.77973 21.81868,3.93759 72.33933,1.18474 94.7571,-5.18004 33.85498,-9.61197 69.47867,-29.60801 95.25889,-53.47143 13.91779,-12.88298 33.70443,-36.45495 33.70443,-40.18712 0,-1.22714 -6.92488,0.20319 -15.38862,3.25842 -21.19029,7.64908 -55.99916,9.28552 -78.36487,3.67616 -29.79465,-7.47257 -55.13074,-21.67846 -76.10676,-42.77714 -22.05205,-22.18096 -31.03791,-37.69521 -38.88972,-67.08993 -9.39506,-35.17209 -24.22923,-54.33175 -53.1911,-68.67736 -8.92778,-4.42217 -14.68601,-5.77962 -30.6936,-6.09909 -4.49399,-0.48702 -8.96244,-0.70729 -13.46504,-0.58484 z"
     id="path5940"
     inkscape:connector-curvature="0" />
</svg>
