<?xml version="1.0" encoding="UTF-8" standalone="no"?>
<!-- Created with Inkscape (http://www.inkscape.org/) -->

<svg
   xmlns:dc="http://purl.org/dc/elements/1.1/"
   xmlns:cc="http://creativecommons.org/ns#"
   xmlns:rdf="http://www.w3.org/1999/02/22-rdf-syntax-ns#"
   xmlns:svg="http://www.w3.org/2000/svg"
   xmlns="http://www.w3.org/2000/svg"
   xmlns:sodipodi="http://sodipodi.sourceforge.net/DTD/sodipodi-0.dtd"
   xmlns:inkscape="http://www.inkscape.org/namespaces/inkscape"
   width="900"
   height="900"
   viewBox="0 0 900.00001 900.00001"
   id="svg2"
   version="1.1"
   inkscape:version="0.48.5 r10040"
   sodipodi:docname="skyset_blank.svg"
   inkscape:export-filename="/Users/Skyset/Documents/solarflystudios.github.io/Assets/Logos/Blank/skyset_blank.png"
   inkscape:export-xdpi="90"
   inkscape:export-ydpi="90">
  <defs
     id="defs4" />
  <sodipodi:namedview
     id="base"
     pagecolor="#ffffff"
     bordercolor="#666666"
     borderopacity="1.0"
     inkscape:pageopacity="0.0"
     inkscape:pageshadow="2"
     inkscape:zoom="0.35"
     inkscape:cx="446.13618"
     inkscape:cy="620.21553"
     inkscape:document-units="px"
     inkscape:current-layer="layer1"
     showgrid="false"
     units="px"
     inkscape:window-width="944"
     inkscape:window-height="755"
     inkscape:window-x="0"
     inkscape:window-y="0"
     inkscape:window-maximized="0" />
  <metadata
     id="metadata7">
    <rdf:RDF>
      <cc:Work
         rdf:about="">
        <dc:format>image/svg+xml</dc:format>
        <dc:type
           rdf:resource="http://purl.org/dc/dcmitype/StillImage" />
        <dc:title></dc:title>
      </cc:Work>
    </rdf:RDF>
  </metadata>
  <g
     inkscape:label="Layer 1"
     inkscape:groupmode="layer"
     id="layer1"
     transform="translate(0,-152.36216)">
    <path
       style="font-size:medium;font-style:normal;font-variant:normal;font-weight:normal;font-stretch:normal;text-indent:0;text-align:start;text-decoration:none;line-height:normal;letter-spacing:normal;word-spacing:normal;text-transform:none;direction:ltr;block-progression:tb;writing-mode:lr-tb;text-anchor:start;baseline-shift:baseline;color:#000000;fill:#000000;fill-opacity:1;fill-rule:evenodd;stroke:none;visibility:visible;display:inline;overflow:visible;enable-background:accumulate;font-family:sans-serif"
       d="m 452.03775,249.12623 a 66.954889,65.769136 0 0 0 -44.50153,17.49863 l -44.76855,40.72059 a 66.954889,65.769136 0 0 0 -1.85505,94.75428 l 45.18453,44.38156 a 66.954889,65.769136 0 0 0 94.67781,0 l 43.11025,-42.34677 a 66.954889,65.769136 0 0 0 0,-93.0011 l -43.52342,-42.75539 a 66.954889,65.769136 0 0 0 -48.32404,-19.2518 z"
       id="path4204"
       inkscape:connector-curvature="0" />
    <path
       style="font-size:medium;font-style:normal;font-variant:normal;font-weight:normal;font-stretch:normal;text-indent:0;text-align:start;text-decoration:none;line-height:normal;letter-spacing:normal;word-spacing:normal;text-transform:none;direction:ltr;block-progression:tb;writing-mode:lr-tb;text-anchor:start;baseline-shift:baseline;color:#000000;fill:#000000;fill-opacity:1;fill-rule:evenodd;stroke:none;visibility:visible;display:inline;overflow:visible;enable-background:accumulate;font-family:sans-serif"
       d="m 257.11414,443.98543 a 66.954889,65.769136 0 0 0 -46.69105,19.25456 L 29.662523,640.79934 a 66.954889,65.769136 0 0 0 0,93.00386 L 223.81318,924.51552 A 66.954889,65.769136 0 0 0 314.3846,928.182 L 584.18477,663.15991 a 40.172933,39.461481 0 0 1 27.61495,-11.93815 40.172933,39.461481 0 0 1 29.19174,67.73881 l -133.95148,131.57925 82.83923,82.19491 a 66.954889,65.769136 0 0 0 94.91673,0.23469 L 870.33748,750.71374 a 66.954889,65.769136 0 0 0 0,-93.00384 L 682.88186,473.57406 a 66.954889,65.769136 0 0 0 -78.78061,-11.48814 l -273.9403,269.0889 A 40.172933,39.461481 0 1 1 273.35426,675.37416 L 396.74601,554.16765 305.33982,463.47466 a 66.954889,65.769136 0 0 0 -48.22568,-19.48923 z"
       id="path4193"
       inkscape:connector-curvature="0" />
  </g>
</svg>
