<?xml version="1.0" encoding="UTF-8" standalone="no"?>
<!-- Created with Inkscape (http://www.inkscape.org/) -->

<svg
   xmlns:dc="http://purl.org/dc/elements/1.1/"
   xmlns:cc="http://creativecommons.org/ns#"
   xmlns:rdf="http://www.w3.org/1999/02/22-rdf-syntax-ns#"
   xmlns:svg="http://www.w3.org/2000/svg"
   xmlns="http://www.w3.org/2000/svg"
   xmlns:sodipodi="http://sodipodi.sourceforge.net/DTD/sodipodi-0.dtd"
   xmlns:inkscape="http://www.inkscape.org/namespaces/inkscape"
   width="800"
   height="800"
   id="svg2"
   version="1.1"
   inkscape:version="0.48.5 r10040"
   sodipodi:docname="skyset_black.svg"
   inkscape:export-filename="/Users/Skyset/Documents/solarflystudios.github.io/Assets/Logos/haudio_blank.png"
   inkscape:export-xdpi="90"
   inkscape:export-ydpi="90">
  <defs
     id="defs4" />
  <sodipodi:namedview
     id="base"
     pagecolor="#ffffff"
     bordercolor="#666666"
     borderopacity="1.0"
     inkscape:pageopacity="0.0"
     inkscape:pageshadow="2"
     inkscape:zoom="0.49497475"
     inkscape:cx="497.91966"
     inkscape:cy="383.99403"
     inkscape:document-units="px"
     inkscape:current-layer="layer1"
     showgrid="false"
     showguides="true"
     inkscape:guide-bbox="true"
     inkscape:window-width="1280"
     inkscape:window-height="708"
     inkscape:window-x="0"
     inkscape:window-y="0"
     inkscape:window-maximized="1" />
  <metadata
     id="metadata7">
    <rdf:RDF>
      <cc:Work
         rdf:about="">
        <dc:format>image/svg+xml</dc:format>
        <dc:type
           rdf:resource="http://purl.org/dc/dcmitype/StillImage" />
        <dc:title></dc:title>
      </cc:Work>
    </rdf:RDF>
  </metadata>
  <g
     inkscape:label="Layer 1"
     inkscape:groupmode="layer"
     id="layer1"
     transform="translate(0,-252.36218)">
    <path
       style="fill:#000000;fill-opacity:1"
       d="M 609.03125 5.125 C 605.17471 5.1624338 600.90368 6.0159188 598.6875 7.46875 C 596.53024 8.88296 593.82 9.3582 587.1875 9.4375 C 576.70882 9.56272 571.47261 11.63121 564.0625 18.5625 C 545.48923 35.93562 551.44144 66.6573 575.25 76.1875 C 581.87237 78.83833 593.26891 78.55095 599.6875 75.5625 C 607.10262 72.11008 610.54606 69.31451 614.4375 63.5625 C 618.55762 57.47246 621 49.5406 621 42.21875 C 621 38.50592 621.60562 35.98282 622.90625 34.15625 C 626.00238 29.80815 627.2613 23.62162 626 18.9375 C 624.71907 14.1805 619.22714 7.76388 614.96875 6 C 613.48194 5.3841412 611.34517 5.1025397 609.03125 5.125 z M 488.84375 27.90625 C 483.48201 28.000327 478.1274 28.541125 474.53125 29.5 C 457.34303 34.08308 441.34863 47.20053 434.15625 62.625 L 431.84375 67.625 L 407.15625 67.21875 C 362.27656 66.46205 324.93814 72.7378 285.875 87.59375 C 279.48936 90.02225 273.78438 92 273.1875 92 C 272.59063 92 270.39359 88.7375 268.3125 84.75 C 262.90949 74.3975 252.55019 64.33941 241.78125 59.03125 C 219.41949 48.00885 196.29474 50.25211 176.3125 65.375 L 170.15625 70.0625 L 163.34375 68.96875 C 153.36807 67.37513 131.64693 67.6433 120.84375 69.5 C 70.860529 78.09042 27.792897 115.96001 12.1875 165.03125 C 6.8372764 181.85506 5.535696 190.67652 5.5625 210 C 5.5886612 228.86004 6.8902663 238.25084 11.65625 253.375 C 21.98808 286.16156 47.154266 317.68208 75.71875 333.65625 C 81.876559 337.09989 82.158478 337.40495 81.625 340.375 C 79.375358 352.89954 78.58243 365.61309 78.59375 389 C 78.606632 415.60974 79.844475 430.28972 83.59375 448.3125 C 84.37354 452.06095 85 456.04734 85 457.15625 C 85 459.17171 84.998786 459.17297 81.75 457.1875 C 77.367148 454.50895 68.559755 452 63.5 452 C 53.729345 452 42.37246 457.826 36.40625 465.90625 C 32.471187 471.23565 29 481.36301 29 487.53125 C 29 497.6652 35.705087 510.77816 43.71875 516.3125 C 50.475382 520.97872 54.981315 522.3656 63.5 522.4375 C 70.162239 522.49376 72.461353 522.05929 77.1875 519.84375 C 84.551993 516.39141 91.263993 510.1184 94.4375 503.75 L 96.96875 498.6875 L 98.5625 502.59375 C 103.94887 515.74972 108.72146 526.50938 112.6875 534.40625 L 117.21875 543.40625 L 114.375 545.78125 C 96.471429 560.66427 86.855857 572.47982 77.96875 590.5 C 68.336436 610.03122 64.192768 629.89659 65.375 651 C 67.211599 683.78419 79.931532 711.37338 103.5 733.75 C 123.69564 752.92434 145.36555 762.96975 173.1875 766.03125 C 219.26434 771.10145 266.83835 744.75356 288.90625 701.96875 C 291.30721 697.31382 293.41595 693.3668 293.5625 693.1875 C 293.70906 693.00821 298.01888 694.19844 303.15625 695.84375 C 316.20357 700.02232 327.51676 702.86492 341.5 705.46875 L 353.5 707.6875 L 353.21875 710.59375 C 353.0582 712.19032 352.8332 718.9 352.71875 725.5 C 352.47956 739.29362 354.46547 747.56827 360.75 759 C 368.52068 773.1351 384.95304 785.70715 401.21875 789.96875 C 420.97985 795.14615 443.25226 789.5127 458.875 775.375 C 475.95136 759.9218 484.08418 735.45149 479.46875 713.5 C 476.7866 700.74337 475.83262 702.1614 490 698.03125 C 496.875 696.02701 506.25926 692.94531 510.84375 691.1875 C 515.42824 689.42969 519.59526 688 520.125 688 C 520.65474 688 524.80173 690.22444 529.3125 692.9375 C 539.219 698.89589 549.79888 703.24846 561.65625 706.21875 C 573.31492 709.13926 598.38189 709.42764 610.25 706.78125 C 635.42052 701.16865 658.44349 687.08289 674.78125 667.34375 C 689.18339 649.9432 696.61791 632.74859 701.625 605.25 C 701.85033 604.0125 702.60423 603.008 703.28125 603 C 706.13844 602.96664 725.18082 592.79841 733.3125 586.96875 C 748.85843 575.82379 764.15227 557.72975 772.9375 540.15625 C 777.3852 531.25931 782.64659 515.09464 784.46875 504.625 C 786.45414 493.21773 786.4474 471.83987 784.46875 460.375 C 778.74194 427.19223 760.51347 397.69288 733.53125 377.9375 C 720.31969 368.26449 721.26517 369.56691 720.5625 359.96875 L 719.9375 351.4375 L 729.21875 350.34375 C 747.07958 348.22017 759.74068 342.19828 771.96875 330 C 780.65716 321.33277 785.93972 312.82451 789.6875 301.5 C 791.93751 294.70122 792.35705 291.69817 792.40625 281.5 C 792.47065 268.13876 790.97898 260.93252 786 250.5 C 777.28761 232.24482 758.60049 217.16619 739 212.5625 C 720.41811 208.19805 699.18528 212.26073 683.15625 223.25 C 680.76924 224.8865 678.4681 225.84799 678.03125 225.375 C 677.5944 224.90201 672.98122 218.14162 667.78125 210.375 C 654.42379 190.42447 644.79331 178.7147 627.53125 161.4375 C 606.19655 140.08408 584.43491 123.2944 560 109.28125 L 551.5 104.40625 L 551.8125 93.9375 C 552.04389 85.91481 551.65108 81.6763 550.09375 75.6875 C 544.09738 52.6282 525.4822 34.09939 503.21875 29 C 499.58613 28.167955 494.20549 27.812173 488.84375 27.90625 z M 656.15625 73.96875 C 653.50718 73.959971 650.81724 74.573667 648.21875 75.90625 C 633.27368 83.57053 633.42845 103.59893 648.5 111.4375 C 650.15 112.29565 653.64684 112.997 656.28125 113 C 665.3608 113.01168 672.68867 107.10247 675 97.90625 C 678.12931 85.455468 667.63556 74.006792 656.15625 73.96875 z M 394.78125 219.09375 C 439.0742 218.83358 483.40276 233.84081 508.15625 259.75 C 521.46853 273.6838 528.78745 289.22301 531 308.21875 C 532.27553 319.16974 531.61179 326.01534 528.96875 329.28125 C 527.19446 331.47367 526.86985 331.49591 494.84375 331.75 C 470.44342 331.94358 461.88627 331.69809 460 330.75 C 458.31057 329.90084 455.9423 326.31271 452.71875 319.65625 C 442.36366 298.27352 427.08982 289.35828 398.8125 288.25 C 374.97426 287.3157 357.66193 293.99818 350.6875 306.8125 C 344.87335 317.495 346.40753 327.22689 355.34375 336.375 C 365.3837 346.65301 382.13041 354.05573 420.03125 364.90625 C 480.00481 382.07592 499.10604 390.3314 515.78125 406.34375 C 532.55743 422.45308 540.19795 442.47765 540.28125 470.5 C 540.37673 502.60245 531.23781 525.92277 510.84375 545.625 C 491.25901 564.54536 462.83735 576.01532 425.78125 579.96875 C 416.72093 580.93538 389.90199 581.14457 382 580.3125 C 373.076 579.37282 355.48656 575.51122 345.5 572.3125 C 309.0214 560.62831 281.57704 538.70761 268.625 510.875 C 263.37574 499.59487 261.39074 492.54449 260 480.15625 C 258.65558 468.1805 259.44687 461.85692 262.6875 458.8125 L 265.15625 456.5 L 299.875 456.5 C 331.25127 456.5 334.83592 456.66824 337.25 458.25 C 340.838 460.60095 341.7315 462.48156 343 470.59375 C 345.80437 488.52802 358.03794 500.89552 379.15625 507.09375 C 389.20941 510.04435 416.98822 510.92059 427.84375 508.625 C 448.08065 504.34556 457.77374 494.43548 458.78125 477.03125 C 459.32616 467.61825 458.01911 463.13595 453.125 457.71875 C 445.2326 448.98281 435.83739 445.18865 400.5625 436.53125 C 313.09924 415.06541 278.6021 392.73337 267.28125 350.21875 C 265.0264 341.75083 264.673 338.43347 264.625 324.5 C 264.5573 304.86731 266.56627 295.43652 274 280.5 C 287.38534 253.60495 314.16664 234.2207 351.21875 224.59375 C 365.24865 220.94847 380.01693 219.18047 394.78125 219.09375 z M 665.03125 696 C 655.04451 696 649.54737 698.26513 642.40625 705.40625 C 635.23875 712.57374 633 718.01928 633 728.15625 C 633 743.5669 642.05603 755.496 656.9375 759.6875 C 671.34647 763.7459 688.26319 754.4743 693.9375 739.4375 C 696.69573 732.12825 696.43715 721.99267 693.28125 714.875 C 688.32351 703.69349 676.81025 696 665.03125 696 z "
       transform="translate(0,252.36218)"
       id="path5725" />
    <path
       style="fill:#ffffff;fill-opacity:1;stroke:none"
       d="M 394.78125 219.09375 C 380.01693 219.18047 365.24865 220.94847 351.21875 224.59375 C 314.16664 234.2207 287.38534 253.60495 274 280.5 C 266.56627 295.43652 264.5573 304.86731 264.625 324.5 C 264.673 338.43347 265.0264 341.75083 267.28125 350.21875 C 278.6021 392.73337 313.09924 415.06541 400.5625 436.53125 C 435.83739 445.18865 445.2326 448.98281 453.125 457.71875 C 458.01911 463.13595 459.32616 467.61825 458.78125 477.03125 C 457.77374 494.43548 448.08065 504.34556 427.84375 508.625 C 416.98822 510.92059 389.20941 510.04435 379.15625 507.09375 C 358.03794 500.89552 345.80437 488.52802 343 470.59375 C 341.7315 462.48156 340.838 460.60095 337.25 458.25 C 334.83592 456.66824 331.25127 456.5 299.875 456.5 L 265.15625 456.5 L 262.6875 458.8125 C 259.44687 461.85692 258.65558 468.1805 260 480.15625 C 261.39074 492.54449 263.37574 499.59487 268.625 510.875 C 281.57704 538.70761 309.0214 560.62831 345.5 572.3125 C 355.48656 575.51122 373.076 579.37282 382 580.3125 C 389.90199 581.14457 416.72093 580.93538 425.78125 579.96875 C 462.83735 576.01532 491.25901 564.54536 510.84375 545.625 C 531.23781 525.92277 540.37673 502.60245 540.28125 470.5 C 540.19795 442.47765 532.55743 422.45308 515.78125 406.34375 C 499.10604 390.3314 480.00481 382.07592 420.03125 364.90625 C 382.13041 354.05573 365.3837 346.65301 355.34375 336.375 C 346.40753 327.22689 344.87335 317.495 350.6875 306.8125 C 357.66193 293.99818 374.97426 287.3157 398.8125 288.25 C 427.08982 289.35828 442.36366 298.27352 452.71875 319.65625 C 455.9423 326.31271 458.31057 329.90084 460 330.75 C 461.88627 331.69809 470.44342 331.94358 494.84375 331.75 C 526.86985 331.49591 527.19446 331.47367 528.96875 329.28125 C 531.61179 326.01534 532.27553 319.16974 531 308.21875 C 528.78745 289.22301 521.46853 273.6838 508.15625 259.75 C 483.40276 233.84081 439.0742 218.83358 394.78125 219.09375 z "
       transform="translate(0,252.36218)"
       id="rect5735" />
  </g>
</svg>
