<?xml version="1.0" encoding="UTF-8" standalone="no"?>
<svg
   xmlns:dc="http://purl.org/dc/elements/1.1/"
   xmlns:cc="http://creativecommons.org/ns#"
   xmlns:rdf="http://www.w3.org/1999/02/22-rdf-syntax-ns#"
   xmlns:svg="http://www.w3.org/2000/svg"
   xmlns="http://www.w3.org/2000/svg"
   xmlns:sodipodi="http://sodipodi.sourceforge.net/DTD/sodipodi-0.dtd"
   xmlns:inkscape="http://www.inkscape.org/namespaces/inkscape"
   version="1.1"
   width="600"
   height="200"
   viewBox="0 0 600 200"
   id="svg2"
   inkscape:version="0.48.5 r10040"
   sodipodi:docname="creation.svg">
  <metadata
     id="metadata10">
    <rdf:RDF>
      <cc:Work
         rdf:about="">
        <dc:format>image/svg+xml</dc:format>
        <dc:type
           rdf:resource="http://purl.org/dc/dcmitype/StillImage" />
        <dc:title />
      </cc:Work>
    </rdf:RDF>
  </metadata>
  <defs
     id="defs8" />
  <sodipodi:namedview
     pagecolor="#ffffff"
     bordercolor="#666666"
     borderopacity="1"
     objecttolerance="10"
     gridtolerance="10"
     guidetolerance="10"
     inkscape:pageopacity="0"
     inkscape:pageshadow="2"
     inkscape:window-width="1280"
     inkscape:window-height="708"
     id="namedview6"
     showgrid="false"
     showguides="true"
     inkscape:guide-bbox="true"
     inkscape:zoom="1.0003729"
     inkscape:cx="345.14997"
     inkscape:cy="87.794912"
     inkscape:window-x="0"
     inkscape:window-y="0"
     inkscape:window-maximized="1"
     inkscape:current-layer="svg2" />
  <path
     d="m 413.21096,53.646231 c 2.32343,-2.323428 2.32343,-6.195808 0,-8.400086 L 399.27039,31.305578 c -2.20427,-2.323428 -6.07666,-2.323428 -8.40008,0 l -11.67672,11.676714 22.34065,22.340652 m -5.9575,5.957509 -22.34065,-22.340652 -59.57508,59.575069 v 22.34066 h 22.34064 l 59.57509,-59.575076 z"
     id="path4"
     inkscape:connector-curvature="0"
     style="fill:#000000" />
  <text
     xml:space="preserve"
     style="font-size:28px;font-style:normal;font-variant:normal;font-weight:normal;font-stretch:normal;text-align:center;line-height:125%;letter-spacing:0px;word-spacing:0px;writing-mode:lr-tb;text-anchor:middle;fill:#000000;fill-opacity:1;stroke:none;font-family:montserrat;-inkscape-font-specification:montserrat"
     x="196.74347"
     y="26.26746"
     id="text3782"
     sodipodi:linespacing="125%"><tspan
       sodipodi:role="line"
       id="tspan3784"
       x="196.74347"
       y="26.26746" /></text>
  <text
     xml:space="preserve"
     style="font-size:28px;font-style:normal;font-variant:normal;font-weight:normal;font-stretch:normal;text-align:start;line-height:125%;letter-spacing:0px;word-spacing:0px;writing-mode:lr-tb;text-anchor:start;fill:#000000;fill-opacity:1;stroke:none;font-family:montserrat;-inkscape-font-specification:montserrat"
     x="157.62604"
     y="53.683464"
     id="text3190"
     sodipodi:linespacing="125%"><tspan
       sodipodi:role="line"
       x="157.62604"
       y="53.683464"
       id="tspan3198" /></text>
  <path
     style="font-size:medium;font-style:normal;font-variant:normal;font-weight:normal;font-stretch:normal;text-indent:0;text-align:start;text-decoration:none;line-height:normal;letter-spacing:normal;word-spacing:normal;text-transform:none;direction:ltr;block-progression:tb;writing-mode:lr-tb;text-anchor:start;baseline-shift:baseline;color:#000000;fill:#000000;fill-opacity:1;stroke:none;stroke-width:20;marker:none;visibility:visible;display:inline;overflow:visible;enable-background:accumulate;font-family:Sans;-inkscape-font-specification:Sans"
     d="m 223.15775,29.61552 c -0.28871,0 -0.5565,0.08721 -0.84375,0.09375 -20.41987,0.46467 -37.0881,17.272923 -37.15625,37.78125 l -0.0937,0 0,25.937499 c 0,1.76393 -0.55194,11.107901 4.53125,20.250001 5.08319,9.1421 17.0442,17 33.71875,17 l 83.96875,0 0,-23 -83.96875,0 c -10.8213,0 -12.21213,-2.64646 -13.625,-5.1875 -1.41287,-2.541041 -1.625,-6.078191 -1.625,-9.062501 l 0,-25.812499 0.0937,0 c 0,-8.133755 6.15095,-14.473956 14.15625,-14.90625 0.2858,-0.01543 0.55337,-0.09375 0.84375,-0.09375 7.88649,0 14.07597,5.789911 14.84375,13.4375 0.0523,0.521367 0.15625,1.024847 0.15625,1.5625 0,22.094539 22.39175,33.05829 37.84375,33.5 19.33316,0 37.71875,-16.664381 37.71875,-35.625 0,-20.713842 -19.40103,-34.529471 -36.6875,-35.84375 l 0,23 c 7.22489,0.509766 13.75,5.767839 13.75,13 0,7.192592 -7.22336,12.46875 -14.78125,12.46875 -7.41366,0 -13.35903,-5.098921 -14.6875,-12.0625 -0.18107,-0.949134 -0.3125,-1.92702 -0.3125,-2.9375 0,-21.750108 -22.39175,-33.058293 -37.84375,-33.5 z"
     id="path3972"
     inkscape:connector-curvature="0" />
  <text
     xml:space="preserve"
     style="font-size:28px;font-style:normal;font-variant:normal;font-weight:normal;font-stretch:normal;text-align:center;line-height:125%;letter-spacing:0px;word-spacing:0px;writing-mode:lr-tb;text-anchor:middle;fill:#000000;fill-opacity:1;stroke:none;font-family:montserrat;-inkscape-font-specification:montserrat"
     x="299.22321"
     y="170.213"
     id="text4217"
     sodipodi:linespacing="125%"><tspan
       sodipodi:role="line"
       id="tspan4219"
       x="299.22321"
       y="170.213">DEVISE  -  DESIGN  -  DISCOVER</tspan></text>
</svg>
